<?xml version="1.0" encoding="utf-8" standalone="no"?>
<!DOCTYPE svg PUBLIC "-//W3C//DTD SVG 1.1//EN"
  "http://www.w3.org/Graphics/SVG/1.1/DTD/svg11.dtd">
<svg xmlns:xlink="http://www.w3.org/1999/xlink" width="698.4pt" height="157.438125pt" viewBox="0 0 698.4 157.438125" xmlns="http://www.w3.org/2000/svg" version="1.1">
 <metadata>
  <rdf:RDF xmlns:dc="http://purl.org/dc/elements/1.1/" xmlns:cc="http://creativecommons.org/ns#" xmlns:rdf="http://www.w3.org/1999/02/22-rdf-syntax-ns#">
   <cc:Work>
    <dc:type rdf:resource="http://purl.org/dc/dcmitype/StillImage"/>
    <dc:date>2025-07-05T15:43:27.146816</dc:date>
    <dc:format>image/svg+xml</dc:format>
    <dc:creator>
     <cc:Agent>
      <dc:title>Matplotlib v3.10.1, https://matplotlib.org/</dc:title>
     </cc:Agent>
    </dc:creator>
   </cc:Work>
  </rdf:RDF>
 </metadata>
 <defs>
  <style type="text/css">*{stroke-linejoin: round; stroke-linecap: butt}</style>
 </defs>
 <g id="figure_1">
  <g id="patch_1">
   <path d="M 0 157.438125 
L 698.4 157.438125 
L 698.4 0 
L 0 0 
L 0 157.438125 
z
" style="fill: none"/>
  </g>
  <g id="axes_1">
   <g id="line2d_1">
    <path d="M 31.745455 128.217386 
L 33.968748 128.076689 
L 35.239201 127.76576 
L 36.192041 127.288553 
L 37.144882 126.508892 
L 38.097722 125.391479 
L 39.685788 123.028435 
L 40.638628 121.705207 
L 41.273855 121.061111 
L 41.909082 120.704249 
L 42.544309 120.681483 
L 43.179535 120.995855 
L 43.814762 121.605915 
L 44.767602 122.901199 
L 46.673282 125.694875 
L 47.626122 126.73109 
L 48.578962 127.430587 
L 49.531802 127.845902 
L 51.755096 128.444636 
L 52.072709 128.754462 
L 52.390322 129.30528 
L 52.707936 130.211105 
L 53.343162 133.405048 
L 54.296003 140.03464 
L 54.613616 141.412527 
L 54.931229 141.615837 
L 55.248843 139.786819 
L 55.566456 133.658813 
L 55.884069 118.710277 
L 56.836909 26.16872 
L 57.154523 24.429913 
L 57.472136 49.544124 
L 58.107363 110.629866 
L 58.424976 125.520009 
L 59.060203 138.645376 
L 59.69543 148.115379 
L 60.013043 150.680316 
L 60.330656 150.561027 
L 60.64827 147.802445 
L 61.918723 131.484836 
L 62.236336 129.740291 
L 62.55395 128.841704 
L 62.871563 128.439356 
L 63.50679 128.219686 
L 66.36531 127.917894 
L 67.635763 127.550293 
L 68.906217 126.950873 
L 70.811897 125.712253 
L 72.399964 124.774933 
L 73.352804 124.480283 
L 74.305644 124.477205 
L 75.258484 124.766417 
L 76.528937 125.486254 
L 79.387457 127.271348 
L 80.657911 127.755284 
L 82.245978 128.069844 
L 84.469271 128.20746 
L 90.821538 128.232014 
L 138.781154 128.128374 
L 140.051608 127.901534 
L 141.004448 127.532302 
L 141.957288 126.894852 
L 142.910128 125.925586 
L 144.180581 124.164015 
L 145.768648 121.832243 
L 146.403875 121.148293 
L 147.039101 120.740362 
L 147.674328 120.661716 
L 148.309555 120.922852 
L 148.944781 121.489198 
L 149.897622 122.746555 
L 152.120915 125.95693 
L 153.073755 126.916753 
L 154.026595 127.545712 
L 154.979435 127.909107 
L 156.885115 128.378568 
L 157.202729 128.632265 
L 157.520342 129.092334 
L 157.837955 129.870033 
L 158.155569 131.072896 
L 158.790795 134.868811 
L 159.743635 141.067299 
L 160.061249 141.715282 
L 160.378862 140.701487 
L 160.696476 136.36437 
L 161.014089 124.882561 
L 161.331702 101.354623 
L 161.966929 33.110616 
L 162.284542 21.587216 
L 162.602156 39.293391 
L 163.237382 103.29357 
L 163.554996 121.75014 
L 163.872609 131.146133 
L 164.825449 146.825564 
L 165.143062 150.112557 
L 165.460676 150.912958 
L 165.778289 148.947998 
L 167.048743 132.295096 
L 167.366356 130.197945 
L 167.683969 129.064463 
L 168.001583 128.533986 
L 168.319196 128.315739 
L 169.272036 128.181507 
L 171.177716 127.996647 
L 172.44817 127.696237 
L 173.718623 127.175929 
L 175.30669 126.21748 
L 177.529983 124.822192 
L 178.482823 124.498869 
L 179.435663 124.462789 
L 180.388503 124.722368 
L 181.658957 125.418544 
L 184.517477 127.22133 
L 185.78793 127.724544 
L 187.058384 128.011376 
L 188.964064 128.183729 
L 193.093037 128.231433 
L 243.59356 128.164233 
L 245.181627 127.929277 
L 246.134467 127.583861 
L 247.087307 126.979512 
L 248.040147 126.047422 
L 248.992987 124.792835 
L 251.216281 121.57567 
L 251.851508 120.976532 
L 252.486734 120.675596 
L 253.121961 120.712584 
L 253.757188 121.082558 
L 254.392414 121.736996 
L 255.345254 123.068418 
L 257.250935 125.832213 
L 258.203775 126.829117 
L 259.156615 127.491784 
L 260.109455 127.879691 
L 262.332748 128.531799 
L 262.650362 128.913142 
L 262.967975 129.574531 
L 263.285588 130.628978 
L 263.920815 134.142717 
L 264.873655 140.616062 
L 265.191268 141.645316 
L 265.508882 141.281978 
L 265.826495 138.32636 
L 266.144108 129.73486 
L 266.461722 110.527918 
L 267.414562 22.046445 
L 267.732175 30.789027 
L 268.685015 117.002714 
L 269.002629 128.713527 
L 269.637855 140.435895 
L 270.273082 149.273915 
L 270.590695 150.962755 
L 270.908309 149.867728 
L 271.225922 146.377685 
L 272.178762 133.238524 
L 272.496375 130.758643 
L 272.813989 129.350601 
L 273.131602 128.660817 
L 273.449216 128.365592 
L 274.084442 128.208653 
L 276.625349 127.958913 
L 277.895802 127.625242 
L 279.166256 127.064652 
L 280.754323 126.071721 
L 282.660003 124.872017 
L 283.612843 124.520912 
L 284.565683 124.451933 
L 285.518523 124.681156 
L 286.471363 125.15592 
L 290.600337 127.584094 
L 291.87079 127.93654 
L 293.458857 128.141581 
L 296.317377 128.225932 
L 316.962245 128.232024 
L 349.041193 128.147692 
L 350.311647 127.955025 
L 351.264487 127.632346 
L 352.217327 127.060231 
L 353.170167 126.165324 
L 354.123007 124.942015 
L 356.663914 121.344534 
L 357.29914 120.838951 
L 357.934367 120.649597 
L 358.569594 120.801649 
L 359.204821 121.274857 
L 360.157661 122.444724 
L 362.698567 126.085823 
L 363.651408 127.005934 
L 364.604248 127.599812 
L 365.557088 127.93829 
L 367.462768 128.449625 
L 367.780381 128.763625 
L 368.097994 129.321041 
L 368.415608 130.235957 
L 369.050835 133.450557 
L 370.003675 140.074271 
L 370.321288 141.431692 
L 370.638901 141.602146 
L 370.956515 139.710363 
L 371.274128 133.443838 
L 371.591741 118.24056 
L 372.544581 25.800694 
L 372.862195 24.736727 
L 373.497421 84.651024 
L 373.815035 111.07817 
L 374.132648 125.745677 
L 374.767875 138.759522 
L 375.403102 148.19616 
L 375.720715 150.708389 
L 376.038328 150.526513 
L 376.355942 147.717628 
L 377.308782 134.317901 
L 377.626395 131.434568 
L 377.944008 129.712669 
L 378.261622 128.828601 
L 378.579235 128.433915 
L 379.214462 128.218891 
L 382.072982 127.916422 
L 383.343435 127.547642 
L 384.613889 126.946914 
L 386.519569 125.707479 
L 388.107636 124.771825 
L 389.060476 124.47915 
L 390.013316 124.47831 
L 390.966156 124.769503 
L 392.236609 125.49088 
L 395.095129 127.274681 
L 396.365583 127.757316 
L 397.95365 128.070696 
L 400.176943 128.207623 
L 406.846823 128.232018 
L 454.488826 128.127656 
L 455.75928 127.899579 
L 456.71212 127.528692 
L 457.66496 126.888968 
L 458.6178 125.917185 
L 459.888253 124.153306 
L 461.47632 121.823464 
L 462.111547 121.142145 
L 462.746773 120.737632 
L 463.382 120.662768 
L 464.017227 120.927545 
L 464.652453 121.496918 
L 465.605294 122.756971 
L 467.828587 125.965246 
L 468.781427 126.922549 
L 469.734267 127.549252 
L 470.687107 127.911026 
L 472.592787 128.382631 
L 472.910401 128.639823 
L 473.228014 129.105658 
L 473.545627 129.891679 
L 473.863241 131.104869 
L 474.498467 134.919052 
L 475.133694 139.457139 
L 475.451307 141.094232 
L 475.768921 141.71423 
L 476.086534 140.651014 
L 476.404148 136.206466 
L 476.721761 124.507563 
L 477.039374 100.682016 
L 477.674601 32.556225 
L 477.992214 21.677242 
L 478.309828 39.941738 
L 478.945054 103.834232 
L 479.262668 122.034181 
L 479.580281 131.296367 
L 480.533121 146.918365 
L 480.850734 150.159915 
L 481.168348 150.898552 
L 481.485961 148.877027 
L 482.756415 132.236014 
L 483.074028 130.163805 
L 483.391641 129.047494 
L 483.709255 128.526643 
L 484.344481 128.232343 
L 487.838228 127.787974 
L 489.108682 127.3254 
L 490.379135 126.629131 
L 493.555269 124.683182 
L 494.508109 124.452399 
L 495.460949 124.519708 
L 496.413789 124.869424 
L 497.684242 125.63378 
L 499.907536 127.061833 
L 501.177989 127.623413 
L 502.448442 127.957926 
L 504.036509 128.14943 
L 506.895029 128.226616 
L 530.080804 128.232024 
L 559.618846 128.137818 
L 560.889299 127.92746 
L 561.842139 127.580463 
L 562.794979 126.973898 
L 563.747819 126.039285 
L 564.700659 124.78263 
L 566.923953 121.56767 
L 567.55918 120.971466 
L 568.194406 120.674125 
L 568.829633 120.714905 
L 569.46486 121.08836 
L 570.100086 121.745533 
L 571.37054 123.567095 
L 572.958607 125.840789 
L 573.911447 126.835185 
L 574.864287 127.495543 
L 575.817127 127.881752 
L 578.04042 128.537995 
L 578.358034 128.924308 
L 578.675647 129.593195 
L 578.99326 130.657447 
L 579.628487 134.190963 
L 580.581327 140.649687 
L 580.89894 141.654848 
L 581.216554 141.251548 
L 581.534167 138.21331 
L 581.85178 129.444188 
L 582.169394 109.951593 
L 583.122234 21.909502 
L 583.439847 31.295351 
L 584.392687 117.359744 
L 584.710301 128.893158 
L 585.345527 140.549063 
L 585.980754 149.338732 
L 586.298367 150.969034 
L 586.615981 149.813271 
L 587.251207 141.532923 
L 587.886434 133.170272 
L 588.204047 130.717118 
L 588.521661 129.328948 
L 588.839274 128.65103 
L 589.156888 128.361688 
L 589.792114 128.208046 
L 592.333021 127.957597 
L 593.603474 127.622803 
L 594.873928 127.060893 
L 596.461995 126.066917 
L 598.367675 124.868561 
L 599.320515 124.519309 
L 600.273355 124.452556 
L 601.226195 124.683858 
L 602.179035 125.160094 
L 606.308009 127.586643 
L 607.578462 127.937937 
L 609.166529 128.142098 
L 612.025049 128.225978 
L 632.98753 128.232024 
L 666.654545 128.232024 
L 666.654545 128.232024 
" clip-path="url(#p576dcdc12c)" style="fill: none; stroke: #cc0000; stroke-width: 2; stroke-linecap: square"/>
   </g>
   <g id="text_1">
    <!-- ECG f=90.5 PANAS: PA=12 NA=31 -->
    <g transform="translate(245.421563 9.118125) scale(0.12 -0.12)">
     <defs>
      <path id="DejaVuSans-45" d="M 628 4666 
L 3578 4666 
L 3578 4134 
L 1259 4134 
L 1259 2753 
L 3481 2753 
L 3481 2222 
L 1259 2222 
L 1259 531 
L 3634 531 
L 3634 0 
L 628 0 
L 628 4666 
z
" transform="scale(0.015625)"/>
      <path id="DejaVuSans-43" d="M 4122 4306 
L 4122 3641 
Q 3803 3938 3442 4084 
Q 3081 4231 2675 4231 
Q 1875 4231 1450 3742 
Q 1025 3253 1025 2328 
Q 1025 1406 1450 917 
Q 1875 428 2675 428 
Q 3081 428 3442 575 
Q 3803 722 4122 1019 
L 4122 359 
Q 3791 134 3420 21 
Q 3050 -91 2638 -91 
Q 1578 -91 968 557 
Q 359 1206 359 2328 
Q 359 3453 968 4101 
Q 1578 4750 2638 4750 
Q 3056 4750 3426 4639 
Q 3797 4528 4122 4306 
z
" transform="scale(0.015625)"/>
      <path id="DejaVuSans-47" d="M 3809 666 
L 3809 1919 
L 2778 1919 
L 2778 2438 
L 4434 2438 
L 4434 434 
Q 4069 175 3628 42 
Q 3188 -91 2688 -91 
Q 1594 -91 976 548 
Q 359 1188 359 2328 
Q 359 3472 976 4111 
Q 1594 4750 2688 4750 
Q 3144 4750 3555 4637 
Q 3966 4525 4313 4306 
L 4313 3634 
Q 3963 3931 3569 4081 
Q 3175 4231 2741 4231 
Q 1884 4231 1454 3753 
Q 1025 3275 1025 2328 
Q 1025 1384 1454 906 
Q 1884 428 2741 428 
Q 3075 428 3337 486 
Q 3600 544 3809 666 
z
" transform="scale(0.015625)"/>
      <path id="DejaVuSans-20" transform="scale(0.015625)"/>
      <path id="DejaVuSans-66" d="M 2375 4863 
L 2375 4384 
L 1825 4384 
Q 1516 4384 1395 4259 
Q 1275 4134 1275 3809 
L 1275 3500 
L 2222 3500 
L 2222 3053 
L 1275 3053 
L 1275 0 
L 697 0 
L 697 3053 
L 147 3053 
L 147 3500 
L 697 3500 
L 697 3744 
Q 697 4328 969 4595 
Q 1241 4863 1831 4863 
L 2375 4863 
z
" transform="scale(0.015625)"/>
      <path id="DejaVuSans-3d" d="M 678 2906 
L 4684 2906 
L 4684 2381 
L 678 2381 
L 678 2906 
z
M 678 1631 
L 4684 1631 
L 4684 1100 
L 678 1100 
L 678 1631 
z
" transform="scale(0.015625)"/>
      <path id="DejaVuSans-39" d="M 703 97 
L 703 672 
Q 941 559 1184 500 
Q 1428 441 1663 441 
Q 2288 441 2617 861 
Q 2947 1281 2994 2138 
Q 2813 1869 2534 1725 
Q 2256 1581 1919 1581 
Q 1219 1581 811 2004 
Q 403 2428 403 3163 
Q 403 3881 828 4315 
Q 1253 4750 1959 4750 
Q 2769 4750 3195 4129 
Q 3622 3509 3622 2328 
Q 3622 1225 3098 567 
Q 2575 -91 1691 -91 
Q 1453 -91 1209 -44 
Q 966 3 703 97 
z
M 1959 2075 
Q 2384 2075 2632 2365 
Q 2881 2656 2881 3163 
Q 2881 3666 2632 3958 
Q 2384 4250 1959 4250 
Q 1534 4250 1286 3958 
Q 1038 3666 1038 3163 
Q 1038 2656 1286 2365 
Q 1534 2075 1959 2075 
z
" transform="scale(0.015625)"/>
      <path id="DejaVuSans-30" d="M 2034 4250 
Q 1547 4250 1301 3770 
Q 1056 3291 1056 2328 
Q 1056 1369 1301 889 
Q 1547 409 2034 409 
Q 2525 409 2770 889 
Q 3016 1369 3016 2328 
Q 3016 3291 2770 3770 
Q 2525 4250 2034 4250 
z
M 2034 4750 
Q 2819 4750 3233 4129 
Q 3647 3509 3647 2328 
Q 3647 1150 3233 529 
Q 2819 -91 2034 -91 
Q 1250 -91 836 529 
Q 422 1150 422 2328 
Q 422 3509 836 4129 
Q 1250 4750 2034 4750 
z
" transform="scale(0.015625)"/>
      <path id="DejaVuSans-2e" d="M 684 794 
L 1344 794 
L 1344 0 
L 684 0 
L 684 794 
z
" transform="scale(0.015625)"/>
      <path id="DejaVuSans-35" d="M 691 4666 
L 3169 4666 
L 3169 4134 
L 1269 4134 
L 1269 2991 
Q 1406 3038 1543 3061 
Q 1681 3084 1819 3084 
Q 2600 3084 3056 2656 
Q 3513 2228 3513 1497 
Q 3513 744 3044 326 
Q 2575 -91 1722 -91 
Q 1428 -91 1123 -41 
Q 819 9 494 109 
L 494 744 
Q 775 591 1075 516 
Q 1375 441 1709 441 
Q 2250 441 2565 725 
Q 2881 1009 2881 1497 
Q 2881 1984 2565 2268 
Q 2250 2553 1709 2553 
Q 1456 2553 1204 2497 
Q 953 2441 691 2322 
L 691 4666 
z
" transform="scale(0.015625)"/>
      <path id="DejaVuSans-50" d="M 1259 4147 
L 1259 2394 
L 2053 2394 
Q 2494 2394 2734 2622 
Q 2975 2850 2975 3272 
Q 2975 3691 2734 3919 
Q 2494 4147 2053 4147 
L 1259 4147 
z
M 628 4666 
L 2053 4666 
Q 2838 4666 3239 4311 
Q 3641 3956 3641 3272 
Q 3641 2581 3239 2228 
Q 2838 1875 2053 1875 
L 1259 1875 
L 1259 0 
L 628 0 
L 628 4666 
z
" transform="scale(0.015625)"/>
      <path id="DejaVuSans-41" d="M 2188 4044 
L 1331 1722 
L 3047 1722 
L 2188 4044 
z
M 1831 4666 
L 2547 4666 
L 4325 0 
L 3669 0 
L 3244 1197 
L 1141 1197 
L 716 0 
L 50 0 
L 1831 4666 
z
" transform="scale(0.015625)"/>
      <path id="DejaVuSans-4e" d="M 628 4666 
L 1478 4666 
L 3547 763 
L 3547 4666 
L 4159 4666 
L 4159 0 
L 3309 0 
L 1241 3903 
L 1241 0 
L 628 0 
L 628 4666 
z
" transform="scale(0.015625)"/>
      <path id="DejaVuSans-53" d="M 3425 4513 
L 3425 3897 
Q 3066 4069 2747 4153 
Q 2428 4238 2131 4238 
Q 1616 4238 1336 4038 
Q 1056 3838 1056 3469 
Q 1056 3159 1242 3001 
Q 1428 2844 1947 2747 
L 2328 2669 
Q 3034 2534 3370 2195 
Q 3706 1856 3706 1288 
Q 3706 609 3251 259 
Q 2797 -91 1919 -91 
Q 1588 -91 1214 -16 
Q 841 59 441 206 
L 441 856 
Q 825 641 1194 531 
Q 1563 422 1919 422 
Q 2459 422 2753 634 
Q 3047 847 3047 1241 
Q 3047 1584 2836 1778 
Q 2625 1972 2144 2069 
L 1759 2144 
Q 1053 2284 737 2584 
Q 422 2884 422 3419 
Q 422 4038 858 4394 
Q 1294 4750 2059 4750 
Q 2388 4750 2728 4690 
Q 3069 4631 3425 4513 
z
" transform="scale(0.015625)"/>
      <path id="DejaVuSans-3a" d="M 750 794 
L 1409 794 
L 1409 0 
L 750 0 
L 750 794 
z
M 750 3309 
L 1409 3309 
L 1409 2516 
L 750 2516 
L 750 3309 
z
" transform="scale(0.015625)"/>
      <path id="DejaVuSans-31" d="M 794 531 
L 1825 531 
L 1825 4091 
L 703 3866 
L 703 4441 
L 1819 4666 
L 2450 4666 
L 2450 531 
L 3481 531 
L 3481 0 
L 794 0 
L 794 531 
z
" transform="scale(0.015625)"/>
      <path id="DejaVuSans-32" d="M 1228 531 
L 3431 531 
L 3431 0 
L 469 0 
L 469 531 
Q 828 903 1448 1529 
Q 2069 2156 2228 2338 
Q 2531 2678 2651 2914 
Q 2772 3150 2772 3378 
Q 2772 3750 2511 3984 
Q 2250 4219 1831 4219 
Q 1534 4219 1204 4116 
Q 875 4013 500 3803 
L 500 4441 
Q 881 4594 1212 4672 
Q 1544 4750 1819 4750 
Q 2544 4750 2975 4387 
Q 3406 4025 3406 3419 
Q 3406 3131 3298 2873 
Q 3191 2616 2906 2266 
Q 2828 2175 2409 1742 
Q 1991 1309 1228 531 
z
" transform="scale(0.015625)"/>
      <path id="DejaVuSans-33" d="M 2597 2516 
Q 3050 2419 3304 2112 
Q 3559 1806 3559 1356 
Q 3559 666 3084 287 
Q 2609 -91 1734 -91 
Q 1441 -91 1130 -33 
Q 819 25 488 141 
L 488 750 
Q 750 597 1062 519 
Q 1375 441 1716 441 
Q 2309 441 2620 675 
Q 2931 909 2931 1356 
Q 2931 1769 2642 2001 
Q 2353 2234 1838 2234 
L 1294 2234 
L 1294 2753 
L 1863 2753 
Q 2328 2753 2575 2939 
Q 2822 3125 2822 3475 
Q 2822 3834 2567 4026 
Q 2313 4219 1838 4219 
Q 1578 4219 1281 4162 
Q 984 4106 628 3988 
L 628 4550 
Q 988 4650 1302 4700 
Q 1616 4750 1894 4750 
Q 2613 4750 3031 4423 
Q 3450 4097 3450 3541 
Q 3450 3153 3228 2886 
Q 3006 2619 2597 2516 
z
" transform="scale(0.015625)"/>
     </defs>
     <use xlink:href="#DejaVuSans-45"/>
     <use xlink:href="#DejaVuSans-43" transform="translate(63.183594 0)"/>
     <use xlink:href="#DejaVuSans-47" transform="translate(133.007812 0)"/>
     <use xlink:href="#DejaVuSans-20" transform="translate(210.498047 0)"/>
     <use xlink:href="#DejaVuSans-66" transform="translate(242.285156 0)"/>
     <use xlink:href="#DejaVuSans-3d" transform="translate(277.490234 0)"/>
     <use xlink:href="#DejaVuSans-39" transform="translate(361.279297 0)"/>
     <use xlink:href="#DejaVuSans-30" transform="translate(424.902344 0)"/>
     <use xlink:href="#DejaVuSans-2e" transform="translate(488.525391 0)"/>
     <use xlink:href="#DejaVuSans-35" transform="translate(520.3125 0)"/>
     <use xlink:href="#DejaVuSans-20" transform="translate(583.935547 0)"/>
     <use xlink:href="#DejaVuSans-50" transform="translate(615.722656 0)"/>
     <use xlink:href="#DejaVuSans-41" transform="translate(669.650391 0)"/>
     <use xlink:href="#DejaVuSans-4e" transform="translate(738.058594 0)"/>
     <use xlink:href="#DejaVuSans-41" transform="translate(812.863281 0)"/>
     <use xlink:href="#DejaVuSans-53" transform="translate(881.271484 0)"/>
     <use xlink:href="#DejaVuSans-3a" transform="translate(944.748047 0)"/>
     <use xlink:href="#DejaVuSans-20" transform="translate(978.439453 0)"/>
     <use xlink:href="#DejaVuSans-50" transform="translate(1010.226562 0)"/>
     <use xlink:href="#DejaVuSans-41" transform="translate(1064.154297 0)"/>
     <use xlink:href="#DejaVuSans-3d" transform="translate(1132.5625 0)"/>
     <use xlink:href="#DejaVuSans-31" transform="translate(1216.351562 0)"/>
     <use xlink:href="#DejaVuSans-32" transform="translate(1279.974609 0)"/>
     <use xlink:href="#DejaVuSans-20" transform="translate(1343.597656 0)"/>
     <use xlink:href="#DejaVuSans-4e" transform="translate(1375.384766 0)"/>
     <use xlink:href="#DejaVuSans-41" transform="translate(1450.189453 0)"/>
     <use xlink:href="#DejaVuSans-3d" transform="translate(1518.597656 0)"/>
     <use xlink:href="#DejaVuSans-33" transform="translate(1602.386719 0)"/>
     <use xlink:href="#DejaVuSans-31" transform="translate(1666.009766 0)"/>
    </g>
   </g>
  </g>
 </g>
 <defs>
  <clipPath id="p576dcdc12c">
   <rect x="0" y="15.118125" width="698.4" height="142.32"/>
  </clipPath>
 </defs>
</svg>
