<?xml version="1.0" encoding="utf-8" standalone="no"?>
<!DOCTYPE svg PUBLIC "-//W3C//DTD SVG 1.1//EN"
  "http://www.w3.org/Graphics/SVG/1.1/DTD/svg11.dtd">
<svg xmlns:xlink="http://www.w3.org/1999/xlink" width="504pt" height="360pt" viewBox="0 0 504 360" xmlns="http://www.w3.org/2000/svg" version="1.1">
 <metadata>
  <rdf:RDF xmlns:dc="http://purl.org/dc/elements/1.1/" xmlns:cc="http://creativecommons.org/ns#" xmlns:rdf="http://www.w3.org/1999/02/22-rdf-syntax-ns#">
   <cc:Work>
    <dc:type rdf:resource="http://purl.org/dc/dcmitype/StillImage"/>
    <dc:date>2025-07-05T15:55:43.451292</dc:date>
    <dc:format>image/svg+xml</dc:format>
    <dc:creator>
     <cc:Agent>
      <dc:title>Matplotlib v3.10.1, https://matplotlib.org/</dc:title>
     </cc:Agent>
    </dc:creator>
   </cc:Work>
  </rdf:RDF>
 </metadata>
 <defs>
  <style type="text/css">*{stroke-linejoin: round; stroke-linecap: butt}</style>
 </defs>
 <g id="figure_1">
  <g id="patch_1">
   <path d="M 0 360 
L 504 360 
L 504 0 
L 0 0 
z
" style="fill: #ffffff"/>
  </g>
  <g id="axes_1">
   <g id="patch_2">
    <path d="M 471.272727 188.04 
L 471.224314 184.961442 
L 471.079094 181.884244 
L 470.837133 178.809764 
L 470.498536 175.73936 
L 470.063454 172.674388 
L 469.532079 169.6162 
L 468.904645 166.566148 
L 468.181429 163.525578 
L 467.362751 160.495833 
L 466.448973 157.478251 
L 465.440496 154.474164 
L 464.337768 151.484898 
L 463.141275 148.511775 
L 461.851546 145.556106 
L 460.469148 142.619196 
L 458.994695 139.702344 
L 457.428835 136.806835 
L 455.772261 133.93395 
L 454.025705 131.084957 
L 452.189937 128.261113 
L 450.265768 125.463666 
L 448.254048 122.693851 
L 446.155664 119.952891 
L 443.971545 117.241996 
L 441.702653 114.562364 
L 439.349992 111.915177 
L 436.914599 109.301605 
L 434.397551 106.722802 
L 431.799958 104.179906 
L 429.122969 101.67404 
L 426.367763 99.206311 
L 423.53556 96.777809 
L 420.627608 94.389605 
L 417.645193 92.042755 
L 414.58963 89.738294 
L 411.46227 87.477241 
L 408.264493 85.260593 
L 404.997712 83.08933 
L 401.663368 80.96441 
L 398.262935 78.886771 
L 394.797913 76.857332 
L 391.269833 74.876988 
L 387.680253 72.946613 
L 384.030757 71.06706 
L 380.322958 69.23916 
L 376.558492 67.463718 
L 372.739022 65.74152 
L 368.866235 64.073325 
L 364.94184 62.45987 
L 360.96757 60.901868 
L 356.945181 59.400006 
L 352.876448 57.954949 
L 348.763168 56.567333 
L 344.607158 55.237772 
L 340.410252 53.966852 
L 336.174304 52.755136 
L 331.901185 51.603157 
L 327.592781 50.511426 
L 323.250994 49.480422 
L 318.877742 48.510603 
L 314.474957 47.602397 
L 310.044581 46.756203 
L 305.588572 45.972396 
L 301.108897 45.251323 
L 296.607534 44.593301 
L 292.086471 43.998621 
L 287.547705 43.467545 
L 282.993239 43.000309 
L 278.425084 42.597118 
L 273.845258 42.258151 
L 269.255784 41.983557 
L 264.658687 41.773457 
L 260.055997 41.627944 
L 255.449748 41.547083 
L 250.841972 41.530909 
L 246.234706 41.579429 
L 241.629982 41.692622 
L 237.029835 41.870439 
L 232.436296 42.112799 
L 227.851392 42.419597 
L 223.27715 42.790696 
L 218.715588 43.225934 
L 214.16872 43.725117 
L 209.638555 44.288026 
L 205.127094 44.914412 
L 200.636327 45.603998 
L 196.168238 46.356479 
L 191.724801 47.171524 
L 187.307976 48.048773 
L 182.919715 48.987838 
L 178.561956 49.988304 
L 174.236621 51.04973 
L 169.945623 52.171647 
L 165.690854 53.35356 
L 161.474195 54.594946 
L 157.297506 55.895258 
L 153.162633 57.253922 
L 149.071401 58.670337 
L 145.025616 60.143877 
L 141.027066 61.673894 
L 137.077516 63.25971 
L 133.178709 64.900625 
L 129.332368 66.595915 
L 125.540191 68.344832 
L 121.803852 70.146603 
L 118.125002 72.000432 
L 114.505264 73.9055 
L 110.946238 75.860968 
L 107.449494 77.86597 
L 104.016577 79.919622 
L 100.649002 82.021018 
L 97.348258 84.169228 
L 94.1158 86.363304 
L 90.953057 88.602278 
L 87.861425 90.885161 
L 84.842269 93.210945 
L 81.896923 95.578603 
L 79.026687 97.987089 
L 76.232829 100.43534 
L 73.516581 102.922275 
L 70.879144 105.446795 
L 68.321683 108.007786 
L 65.845325 110.604117 
L 63.451166 113.234642 
L 61.140262 115.898198 
L 58.913634 118.59361 
L 56.772264 121.319688 
L 54.717099 124.075228 
L 52.749046 126.859013 
L 50.868974 129.669813 
L 49.077713 132.506388 
L 47.376053 135.367485 
L 45.764748 138.251841 
L 44.244507 141.158182 
L 42.816003 144.085225 
L 41.479866 147.031677 
L 40.236686 149.996237 
L 39.087012 152.977596 
L 38.031351 155.974437 
L 37.070171 158.985438 
L 36.203895 162.009269 
L 35.432905 165.044594 
L 34.757543 168.090073 
L 34.178107 171.144361 
L 33.694851 174.20611 
L 33.307991 177.273968 
L 33.017696 180.34658 
L 32.824095 183.422588 
L 32.727273 186.500636 
L 32.727273 189.579364 
L 32.824095 192.657412 
L 33.017696 195.73342 
L 33.307991 198.806032 
L 33.694851 201.87389 
L 34.178107 204.935639 
L 34.757543 207.989927 
L 35.432905 211.035406 
L 36.203895 214.070731 
L 37.070171 217.094562 
L 38.031351 220.105563 
L 39.087012 223.102404 
L 40.236686 226.083763 
L 41.479866 229.048323 
L 42.816003 231.994775 
L 44.244507 234.921818 
L 45.764748 237.828159 
L 47.376053 240.712515 
L 49.077713 243.573612 
L 50.868974 246.410187 
L 52.749046 249.220987 
L 54.717099 252.004772 
L 56.772264 254.760312 
L 58.913634 257.48639 
L 61.140262 260.181802 
L 63.451166 262.845358 
L 65.845325 265.475883 
L 68.321683 268.072214 
L 70.879144 270.633205 
L 73.516581 273.157725 
L 76.232829 275.64466 
L 79.026687 278.092911 
L 81.896923 280.501397 
L 84.842269 282.869055 
L 87.861425 285.194839 
L 90.953057 287.477722 
L 94.1158 289.716696 
L 97.348258 291.910772 
L 100.649002 294.058982 
L 104.016577 296.160378 
L 107.449494 298.21403 
L 110.946238 300.219032 
L 114.505264 302.1745 
L 118.125002 304.079568 
L 121.803852 305.933397 
L 125.540191 307.735168 
L 129.332368 309.484085 
L 133.178709 311.179375 
L 137.077516 312.82029 
L 141.027066 314.406106 
L 145.025616 315.936123 
L 149.071401 317.409663 
L 153.162633 318.826078 
L 157.297506 320.184742 
L 161.474195 321.485054 
L 165.690854 322.72644 
L 169.945623 323.908353 
L 174.236621 325.03027 
L 178.561956 326.091696 
L 182.919715 327.092162 
L 187.307976 328.031227 
L 191.724801 328.908476 
L 196.168238 329.723521 
L 200.636327 330.476002 
L 205.127094 331.165588 
L 209.638555 331.791974 
L 214.16872 332.354883 
L 218.715588 332.854066 
L 223.27715 333.289304 
L 227.851392 333.660403 
L 232.436296 333.967201 
L 237.029835 334.209561 
L 241.629982 334.387378 
L 246.234706 334.500571 
L 250.841972 334.549091 
L 255.449748 334.532917 
L 260.055997 334.452056 
L 264.658687 334.306543 
L 269.255784 334.096443 
L 273.845258 333.821849 
L 278.425084 333.482882 
L 282.993239 333.079691 
L 287.547705 332.612455 
L 292.086471 332.081379 
L 296.607534 331.486699 
L 301.108897 330.828677 
L 305.588572 330.107604 
L 310.044581 329.323797 
L 314.474957 328.477603 
L 318.877742 327.569397 
L 323.250994 326.599578 
L 327.592781 325.568574 
L 331.901185 324.476843 
L 336.174304 323.324864 
L 340.410252 322.113148 
L 344.607158 320.842228 
L 348.763168 319.512667 
L 352.876448 318.125051 
L 356.945181 316.679994 
L 360.96757 315.178132 
L 364.94184 313.62013 
L 368.866235 312.006675 
L 372.739022 310.33848 
L 376.558492 308.616282 
L 380.322958 306.84084 
L 384.030757 305.01294 
L 387.680253 303.133387 
L 391.269833 301.203012 
L 394.797913 299.222668 
L 398.262935 297.193229 
L 401.663368 295.11559 
L 404.997712 292.99067 
L 408.264493 290.819407 
L 411.46227 288.602759 
L 414.58963 286.341706 
L 417.645193 284.037245 
L 420.627608 281.690395 
L 423.53556 279.302191 
L 426.367763 276.873689 
L 429.122969 274.40596 
L 431.799958 271.900094 
L 434.397551 269.357198 
L 436.914599 266.778395 
L 439.349992 264.164823 
L 441.702653 261.517636 
L 443.971545 258.838004 
L 446.155664 256.127109 
L 448.254048 253.386149 
L 450.265768 250.616334 
L 452.189937 247.818887 
L 454.025705 244.995043 
L 455.772261 242.14605 
L 457.428835 239.273165 
L 458.994695 236.377656 
L 460.469148 233.460804 
L 461.851546 230.523894 
L 463.141275 227.568225 
L 464.337768 224.595102 
L 465.440496 221.605836 
L 466.448973 218.601749 
L 467.362751 215.584167 
L 468.181429 212.554422 
L 468.904645 209.513852 
L 469.532079 206.4638 
L 470.063454 203.405612 
L 470.498536 200.34064 
L 470.837133 197.270236 
L 471.079094 194.195756 
L 471.224314 191.118558 
L 471.272727 188.04 
z
" clip-path="url(#p9e93f3ea4a)" style="fill: #e0e0e0; stroke: #e0e0e0; stroke-linejoin: miter"/>
   </g>
   <g id="line2d_1">
    <path d="M 471.272727 188.04 
L 471.079094 181.884244 
L 470.498536 175.73936 
L 469.532079 169.6162 
L 468.181429 163.525578 
L 466.448973 157.478251 
L 464.337768 151.484898 
L 461.851546 145.556106 
L 458.994695 139.702344 
L 455.772261 133.93395 
L 452.189937 128.261113 
L 448.254048 122.693851 
L 443.971545 117.241996 
L 439.349992 111.915177 
L 434.397551 106.722802 
L 429.122969 101.67404 
L 423.53556 96.777809 
L 417.645193 92.042755 
L 411.46227 87.477241 
L 404.997712 83.08933 
L 398.262935 78.886771 
L 391.269833 74.876988 
L 384.030757 71.06706 
L 376.558492 67.463718 
L 368.866235 64.073325 
L 360.96757 60.901868 
L 352.876448 57.954949 
L 344.607158 55.237772 
L 336.174304 52.755136 
L 327.592781 50.511426 
L 318.877742 48.510603 
L 310.044581 46.756203 
L 301.108897 45.251323 
L 292.086471 43.998621 
L 282.993239 43.000309 
L 273.845258 42.258151 
L 264.658687 41.773457 
L 255.449748 41.547083 
L 246.234706 41.579429 
L 237.029835 41.870439 
L 227.851392 42.419597 
L 218.715588 43.225934 
L 209.638555 44.288026 
L 200.636327 45.603998 
L 191.724801 47.171524 
L 182.919715 48.987838 
L 174.236621 51.04973 
L 165.690854 53.35356 
L 157.297506 55.895258 
L 149.071401 58.670337 
L 141.027066 61.673894 
L 133.178709 64.900625 
L 125.540191 68.344832 
L 118.125002 72.000432 
L 110.946238 75.860968 
L 104.016577 79.919622 
L 97.348258 84.169228 
L 90.953057 88.602278 
L 84.842269 93.210945 
L 79.026687 97.987089 
L 73.516581 102.922275 
L 68.321683 108.007786 
L 63.451166 113.234642 
L 58.913634 118.59361 
L 54.717099 124.075228 
L 50.868974 129.669813 
L 47.376053 135.367485 
L 44.244507 141.158182 
L 41.479866 147.031677 
L 39.087012 152.977596 
L 37.070171 158.985438 
L 35.432905 165.044594 
L 34.178107 171.144361 
L 33.307991 177.273968 
L 32.824095 183.422588 
L 32.727273 189.579364 
L 33.017696 195.73342 
L 33.694851 201.87389 
L 34.757543 207.989927 
L 36.203895 214.070731 
L 38.031351 220.105563 
L 40.236686 226.083763 
L 42.816003 231.994775 
L 45.764748 237.828159 
L 49.077713 243.573612 
L 52.749046 249.220987 
L 56.772264 254.760312 
L 61.140262 260.181802 
L 65.845325 265.475883 
L 70.879144 270.633205 
L 76.232829 275.64466 
L 81.896923 280.501397 
L 87.861425 285.194839 
L 94.1158 289.716696 
L 100.649002 294.058982 
L 107.449494 298.21403 
L 114.505264 302.1745 
L 121.803852 305.933397 
L 129.332368 309.484085 
L 137.077516 312.82029 
L 145.025616 315.936123 
L 153.162633 318.826078 
L 161.474195 321.485054 
L 169.945623 323.908353 
L 178.561956 326.091696 
L 187.307976 328.031227 
L 196.168238 329.723521 
L 205.127094 331.165588 
L 214.16872 332.354883 
L 223.27715 333.289304 
L 232.436296 333.967201 
L 241.629982 334.387378 
L 250.841972 334.549091 
L 260.055997 334.452056 
L 269.255784 334.096443 
L 278.425084 333.482882 
L 287.547705 332.612455 
L 296.607534 331.486699 
L 305.588572 330.107604 
L 314.474957 328.477603 
L 323.250994 326.599578 
L 331.901185 324.476843 
L 340.410252 322.113148 
L 348.763168 319.512667 
L 356.945181 316.679994 
L 364.94184 313.62013 
L 372.739022 310.33848 
L 380.322958 306.84084 
L 387.680253 303.133387 
L 394.797913 299.222668 
L 401.663368 295.11559 
L 408.264493 290.819407 
L 414.58963 286.341706 
L 420.627608 281.690395 
L 426.367763 276.873689 
L 431.799958 271.900094 
L 436.914599 266.778395 
L 441.702653 261.517636 
L 446.155664 256.127109 
L 450.265768 250.616334 
L 454.025705 244.995043 
L 457.428835 239.273165 
L 460.469148 233.460804 
L 463.141275 227.568225 
L 465.440496 221.605836 
L 467.362751 215.584167 
L 468.904645 209.513852 
L 470.063454 203.405612 
L 470.837133 197.270236 
L 471.224314 191.118558 
L 471.272727 188.04 
L 471.272727 188.04 
" clip-path="url(#p9e93f3ea4a)" style="fill: none; stroke: #808080; stroke-width: 2; stroke-linecap: square"/>
   </g>
   <g id="PathCollection_1">
    <defs>
     <path id="ma1821083d1" d="M 0 12.845233 
C 3.406596 12.845233 6.674124 11.491778 9.082951 9.082951 
C 11.491778 6.674124 12.845233 3.406596 12.845233 0 
C 12.845233 -3.406596 11.491778 -6.674124 9.082951 -9.082951 
C 6.674124 -11.491778 3.406596 -12.845233 0 -12.845233 
C -3.406596 -12.845233 -6.674124 -11.491778 -9.082951 -9.082951 
C -11.491778 -6.674124 -12.845233 -3.406596 -12.845233 0 
C -12.845233 3.406596 -11.491778 6.674124 -9.082951 9.082951 
C -6.674124 11.491778 -3.406596 12.845233 0 12.845233 
z
" style="stroke: #ffd700; stroke-opacity: 0.8; stroke-width: 2"/>
    </defs>
    <g clip-path="url(#p9e93f3ea4a)">
     <use xlink:href="#ma1821083d1" x="186.210314" y="119.668147" style="fill: #ff0000; fill-opacity: 0.8; stroke: #ffd700; stroke-opacity: 0.8; stroke-width: 2"/>
    </g>
   </g>
   <g id="PathCollection_2">
    <defs>
     <path id="m0b1a302696" d="M 0 11.726039 
C 3.109782 11.726039 6.092614 10.49051 8.291562 8.291562 
C 10.49051 6.092614 11.726039 3.109782 11.726039 0 
C 11.726039 -3.109782 10.49051 -6.092614 8.291562 -8.291562 
C 6.092614 -10.49051 3.109782 -11.726039 0 -11.726039 
C -3.109782 -11.726039 -6.092614 -10.49051 -8.291562 -8.291562 
C -10.49051 -6.092614 -11.726039 -3.109782 -11.726039 0 
C -11.726039 3.109782 -10.49051 6.092614 -8.291562 8.291562 
C -6.092614 10.49051 -3.109782 11.726039 0 11.726039 
z
" style="stroke: #ffd700; stroke-opacity: 0.8; stroke-width: 2"/>
    </defs>
    <g clip-path="url(#p9e93f3ea4a)">
     <use xlink:href="#m0b1a302696" x="339.70546" y="168.505185" style="fill: #ff0000; fill-opacity: 0.8; stroke: #ffd700; stroke-opacity: 0.8; stroke-width: 2"/>
    </g>
   </g>
   <g id="PathCollection_3">
    <defs>
     <path id="m4682fb6a3c" d="M 0 11 
C 2.917234 11 5.715379 9.840971 7.778175 7.778175 
C 9.840971 5.715379 11 2.917234 11 0 
C 11 -2.917234 9.840971 -5.715379 7.778175 -7.778175 
C 5.715379 -9.840971 2.917234 -11 0 -11 
C -2.917234 -11 -5.715379 -9.840971 -7.778175 -7.778175 
C -9.840971 -5.715379 -11 -2.917234 -11 0 
C -11 2.917234 -9.840971 5.715379 -7.778175 7.778175 
C -5.715379 9.840971 -2.917234 11 0 11 
z
" style="stroke: #ffd700; stroke-opacity: 0.8; stroke-width: 2"/>
    </defs>
    <g clip-path="url(#p9e93f3ea4a)">
     <use xlink:href="#m4682fb6a3c" x="251.993948" y="266.17926" style="fill: #ff0000; fill-opacity: 0.8; stroke: #ffd700; stroke-opacity: 0.8; stroke-width: 2"/>
    </g>
   </g>
   <g id="text_1">
    <!-- fMRI: Mappe di Attivazione Cerebrale (simulazione) -->
    <g transform="translate(98.333438 20.88) scale(0.12 -0.12)">
     <defs>
      <path id="DejaVuSans-66" d="M 2375 4863 
L 2375 4384 
L 1825 4384 
Q 1516 4384 1395 4259 
Q 1275 4134 1275 3809 
L 1275 3500 
L 2222 3500 
L 2222 3053 
L 1275 3053 
L 1275 0 
L 697 0 
L 697 3053 
L 147 3053 
L 147 3500 
L 697 3500 
L 697 3744 
Q 697 4328 969 4595 
Q 1241 4863 1831 4863 
L 2375 4863 
z
" transform="scale(0.015625)"/>
      <path id="DejaVuSans-4d" d="M 628 4666 
L 1569 4666 
L 2759 1491 
L 3956 4666 
L 4897 4666 
L 4897 0 
L 4281 0 
L 4281 4097 
L 3078 897 
L 2444 897 
L 1241 4097 
L 1241 0 
L 628 0 
L 628 4666 
z
" transform="scale(0.015625)"/>
      <path id="DejaVuSans-52" d="M 2841 2188 
Q 3044 2119 3236 1894 
Q 3428 1669 3622 1275 
L 4263 0 
L 3584 0 
L 2988 1197 
Q 2756 1666 2539 1819 
Q 2322 1972 1947 1972 
L 1259 1972 
L 1259 0 
L 628 0 
L 628 4666 
L 2053 4666 
Q 2853 4666 3247 4331 
Q 3641 3997 3641 3322 
Q 3641 2881 3436 2590 
Q 3231 2300 2841 2188 
z
M 1259 4147 
L 1259 2491 
L 2053 2491 
Q 2509 2491 2742 2702 
Q 2975 2913 2975 3322 
Q 2975 3731 2742 3939 
Q 2509 4147 2053 4147 
L 1259 4147 
z
" transform="scale(0.015625)"/>
      <path id="DejaVuSans-49" d="M 628 4666 
L 1259 4666 
L 1259 0 
L 628 0 
L 628 4666 
z
" transform="scale(0.015625)"/>
      <path id="DejaVuSans-3a" d="M 750 794 
L 1409 794 
L 1409 0 
L 750 0 
L 750 794 
z
M 750 3309 
L 1409 3309 
L 1409 2516 
L 750 2516 
L 750 3309 
z
" transform="scale(0.015625)"/>
      <path id="DejaVuSans-20" transform="scale(0.015625)"/>
      <path id="DejaVuSans-61" d="M 2194 1759 
Q 1497 1759 1228 1600 
Q 959 1441 959 1056 
Q 959 750 1161 570 
Q 1363 391 1709 391 
Q 2188 391 2477 730 
Q 2766 1069 2766 1631 
L 2766 1759 
L 2194 1759 
z
M 3341 1997 
L 3341 0 
L 2766 0 
L 2766 531 
Q 2569 213 2275 61 
Q 1981 -91 1556 -91 
Q 1019 -91 701 211 
Q 384 513 384 1019 
Q 384 1609 779 1909 
Q 1175 2209 1959 2209 
L 2766 2209 
L 2766 2266 
Q 2766 2663 2505 2880 
Q 2244 3097 1772 3097 
Q 1472 3097 1187 3025 
Q 903 2953 641 2809 
L 641 3341 
Q 956 3463 1253 3523 
Q 1550 3584 1831 3584 
Q 2591 3584 2966 3190 
Q 3341 2797 3341 1997 
z
" transform="scale(0.015625)"/>
      <path id="DejaVuSans-70" d="M 1159 525 
L 1159 -1331 
L 581 -1331 
L 581 3500 
L 1159 3500 
L 1159 2969 
Q 1341 3281 1617 3432 
Q 1894 3584 2278 3584 
Q 2916 3584 3314 3078 
Q 3713 2572 3713 1747 
Q 3713 922 3314 415 
Q 2916 -91 2278 -91 
Q 1894 -91 1617 61 
Q 1341 213 1159 525 
z
M 3116 1747 
Q 3116 2381 2855 2742 
Q 2594 3103 2138 3103 
Q 1681 3103 1420 2742 
Q 1159 2381 1159 1747 
Q 1159 1113 1420 752 
Q 1681 391 2138 391 
Q 2594 391 2855 752 
Q 3116 1113 3116 1747 
z
" transform="scale(0.015625)"/>
      <path id="DejaVuSans-65" d="M 3597 1894 
L 3597 1613 
L 953 1613 
Q 991 1019 1311 708 
Q 1631 397 2203 397 
Q 2534 397 2845 478 
Q 3156 559 3463 722 
L 3463 178 
Q 3153 47 2828 -22 
Q 2503 -91 2169 -91 
Q 1331 -91 842 396 
Q 353 884 353 1716 
Q 353 2575 817 3079 
Q 1281 3584 2069 3584 
Q 2775 3584 3186 3129 
Q 3597 2675 3597 1894 
z
M 3022 2063 
Q 3016 2534 2758 2815 
Q 2500 3097 2075 3097 
Q 1594 3097 1305 2825 
Q 1016 2553 972 2059 
L 3022 2063 
z
" transform="scale(0.015625)"/>
      <path id="DejaVuSans-64" d="M 2906 2969 
L 2906 4863 
L 3481 4863 
L 3481 0 
L 2906 0 
L 2906 525 
Q 2725 213 2448 61 
Q 2172 -91 1784 -91 
Q 1150 -91 751 415 
Q 353 922 353 1747 
Q 353 2572 751 3078 
Q 1150 3584 1784 3584 
Q 2172 3584 2448 3432 
Q 2725 3281 2906 2969 
z
M 947 1747 
Q 947 1113 1208 752 
Q 1469 391 1925 391 
Q 2381 391 2643 752 
Q 2906 1113 2906 1747 
Q 2906 2381 2643 2742 
Q 2381 3103 1925 3103 
Q 1469 3103 1208 2742 
Q 947 2381 947 1747 
z
" transform="scale(0.015625)"/>
      <path id="DejaVuSans-69" d="M 603 3500 
L 1178 3500 
L 1178 0 
L 603 0 
L 603 3500 
z
M 603 4863 
L 1178 4863 
L 1178 4134 
L 603 4134 
L 603 4863 
z
" transform="scale(0.015625)"/>
      <path id="DejaVuSans-41" d="M 2188 4044 
L 1331 1722 
L 3047 1722 
L 2188 4044 
z
M 1831 4666 
L 2547 4666 
L 4325 0 
L 3669 0 
L 3244 1197 
L 1141 1197 
L 716 0 
L 50 0 
L 1831 4666 
z
" transform="scale(0.015625)"/>
      <path id="DejaVuSans-74" d="M 1172 4494 
L 1172 3500 
L 2356 3500 
L 2356 3053 
L 1172 3053 
L 1172 1153 
Q 1172 725 1289 603 
Q 1406 481 1766 481 
L 2356 481 
L 2356 0 
L 1766 0 
Q 1100 0 847 248 
Q 594 497 594 1153 
L 594 3053 
L 172 3053 
L 172 3500 
L 594 3500 
L 594 4494 
L 1172 4494 
z
" transform="scale(0.015625)"/>
      <path id="DejaVuSans-76" d="M 191 3500 
L 800 3500 
L 1894 563 
L 2988 3500 
L 3597 3500 
L 2284 0 
L 1503 0 
L 191 3500 
z
" transform="scale(0.015625)"/>
      <path id="DejaVuSans-7a" d="M 353 3500 
L 3084 3500 
L 3084 2975 
L 922 459 
L 3084 459 
L 3084 0 
L 275 0 
L 275 525 
L 2438 3041 
L 353 3041 
L 353 3500 
z
" transform="scale(0.015625)"/>
      <path id="DejaVuSans-6f" d="M 1959 3097 
Q 1497 3097 1228 2736 
Q 959 2375 959 1747 
Q 959 1119 1226 758 
Q 1494 397 1959 397 
Q 2419 397 2687 759 
Q 2956 1122 2956 1747 
Q 2956 2369 2687 2733 
Q 2419 3097 1959 3097 
z
M 1959 3584 
Q 2709 3584 3137 3096 
Q 3566 2609 3566 1747 
Q 3566 888 3137 398 
Q 2709 -91 1959 -91 
Q 1206 -91 779 398 
Q 353 888 353 1747 
Q 353 2609 779 3096 
Q 1206 3584 1959 3584 
z
" transform="scale(0.015625)"/>
      <path id="DejaVuSans-6e" d="M 3513 2113 
L 3513 0 
L 2938 0 
L 2938 2094 
Q 2938 2591 2744 2837 
Q 2550 3084 2163 3084 
Q 1697 3084 1428 2787 
Q 1159 2491 1159 1978 
L 1159 0 
L 581 0 
L 581 3500 
L 1159 3500 
L 1159 2956 
Q 1366 3272 1645 3428 
Q 1925 3584 2291 3584 
Q 2894 3584 3203 3211 
Q 3513 2838 3513 2113 
z
" transform="scale(0.015625)"/>
      <path id="DejaVuSans-43" d="M 4122 4306 
L 4122 3641 
Q 3803 3938 3442 4084 
Q 3081 4231 2675 4231 
Q 1875 4231 1450 3742 
Q 1025 3253 1025 2328 
Q 1025 1406 1450 917 
Q 1875 428 2675 428 
Q 3081 428 3442 575 
Q 3803 722 4122 1019 
L 4122 359 
Q 3791 134 3420 21 
Q 3050 -91 2638 -91 
Q 1578 -91 968 557 
Q 359 1206 359 2328 
Q 359 3453 968 4101 
Q 1578 4750 2638 4750 
Q 3056 4750 3426 4639 
Q 3797 4528 4122 4306 
z
" transform="scale(0.015625)"/>
      <path id="DejaVuSans-72" d="M 2631 2963 
Q 2534 3019 2420 3045 
Q 2306 3072 2169 3072 
Q 1681 3072 1420 2755 
Q 1159 2438 1159 1844 
L 1159 0 
L 581 0 
L 581 3500 
L 1159 3500 
L 1159 2956 
Q 1341 3275 1631 3429 
Q 1922 3584 2338 3584 
Q 2397 3584 2469 3576 
Q 2541 3569 2628 3553 
L 2631 2963 
z
" transform="scale(0.015625)"/>
      <path id="DejaVuSans-62" d="M 3116 1747 
Q 3116 2381 2855 2742 
Q 2594 3103 2138 3103 
Q 1681 3103 1420 2742 
Q 1159 2381 1159 1747 
Q 1159 1113 1420 752 
Q 1681 391 2138 391 
Q 2594 391 2855 752 
Q 3116 1113 3116 1747 
z
M 1159 2969 
Q 1341 3281 1617 3432 
Q 1894 3584 2278 3584 
Q 2916 3584 3314 3078 
Q 3713 2572 3713 1747 
Q 3713 922 3314 415 
Q 2916 -91 2278 -91 
Q 1894 -91 1617 61 
Q 1341 213 1159 525 
L 1159 0 
L 581 0 
L 581 4863 
L 1159 4863 
L 1159 2969 
z
" transform="scale(0.015625)"/>
      <path id="DejaVuSans-6c" d="M 603 4863 
L 1178 4863 
L 1178 0 
L 603 0 
L 603 4863 
z
" transform="scale(0.015625)"/>
      <path id="DejaVuSans-28" d="M 1984 4856 
Q 1566 4138 1362 3434 
Q 1159 2731 1159 2009 
Q 1159 1288 1364 580 
Q 1569 -128 1984 -844 
L 1484 -844 
Q 1016 -109 783 600 
Q 550 1309 550 2009 
Q 550 2706 781 3412 
Q 1013 4119 1484 4856 
L 1984 4856 
z
" transform="scale(0.015625)"/>
      <path id="DejaVuSans-73" d="M 2834 3397 
L 2834 2853 
Q 2591 2978 2328 3040 
Q 2066 3103 1784 3103 
Q 1356 3103 1142 2972 
Q 928 2841 928 2578 
Q 928 2378 1081 2264 
Q 1234 2150 1697 2047 
L 1894 2003 
Q 2506 1872 2764 1633 
Q 3022 1394 3022 966 
Q 3022 478 2636 193 
Q 2250 -91 1575 -91 
Q 1294 -91 989 -36 
Q 684 19 347 128 
L 347 722 
Q 666 556 975 473 
Q 1284 391 1588 391 
Q 1994 391 2212 530 
Q 2431 669 2431 922 
Q 2431 1156 2273 1281 
Q 2116 1406 1581 1522 
L 1381 1569 
Q 847 1681 609 1914 
Q 372 2147 372 2553 
Q 372 3047 722 3315 
Q 1072 3584 1716 3584 
Q 2034 3584 2315 3537 
Q 2597 3491 2834 3397 
z
" transform="scale(0.015625)"/>
      <path id="DejaVuSans-6d" d="M 3328 2828 
Q 3544 3216 3844 3400 
Q 4144 3584 4550 3584 
Q 5097 3584 5394 3201 
Q 5691 2819 5691 2113 
L 5691 0 
L 5113 0 
L 5113 2094 
Q 5113 2597 4934 2840 
Q 4756 3084 4391 3084 
Q 3944 3084 3684 2787 
Q 3425 2491 3425 1978 
L 3425 0 
L 2847 0 
L 2847 2094 
Q 2847 2600 2669 2842 
Q 2491 3084 2119 3084 
Q 1678 3084 1418 2786 
Q 1159 2488 1159 1978 
L 1159 0 
L 581 0 
L 581 3500 
L 1159 3500 
L 1159 2956 
Q 1356 3278 1631 3431 
Q 1906 3584 2284 3584 
Q 2666 3584 2933 3390 
Q 3200 3197 3328 2828 
z
" transform="scale(0.015625)"/>
      <path id="DejaVuSans-75" d="M 544 1381 
L 544 3500 
L 1119 3500 
L 1119 1403 
Q 1119 906 1312 657 
Q 1506 409 1894 409 
Q 2359 409 2629 706 
Q 2900 1003 2900 1516 
L 2900 3500 
L 3475 3500 
L 3475 0 
L 2900 0 
L 2900 538 
Q 2691 219 2414 64 
Q 2138 -91 1772 -91 
Q 1169 -91 856 284 
Q 544 659 544 1381 
z
M 1991 3584 
L 1991 3584 
z
" transform="scale(0.015625)"/>
      <path id="DejaVuSans-29" d="M 513 4856 
L 1013 4856 
Q 1481 4119 1714 3412 
Q 1947 2706 1947 2009 
Q 1947 1309 1714 600 
Q 1481 -109 1013 -844 
L 513 -844 
Q 928 -128 1133 580 
Q 1338 1288 1338 2009 
Q 1338 2731 1133 3434 
Q 928 4138 513 4856 
z
" transform="scale(0.015625)"/>
     </defs>
     <use xlink:href="#DejaVuSans-66"/>
     <use xlink:href="#DejaVuSans-4d" transform="translate(35.205078 0)"/>
     <use xlink:href="#DejaVuSans-52" transform="translate(121.484375 0)"/>
     <use xlink:href="#DejaVuSans-49" transform="translate(190.966797 0)"/>
     <use xlink:href="#DejaVuSans-3a" transform="translate(220.458984 0)"/>
     <use xlink:href="#DejaVuSans-20" transform="translate(254.150391 0)"/>
     <use xlink:href="#DejaVuSans-4d" transform="translate(285.9375 0)"/>
     <use xlink:href="#DejaVuSans-61" transform="translate(372.216797 0)"/>
     <use xlink:href="#DejaVuSans-70" transform="translate(433.496094 0)"/>
     <use xlink:href="#DejaVuSans-70" transform="translate(496.972656 0)"/>
     <use xlink:href="#DejaVuSans-65" transform="translate(560.449219 0)"/>
     <use xlink:href="#DejaVuSans-20" transform="translate(621.972656 0)"/>
     <use xlink:href="#DejaVuSans-64" transform="translate(653.759766 0)"/>
     <use xlink:href="#DejaVuSans-69" transform="translate(717.236328 0)"/>
     <use xlink:href="#DejaVuSans-20" transform="translate(745.019531 0)"/>
     <use xlink:href="#DejaVuSans-41" transform="translate(776.806641 0)"/>
     <use xlink:href="#DejaVuSans-74" transform="translate(843.464844 0)"/>
     <use xlink:href="#DejaVuSans-74" transform="translate(882.673828 0)"/>
     <use xlink:href="#DejaVuSans-69" transform="translate(921.882812 0)"/>
     <use xlink:href="#DejaVuSans-76" transform="translate(949.666016 0)"/>
     <use xlink:href="#DejaVuSans-61" transform="translate(1008.845703 0)"/>
     <use xlink:href="#DejaVuSans-7a" transform="translate(1070.125 0)"/>
     <use xlink:href="#DejaVuSans-69" transform="translate(1122.615234 0)"/>
     <use xlink:href="#DejaVuSans-6f" transform="translate(1150.398438 0)"/>
     <use xlink:href="#DejaVuSans-6e" transform="translate(1211.580078 0)"/>
     <use xlink:href="#DejaVuSans-65" transform="translate(1274.958984 0)"/>
     <use xlink:href="#DejaVuSans-20" transform="translate(1336.482422 0)"/>
     <use xlink:href="#DejaVuSans-43" transform="translate(1368.269531 0)"/>
     <use xlink:href="#DejaVuSans-65" transform="translate(1438.09375 0)"/>
     <use xlink:href="#DejaVuSans-72" transform="translate(1499.617188 0)"/>
     <use xlink:href="#DejaVuSans-65" transform="translate(1538.480469 0)"/>
     <use xlink:href="#DejaVuSans-62" transform="translate(1600.003906 0)"/>
     <use xlink:href="#DejaVuSans-72" transform="translate(1663.480469 0)"/>
     <use xlink:href="#DejaVuSans-61" transform="translate(1704.59375 0)"/>
     <use xlink:href="#DejaVuSans-6c" transform="translate(1765.873047 0)"/>
     <use xlink:href="#DejaVuSans-65" transform="translate(1793.65625 0)"/>
     <use xlink:href="#DejaVuSans-20" transform="translate(1855.179688 0)"/>
     <use xlink:href="#DejaVuSans-28" transform="translate(1886.966797 0)"/>
     <use xlink:href="#DejaVuSans-73" transform="translate(1925.980469 0)"/>
     <use xlink:href="#DejaVuSans-69" transform="translate(1978.080078 0)"/>
     <use xlink:href="#DejaVuSans-6d" transform="translate(2005.863281 0)"/>
     <use xlink:href="#DejaVuSans-75" transform="translate(2103.275391 0)"/>
     <use xlink:href="#DejaVuSans-6c" transform="translate(2166.654297 0)"/>
     <use xlink:href="#DejaVuSans-61" transform="translate(2194.4375 0)"/>
     <use xlink:href="#DejaVuSans-7a" transform="translate(2255.716797 0)"/>
     <use xlink:href="#DejaVuSans-69" transform="translate(2308.207031 0)"/>
     <use xlink:href="#DejaVuSans-6f" transform="translate(2335.990234 0)"/>
     <use xlink:href="#DejaVuSans-6e" transform="translate(2397.171875 0)"/>
     <use xlink:href="#DejaVuSans-65" transform="translate(2460.550781 0)"/>
     <use xlink:href="#DejaVuSans-29" transform="translate(2522.074219 0)"/>
    </g>
   </g>
  </g>
 </g>
 <defs>
  <clipPath id="p9e93f3ea4a">
   <rect x="10.8" y="26.88" width="482.4" height="322.32"/>
  </clipPath>
 </defs>
</svg>
