<?xml version="1.0" encoding="utf-8" standalone="no"?>
<!DOCTYPE svg PUBLIC "-//W3C//DTD SVG 1.1//EN"
  "http://www.w3.org/Graphics/SVG/1.1/DTD/svg11.dtd">
<svg xmlns:xlink="http://www.w3.org/1999/xlink" width="792pt" height="360pt" viewBox="0 0 792 360" xmlns="http://www.w3.org/2000/svg" version="1.1">
 <metadata>
  <rdf:RDF xmlns:dc="http://purl.org/dc/elements/1.1/" xmlns:cc="http://creativecommons.org/ns#" xmlns:rdf="http://www.w3.org/1999/02/22-rdf-syntax-ns#">
   <cc:Work>
    <dc:type rdf:resource="http://purl.org/dc/dcmitype/StillImage"/>
    <dc:date>2025-07-05T16:34:36.539351</dc:date>
    <dc:format>image/svg+xml</dc:format>
    <dc:creator>
     <cc:Agent>
      <dc:title>Matplotlib v3.10.1, https://matplotlib.org/</dc:title>
     </cc:Agent>
    </dc:creator>
   </cc:Work>
  </rdf:RDF>
 </metadata>
 <defs>
  <style type="text/css">*{stroke-linejoin: round; stroke-linecap: butt}</style>
 </defs>
 <g id="figure_1">
  <g id="patch_1">
   <path d="M 0 360 
L 792 360 
L 792 0 
L 0 0 
z
" style="fill: #ffffff"/>
  </g>
  <g id="axes_1">
   <g id="patch_2">
    <path d="M 47.72 318.04 
L 781.2 318.04 
L 781.2 41.856 
L 47.72 41.856 
z
" style="fill: #ffffff"/>
   </g>
   <g id="patch_3">
    <path d="M 258.873333 318.04 
L 370.006667 318.04 
L 370.006667 41.856 
L 258.873333 41.856 
z
" clip-path="url(#p1db91c2029)" style="fill: #ffff00; opacity: 0.15; stroke: #ffff00; stroke-linejoin: miter"/>
   </g>
   <g id="matplotlib.axis_1">
    <g id="xtick_1">
     <g id="line2d_1">
      <defs>
       <path id="mc8e9377ba0" d="M 0 0 
L 0 3.5 
" style="stroke: #000000; stroke-width: 0.8"/>
      </defs>
      <g>
       <use xlink:href="#mc8e9377ba0" x="81.06" y="318.04" style="stroke: #000000; stroke-width: 0.8"/>
      </g>
     </g>
     <g id="text_1">
      <!-- 0 -->
      <g transform="translate(77.87875 332.638438) scale(0.1 -0.1)">
       <defs>
        <path id="DejaVuSans-30" d="M 2034 4250 
Q 1547 4250 1301 3770 
Q 1056 3291 1056 2328 
Q 1056 1369 1301 889 
Q 1547 409 2034 409 
Q 2525 409 2770 889 
Q 3016 1369 3016 2328 
Q 3016 3291 2770 3770 
Q 2525 4250 2034 4250 
z
M 2034 4750 
Q 2819 4750 3233 4129 
Q 3647 3509 3647 2328 
Q 3647 1150 3233 529 
Q 2819 -91 2034 -91 
Q 1250 -91 836 529 
Q 422 1150 422 2328 
Q 422 3509 836 4129 
Q 1250 4750 2034 4750 
z
" transform="scale(0.015625)"/>
       </defs>
       <use xlink:href="#DejaVuSans-30"/>
      </g>
     </g>
    </g>
    <g id="xtick_2">
     <g id="line2d_2">
      <g>
       <use xlink:href="#mc8e9377ba0" x="192.193333" y="318.04" style="stroke: #000000; stroke-width: 0.8"/>
      </g>
     </g>
     <g id="text_2">
      <!-- 5 -->
      <g transform="translate(189.012083 332.638438) scale(0.1 -0.1)">
       <defs>
        <path id="DejaVuSans-35" d="M 691 4666 
L 3169 4666 
L 3169 4134 
L 1269 4134 
L 1269 2991 
Q 1406 3038 1543 3061 
Q 1681 3084 1819 3084 
Q 2600 3084 3056 2656 
Q 3513 2228 3513 1497 
Q 3513 744 3044 326 
Q 2575 -91 1722 -91 
Q 1428 -91 1123 -41 
Q 819 9 494 109 
L 494 744 
Q 775 591 1075 516 
Q 1375 441 1709 441 
Q 2250 441 2565 725 
Q 2881 1009 2881 1497 
Q 2881 1984 2565 2268 
Q 2250 2553 1709 2553 
Q 1456 2553 1204 2497 
Q 953 2441 691 2322 
L 691 4666 
z
" transform="scale(0.015625)"/>
       </defs>
       <use xlink:href="#DejaVuSans-35"/>
      </g>
     </g>
    </g>
    <g id="xtick_3">
     <g id="line2d_3">
      <g>
       <use xlink:href="#mc8e9377ba0" x="303.326667" y="318.04" style="stroke: #000000; stroke-width: 0.8"/>
      </g>
     </g>
     <g id="text_3">
      <!-- 10 -->
      <g transform="translate(296.964167 332.638438) scale(0.1 -0.1)">
       <defs>
        <path id="DejaVuSans-31" d="M 794 531 
L 1825 531 
L 1825 4091 
L 703 3866 
L 703 4441 
L 1819 4666 
L 2450 4666 
L 2450 531 
L 3481 531 
L 3481 0 
L 794 0 
L 794 531 
z
" transform="scale(0.015625)"/>
       </defs>
       <use xlink:href="#DejaVuSans-31"/>
       <use xlink:href="#DejaVuSans-30" transform="translate(63.623047 0)"/>
      </g>
     </g>
    </g>
    <g id="xtick_4">
     <g id="line2d_4">
      <g>
       <use xlink:href="#mc8e9377ba0" x="414.46" y="318.04" style="stroke: #000000; stroke-width: 0.8"/>
      </g>
     </g>
     <g id="text_4">
      <!-- 15 -->
      <g transform="translate(408.0975 332.638438) scale(0.1 -0.1)">
       <use xlink:href="#DejaVuSans-31"/>
       <use xlink:href="#DejaVuSans-35" transform="translate(63.623047 0)"/>
      </g>
     </g>
    </g>
    <g id="xtick_5">
     <g id="line2d_5">
      <g>
       <use xlink:href="#mc8e9377ba0" x="525.593333" y="318.04" style="stroke: #000000; stroke-width: 0.8"/>
      </g>
     </g>
     <g id="text_5">
      <!-- 20 -->
      <g transform="translate(519.230833 332.638438) scale(0.1 -0.1)">
       <defs>
        <path id="DejaVuSans-32" d="M 1228 531 
L 3431 531 
L 3431 0 
L 469 0 
L 469 531 
Q 828 903 1448 1529 
Q 2069 2156 2228 2338 
Q 2531 2678 2651 2914 
Q 2772 3150 2772 3378 
Q 2772 3750 2511 3984 
Q 2250 4219 1831 4219 
Q 1534 4219 1204 4116 
Q 875 4013 500 3803 
L 500 4441 
Q 881 4594 1212 4672 
Q 1544 4750 1819 4750 
Q 2544 4750 2975 4387 
Q 3406 4025 3406 3419 
Q 3406 3131 3298 2873 
Q 3191 2616 2906 2266 
Q 2828 2175 2409 1742 
Q 1991 1309 1228 531 
z
" transform="scale(0.015625)"/>
       </defs>
       <use xlink:href="#DejaVuSans-32"/>
       <use xlink:href="#DejaVuSans-30" transform="translate(63.623047 0)"/>
      </g>
     </g>
    </g>
    <g id="xtick_6">
     <g id="line2d_6">
      <g>
       <use xlink:href="#mc8e9377ba0" x="636.726667" y="318.04" style="stroke: #000000; stroke-width: 0.8"/>
      </g>
     </g>
     <g id="text_6">
      <!-- 25 -->
      <g transform="translate(630.364167 332.638438) scale(0.1 -0.1)">
       <use xlink:href="#DejaVuSans-32"/>
       <use xlink:href="#DejaVuSans-35" transform="translate(63.623047 0)"/>
      </g>
     </g>
    </g>
    <g id="xtick_7">
     <g id="line2d_7">
      <g>
       <use xlink:href="#mc8e9377ba0" x="747.86" y="318.04" style="stroke: #000000; stroke-width: 0.8"/>
      </g>
     </g>
     <g id="text_7">
      <!-- 30 -->
      <g transform="translate(741.4975 332.638438) scale(0.1 -0.1)">
       <defs>
        <path id="DejaVuSans-33" d="M 2597 2516 
Q 3050 2419 3304 2112 
Q 3559 1806 3559 1356 
Q 3559 666 3084 287 
Q 2609 -91 1734 -91 
Q 1441 -91 1130 -33 
Q 819 25 488 141 
L 488 750 
Q 750 597 1062 519 
Q 1375 441 1716 441 
Q 2309 441 2620 675 
Q 2931 909 2931 1356 
Q 2931 1769 2642 2001 
Q 2353 2234 1838 2234 
L 1294 2234 
L 1294 2753 
L 1863 2753 
Q 2328 2753 2575 2939 
Q 2822 3125 2822 3475 
Q 2822 3834 2567 4026 
Q 2313 4219 1838 4219 
Q 1578 4219 1281 4162 
Q 984 4106 628 3988 
L 628 4550 
Q 988 4650 1302 4700 
Q 1616 4750 1894 4750 
Q 2613 4750 3031 4423 
Q 3450 4097 3450 3541 
Q 3450 3153 3228 2886 
Q 3006 2619 2597 2516 
z
" transform="scale(0.015625)"/>
       </defs>
       <use xlink:href="#DejaVuSans-33"/>
       <use xlink:href="#DejaVuSans-30" transform="translate(63.623047 0)"/>
      </g>
     </g>
    </g>
    <g id="text_8">
     <!-- Tempo (s) -->
     <g transform="translate(389.980312 346.316563) scale(0.1 -0.1)">
      <defs>
       <path id="DejaVuSans-54" d="M -19 4666 
L 3928 4666 
L 3928 4134 
L 2272 4134 
L 2272 0 
L 1638 0 
L 1638 4134 
L -19 4134 
L -19 4666 
z
" transform="scale(0.015625)"/>
       <path id="DejaVuSans-65" d="M 3597 1894 
L 3597 1613 
L 953 1613 
Q 991 1019 1311 708 
Q 1631 397 2203 397 
Q 2534 397 2845 478 
Q 3156 559 3463 722 
L 3463 178 
Q 3153 47 2828 -22 
Q 2503 -91 2169 -91 
Q 1331 -91 842 396 
Q 353 884 353 1716 
Q 353 2575 817 3079 
Q 1281 3584 2069 3584 
Q 2775 3584 3186 3129 
Q 3597 2675 3597 1894 
z
M 3022 2063 
Q 3016 2534 2758 2815 
Q 2500 3097 2075 3097 
Q 1594 3097 1305 2825 
Q 1016 2553 972 2059 
L 3022 2063 
z
" transform="scale(0.015625)"/>
       <path id="DejaVuSans-6d" d="M 3328 2828 
Q 3544 3216 3844 3400 
Q 4144 3584 4550 3584 
Q 5097 3584 5394 3201 
Q 5691 2819 5691 2113 
L 5691 0 
L 5113 0 
L 5113 2094 
Q 5113 2597 4934 2840 
Q 4756 3084 4391 3084 
Q 3944 3084 3684 2787 
Q 3425 2491 3425 1978 
L 3425 0 
L 2847 0 
L 2847 2094 
Q 2847 2600 2669 2842 
Q 2491 3084 2119 3084 
Q 1678 3084 1418 2786 
Q 1159 2488 1159 1978 
L 1159 0 
L 581 0 
L 581 3500 
L 1159 3500 
L 1159 2956 
Q 1356 3278 1631 3431 
Q 1906 3584 2284 3584 
Q 2666 3584 2933 3390 
Q 3200 3197 3328 2828 
z
" transform="scale(0.015625)"/>
       <path id="DejaVuSans-70" d="M 1159 525 
L 1159 -1331 
L 581 -1331 
L 581 3500 
L 1159 3500 
L 1159 2969 
Q 1341 3281 1617 3432 
Q 1894 3584 2278 3584 
Q 2916 3584 3314 3078 
Q 3713 2572 3713 1747 
Q 3713 922 3314 415 
Q 2916 -91 2278 -91 
Q 1894 -91 1617 61 
Q 1341 213 1159 525 
z
M 3116 1747 
Q 3116 2381 2855 2742 
Q 2594 3103 2138 3103 
Q 1681 3103 1420 2742 
Q 1159 2381 1159 1747 
Q 1159 1113 1420 752 
Q 1681 391 2138 391 
Q 2594 391 2855 752 
Q 3116 1113 3116 1747 
z
" transform="scale(0.015625)"/>
       <path id="DejaVuSans-6f" d="M 1959 3097 
Q 1497 3097 1228 2736 
Q 959 2375 959 1747 
Q 959 1119 1226 758 
Q 1494 397 1959 397 
Q 2419 397 2687 759 
Q 2956 1122 2956 1747 
Q 2956 2369 2687 2733 
Q 2419 3097 1959 3097 
z
M 1959 3584 
Q 2709 3584 3137 3096 
Q 3566 2609 3566 1747 
Q 3566 888 3137 398 
Q 2709 -91 1959 -91 
Q 1206 -91 779 398 
Q 353 888 353 1747 
Q 353 2609 779 3096 
Q 1206 3584 1959 3584 
z
" transform="scale(0.015625)"/>
       <path id="DejaVuSans-20" transform="scale(0.015625)"/>
       <path id="DejaVuSans-28" d="M 1984 4856 
Q 1566 4138 1362 3434 
Q 1159 2731 1159 2009 
Q 1159 1288 1364 580 
Q 1569 -128 1984 -844 
L 1484 -844 
Q 1016 -109 783 600 
Q 550 1309 550 2009 
Q 550 2706 781 3412 
Q 1013 4119 1484 4856 
L 1984 4856 
z
" transform="scale(0.015625)"/>
       <path id="DejaVuSans-73" d="M 2834 3397 
L 2834 2853 
Q 2591 2978 2328 3040 
Q 2066 3103 1784 3103 
Q 1356 3103 1142 2972 
Q 928 2841 928 2578 
Q 928 2378 1081 2264 
Q 1234 2150 1697 2047 
L 1894 2003 
Q 2506 1872 2764 1633 
Q 3022 1394 3022 966 
Q 3022 478 2636 193 
Q 2250 -91 1575 -91 
Q 1294 -91 989 -36 
Q 684 19 347 128 
L 347 722 
Q 666 556 975 473 
Q 1284 391 1588 391 
Q 1994 391 2212 530 
Q 2431 669 2431 922 
Q 2431 1156 2273 1281 
Q 2116 1406 1581 1522 
L 1381 1569 
Q 847 1681 609 1914 
Q 372 2147 372 2553 
Q 372 3047 722 3315 
Q 1072 3584 1716 3584 
Q 2034 3584 2315 3537 
Q 2597 3491 2834 3397 
z
" transform="scale(0.015625)"/>
       <path id="DejaVuSans-29" d="M 513 4856 
L 1013 4856 
Q 1481 4119 1714 3412 
Q 1947 2706 1947 2009 
Q 1947 1309 1714 600 
Q 1481 -109 1013 -844 
L 513 -844 
Q 928 -128 1133 580 
Q 1338 1288 1338 2009 
Q 1338 2731 1133 3434 
Q 928 4138 513 4856 
z
" transform="scale(0.015625)"/>
      </defs>
      <use xlink:href="#DejaVuSans-54"/>
      <use xlink:href="#DejaVuSans-65" transform="translate(44.083984 0)"/>
      <use xlink:href="#DejaVuSans-6d" transform="translate(105.607422 0)"/>
      <use xlink:href="#DejaVuSans-70" transform="translate(203.019531 0)"/>
      <use xlink:href="#DejaVuSans-6f" transform="translate(266.496094 0)"/>
      <use xlink:href="#DejaVuSans-20" transform="translate(327.677734 0)"/>
      <use xlink:href="#DejaVuSans-28" transform="translate(359.464844 0)"/>
      <use xlink:href="#DejaVuSans-73" transform="translate(398.478516 0)"/>
      <use xlink:href="#DejaVuSans-29" transform="translate(450.578125 0)"/>
     </g>
    </g>
   </g>
   <g id="matplotlib.axis_2">
    <g id="ytick_1">
     <g id="line2d_8">
      <defs>
       <path id="meb5c8d7f1a" d="M 0 0 
L -3.5 0 
" style="stroke: #000000; stroke-width: 0.8"/>
      </defs>
      <g>
       <use xlink:href="#meb5c8d7f1a" x="47.72" y="314.367996" style="stroke: #000000; stroke-width: 0.8"/>
      </g>
     </g>
     <g id="text_9">
      <!-- 0.0 -->
      <g transform="translate(24.816875 318.167215) scale(0.1 -0.1)">
       <defs>
        <path id="DejaVuSans-2e" d="M 684 794 
L 1344 794 
L 1344 0 
L 684 0 
L 684 794 
z
" transform="scale(0.015625)"/>
       </defs>
       <use xlink:href="#DejaVuSans-30"/>
       <use xlink:href="#DejaVuSans-2e" transform="translate(63.623047 0)"/>
       <use xlink:href="#DejaVuSans-30" transform="translate(95.410156 0)"/>
      </g>
     </g>
    </g>
    <g id="ytick_2">
     <g id="line2d_9">
      <g>
       <use xlink:href="#meb5c8d7f1a" x="47.72" y="276.49262" style="stroke: #000000; stroke-width: 0.8"/>
      </g>
     </g>
     <g id="text_10">
      <!-- 0.1 -->
      <g transform="translate(24.816875 280.291838) scale(0.1 -0.1)">
       <use xlink:href="#DejaVuSans-30"/>
       <use xlink:href="#DejaVuSans-2e" transform="translate(63.623047 0)"/>
       <use xlink:href="#DejaVuSans-31" transform="translate(95.410156 0)"/>
      </g>
     </g>
    </g>
    <g id="ytick_3">
     <g id="line2d_10">
      <g>
       <use xlink:href="#meb5c8d7f1a" x="47.72" y="238.617243" style="stroke: #000000; stroke-width: 0.8"/>
      </g>
     </g>
     <g id="text_11">
      <!-- 0.2 -->
      <g transform="translate(24.816875 242.416461) scale(0.1 -0.1)">
       <use xlink:href="#DejaVuSans-30"/>
       <use xlink:href="#DejaVuSans-2e" transform="translate(63.623047 0)"/>
       <use xlink:href="#DejaVuSans-32" transform="translate(95.410156 0)"/>
      </g>
     </g>
    </g>
    <g id="ytick_4">
     <g id="line2d_11">
      <g>
       <use xlink:href="#meb5c8d7f1a" x="47.72" y="200.741866" style="stroke: #000000; stroke-width: 0.8"/>
      </g>
     </g>
     <g id="text_12">
      <!-- 0.3 -->
      <g transform="translate(24.816875 204.541084) scale(0.1 -0.1)">
       <use xlink:href="#DejaVuSans-30"/>
       <use xlink:href="#DejaVuSans-2e" transform="translate(63.623047 0)"/>
       <use xlink:href="#DejaVuSans-33" transform="translate(95.410156 0)"/>
      </g>
     </g>
    </g>
    <g id="ytick_5">
     <g id="line2d_12">
      <g>
       <use xlink:href="#meb5c8d7f1a" x="47.72" y="162.866489" style="stroke: #000000; stroke-width: 0.8"/>
      </g>
     </g>
     <g id="text_13">
      <!-- 0.4 -->
      <g transform="translate(24.816875 166.665708) scale(0.1 -0.1)">
       <defs>
        <path id="DejaVuSans-34" d="M 2419 4116 
L 825 1625 
L 2419 1625 
L 2419 4116 
z
M 2253 4666 
L 3047 4666 
L 3047 1625 
L 3713 1625 
L 3713 1100 
L 3047 1100 
L 3047 0 
L 2419 0 
L 2419 1100 
L 313 1100 
L 313 1709 
L 2253 4666 
z
" transform="scale(0.015625)"/>
       </defs>
       <use xlink:href="#DejaVuSans-30"/>
       <use xlink:href="#DejaVuSans-2e" transform="translate(63.623047 0)"/>
       <use xlink:href="#DejaVuSans-34" transform="translate(95.410156 0)"/>
      </g>
     </g>
    </g>
    <g id="ytick_6">
     <g id="line2d_13">
      <g>
       <use xlink:href="#meb5c8d7f1a" x="47.72" y="124.991112" style="stroke: #000000; stroke-width: 0.8"/>
      </g>
     </g>
     <g id="text_14">
      <!-- 0.5 -->
      <g transform="translate(24.816875 128.790331) scale(0.1 -0.1)">
       <use xlink:href="#DejaVuSans-30"/>
       <use xlink:href="#DejaVuSans-2e" transform="translate(63.623047 0)"/>
       <use xlink:href="#DejaVuSans-35" transform="translate(95.410156 0)"/>
      </g>
     </g>
    </g>
    <g id="ytick_7">
     <g id="line2d_14">
      <g>
       <use xlink:href="#meb5c8d7f1a" x="47.72" y="87.115735" style="stroke: #000000; stroke-width: 0.8"/>
      </g>
     </g>
     <g id="text_15">
      <!-- 0.6 -->
      <g transform="translate(24.816875 90.914954) scale(0.1 -0.1)">
       <defs>
        <path id="DejaVuSans-36" d="M 2113 2584 
Q 1688 2584 1439 2293 
Q 1191 2003 1191 1497 
Q 1191 994 1439 701 
Q 1688 409 2113 409 
Q 2538 409 2786 701 
Q 3034 994 3034 1497 
Q 3034 2003 2786 2293 
Q 2538 2584 2113 2584 
z
M 3366 4563 
L 3366 3988 
Q 3128 4100 2886 4159 
Q 2644 4219 2406 4219 
Q 1781 4219 1451 3797 
Q 1122 3375 1075 2522 
Q 1259 2794 1537 2939 
Q 1816 3084 2150 3084 
Q 2853 3084 3261 2657 
Q 3669 2231 3669 1497 
Q 3669 778 3244 343 
Q 2819 -91 2113 -91 
Q 1303 -91 875 529 
Q 447 1150 447 2328 
Q 447 3434 972 4092 
Q 1497 4750 2381 4750 
Q 2619 4750 2861 4703 
Q 3103 4656 3366 4563 
z
" transform="scale(0.015625)"/>
       </defs>
       <use xlink:href="#DejaVuSans-30"/>
       <use xlink:href="#DejaVuSans-2e" transform="translate(63.623047 0)"/>
       <use xlink:href="#DejaVuSans-36" transform="translate(95.410156 0)"/>
      </g>
     </g>
    </g>
    <g id="ytick_8">
     <g id="line2d_15">
      <g>
       <use xlink:href="#meb5c8d7f1a" x="47.72" y="49.240358" style="stroke: #000000; stroke-width: 0.8"/>
      </g>
     </g>
     <g id="text_16">
      <!-- 0.7 -->
      <g transform="translate(24.816875 53.039577) scale(0.1 -0.1)">
       <defs>
        <path id="DejaVuSans-37" d="M 525 4666 
L 3525 4666 
L 3525 4397 
L 1831 0 
L 1172 0 
L 2766 4134 
L 525 4134 
L 525 4666 
z
" transform="scale(0.015625)"/>
       </defs>
       <use xlink:href="#DejaVuSans-30"/>
       <use xlink:href="#DejaVuSans-2e" transform="translate(63.623047 0)"/>
       <use xlink:href="#DejaVuSans-37" transform="translate(95.410156 0)"/>
      </g>
     </g>
    </g>
    <g id="text_17">
     <!-- Segnale BOLD (a.u.) -->
     <g transform="translate(18.737188 230.476906) rotate(-90) scale(0.1 -0.1)">
      <defs>
       <path id="DejaVuSans-53" d="M 3425 4513 
L 3425 3897 
Q 3066 4069 2747 4153 
Q 2428 4238 2131 4238 
Q 1616 4238 1336 4038 
Q 1056 3838 1056 3469 
Q 1056 3159 1242 3001 
Q 1428 2844 1947 2747 
L 2328 2669 
Q 3034 2534 3370 2195 
Q 3706 1856 3706 1288 
Q 3706 609 3251 259 
Q 2797 -91 1919 -91 
Q 1588 -91 1214 -16 
Q 841 59 441 206 
L 441 856 
Q 825 641 1194 531 
Q 1563 422 1919 422 
Q 2459 422 2753 634 
Q 3047 847 3047 1241 
Q 3047 1584 2836 1778 
Q 2625 1972 2144 2069 
L 1759 2144 
Q 1053 2284 737 2584 
Q 422 2884 422 3419 
Q 422 4038 858 4394 
Q 1294 4750 2059 4750 
Q 2388 4750 2728 4690 
Q 3069 4631 3425 4513 
z
" transform="scale(0.015625)"/>
       <path id="DejaVuSans-67" d="M 2906 1791 
Q 2906 2416 2648 2759 
Q 2391 3103 1925 3103 
Q 1463 3103 1205 2759 
Q 947 2416 947 1791 
Q 947 1169 1205 825 
Q 1463 481 1925 481 
Q 2391 481 2648 825 
Q 2906 1169 2906 1791 
z
M 3481 434 
Q 3481 -459 3084 -895 
Q 2688 -1331 1869 -1331 
Q 1566 -1331 1297 -1286 
Q 1028 -1241 775 -1147 
L 775 -588 
Q 1028 -725 1275 -790 
Q 1522 -856 1778 -856 
Q 2344 -856 2625 -561 
Q 2906 -266 2906 331 
L 2906 616 
Q 2728 306 2450 153 
Q 2172 0 1784 0 
Q 1141 0 747 490 
Q 353 981 353 1791 
Q 353 2603 747 3093 
Q 1141 3584 1784 3584 
Q 2172 3584 2450 3431 
Q 2728 3278 2906 2969 
L 2906 3500 
L 3481 3500 
L 3481 434 
z
" transform="scale(0.015625)"/>
       <path id="DejaVuSans-6e" d="M 3513 2113 
L 3513 0 
L 2938 0 
L 2938 2094 
Q 2938 2591 2744 2837 
Q 2550 3084 2163 3084 
Q 1697 3084 1428 2787 
Q 1159 2491 1159 1978 
L 1159 0 
L 581 0 
L 581 3500 
L 1159 3500 
L 1159 2956 
Q 1366 3272 1645 3428 
Q 1925 3584 2291 3584 
Q 2894 3584 3203 3211 
Q 3513 2838 3513 2113 
z
" transform="scale(0.015625)"/>
       <path id="DejaVuSans-61" d="M 2194 1759 
Q 1497 1759 1228 1600 
Q 959 1441 959 1056 
Q 959 750 1161 570 
Q 1363 391 1709 391 
Q 2188 391 2477 730 
Q 2766 1069 2766 1631 
L 2766 1759 
L 2194 1759 
z
M 3341 1997 
L 3341 0 
L 2766 0 
L 2766 531 
Q 2569 213 2275 61 
Q 1981 -91 1556 -91 
Q 1019 -91 701 211 
Q 384 513 384 1019 
Q 384 1609 779 1909 
Q 1175 2209 1959 2209 
L 2766 2209 
L 2766 2266 
Q 2766 2663 2505 2880 
Q 2244 3097 1772 3097 
Q 1472 3097 1187 3025 
Q 903 2953 641 2809 
L 641 3341 
Q 956 3463 1253 3523 
Q 1550 3584 1831 3584 
Q 2591 3584 2966 3190 
Q 3341 2797 3341 1997 
z
" transform="scale(0.015625)"/>
       <path id="DejaVuSans-6c" d="M 603 4863 
L 1178 4863 
L 1178 0 
L 603 0 
L 603 4863 
z
" transform="scale(0.015625)"/>
       <path id="DejaVuSans-42" d="M 1259 2228 
L 1259 519 
L 2272 519 
Q 2781 519 3026 730 
Q 3272 941 3272 1375 
Q 3272 1813 3026 2020 
Q 2781 2228 2272 2228 
L 1259 2228 
z
M 1259 4147 
L 1259 2741 
L 2194 2741 
Q 2656 2741 2882 2914 
Q 3109 3088 3109 3444 
Q 3109 3797 2882 3972 
Q 2656 4147 2194 4147 
L 1259 4147 
z
M 628 4666 
L 2241 4666 
Q 2963 4666 3353 4366 
Q 3744 4066 3744 3513 
Q 3744 3084 3544 2831 
Q 3344 2578 2956 2516 
Q 3422 2416 3680 2098 
Q 3938 1781 3938 1306 
Q 3938 681 3513 340 
Q 3088 0 2303 0 
L 628 0 
L 628 4666 
z
" transform="scale(0.015625)"/>
       <path id="DejaVuSans-4f" d="M 2522 4238 
Q 1834 4238 1429 3725 
Q 1025 3213 1025 2328 
Q 1025 1447 1429 934 
Q 1834 422 2522 422 
Q 3209 422 3611 934 
Q 4013 1447 4013 2328 
Q 4013 3213 3611 3725 
Q 3209 4238 2522 4238 
z
M 2522 4750 
Q 3503 4750 4090 4092 
Q 4678 3434 4678 2328 
Q 4678 1225 4090 567 
Q 3503 -91 2522 -91 
Q 1538 -91 948 565 
Q 359 1222 359 2328 
Q 359 3434 948 4092 
Q 1538 4750 2522 4750 
z
" transform="scale(0.015625)"/>
       <path id="DejaVuSans-4c" d="M 628 4666 
L 1259 4666 
L 1259 531 
L 3531 531 
L 3531 0 
L 628 0 
L 628 4666 
z
" transform="scale(0.015625)"/>
       <path id="DejaVuSans-44" d="M 1259 4147 
L 1259 519 
L 2022 519 
Q 2988 519 3436 956 
Q 3884 1394 3884 2338 
Q 3884 3275 3436 3711 
Q 2988 4147 2022 4147 
L 1259 4147 
z
M 628 4666 
L 1925 4666 
Q 3281 4666 3915 4102 
Q 4550 3538 4550 2338 
Q 4550 1131 3912 565 
Q 3275 0 1925 0 
L 628 0 
L 628 4666 
z
" transform="scale(0.015625)"/>
       <path id="DejaVuSans-75" d="M 544 1381 
L 544 3500 
L 1119 3500 
L 1119 1403 
Q 1119 906 1312 657 
Q 1506 409 1894 409 
Q 2359 409 2629 706 
Q 2900 1003 2900 1516 
L 2900 3500 
L 3475 3500 
L 3475 0 
L 2900 0 
L 2900 538 
Q 2691 219 2414 64 
Q 2138 -91 1772 -91 
Q 1169 -91 856 284 
Q 544 659 544 1381 
z
M 1991 3584 
L 1991 3584 
z
" transform="scale(0.015625)"/>
      </defs>
      <use xlink:href="#DejaVuSans-53"/>
      <use xlink:href="#DejaVuSans-65" transform="translate(63.476562 0)"/>
      <use xlink:href="#DejaVuSans-67" transform="translate(125 0)"/>
      <use xlink:href="#DejaVuSans-6e" transform="translate(188.476562 0)"/>
      <use xlink:href="#DejaVuSans-61" transform="translate(251.855469 0)"/>
      <use xlink:href="#DejaVuSans-6c" transform="translate(313.134766 0)"/>
      <use xlink:href="#DejaVuSans-65" transform="translate(340.917969 0)"/>
      <use xlink:href="#DejaVuSans-20" transform="translate(402.441406 0)"/>
      <use xlink:href="#DejaVuSans-42" transform="translate(434.228516 0)"/>
      <use xlink:href="#DejaVuSans-4f" transform="translate(501.082031 0)"/>
      <use xlink:href="#DejaVuSans-4c" transform="translate(579.792969 0)"/>
      <use xlink:href="#DejaVuSans-44" transform="translate(635.505859 0)"/>
      <use xlink:href="#DejaVuSans-20" transform="translate(712.507812 0)"/>
      <use xlink:href="#DejaVuSans-28" transform="translate(744.294922 0)"/>
      <use xlink:href="#DejaVuSans-61" transform="translate(783.308594 0)"/>
      <use xlink:href="#DejaVuSans-2e" transform="translate(844.587891 0)"/>
      <use xlink:href="#DejaVuSans-75" transform="translate(876.375 0)"/>
      <use xlink:href="#DejaVuSans-2e" transform="translate(939.753906 0)"/>
      <use xlink:href="#DejaVuSans-29" transform="translate(971.541016 0)"/>
     </g>
    </g>
   </g>
   <g id="line2d_16">
    <path d="M 81.06 191.734957 
L 83.2901 154.378027 
L 85.520201 145.465616 
L 87.750301 209.874348 
L 89.980401 178.195192 
L 92.210502 190.747306 
L 94.440602 174.932529 
L 98.900803 195.217872 
L 101.130903 168.886478 
L 103.361003 162.780933 
L 105.591104 151.855116 
L 107.821204 199.426832 
L 110.051304 217.372742 
L 112.281405 210.973339 
L 114.511505 226.719827 
L 118.971706 191.044626 
L 121.201806 201.340033 
L 123.431906 175.908465 
L 125.662007 186.423176 
L 127.892107 156.384009 
L 130.122207 208.252183 
L 132.352308 175.589513 
L 134.582408 230.185168 
L 136.812508 165.717052 
L 139.042609 181.494618 
L 141.272709 189.899758 
L 143.502809 163.464366 
L 145.73291 181.458091 
L 147.96301 191.314526 
L 150.19311 192.130163 
L 152.423211 177.886278 
L 154.653311 208.585819 
L 156.883411 189.066882 
L 159.113512 179.061887 
L 161.343612 179.45254 
L 163.573712 135.277035 
L 165.803813 153.433354 
L 168.033913 252.176014 
L 170.264013 228.562145 
L 172.494114 208.152544 
L 174.724214 176.289877 
L 176.954314 139.86156 
L 179.184415 142.096564 
L 181.414515 206.32032 
L 183.644615 171.657955 
L 185.874716 223.717705 
L 188.104816 116.672068 
L 190.334916 207.225095 
L 192.565017 170.65802 
L 194.795117 233.13767 
L 197.025217 219.372827 
L 199.255318 172.302234 
L 201.485418 171.255065 
L 203.715518 151.183095 
L 205.945619 197.802593 
L 208.175719 180.032794 
L 210.405819 164.851411 
L 212.63592 190.997575 
L 214.86602 143.231972 
L 217.09612 135.045678 
L 219.326221 135.767975 
L 221.556321 196.201413 
L 223.786421 142.970961 
L 228.246622 201.806643 
L 230.476722 195.150373 
L 232.706823 170.64945 
L 234.936923 132.236525 
L 237.167023 202.263512 
L 239.397124 201.075373 
L 241.627224 223.934851 
L 243.857324 203.244382 
L 246.087425 192.426079 
L 248.317525 194.411611 
L 250.547625 168.119104 
L 252.777726 183.755795 
L 255.007826 166.404082 
L 257.237926 199.381649 
L 259.468027 188.496543 
L 261.698127 190.834464 
L 263.928227 227.164433 
L 266.158328 198.916444 
L 268.388428 165.382422 
L 270.618528 212.50929 
L 272.848629 216.381653 
L 275.078729 134.434482 
L 277.308829 214.678086 
L 279.53893 190.777563 
L 281.76903 165.355864 
L 283.99913 199.582099 
L 286.229231 216.79279 
L 288.459331 183.390591 
L 292.919532 135.638344 
L 295.149632 172.392658 
L 297.379732 155.144903 
L 299.609833 208.566276 
L 301.839933 125.904379 
L 304.070033 191.582685 
L 306.300134 218.199531 
L 308.530234 179.549711 
L 310.760334 224.393475 
L 312.990435 223.553358 
L 315.220535 188.270226 
L 317.450635 135.000026 
L 319.680736 178.760595 
L 321.910836 180.347731 
L 324.140936 192.339967 
L 326.371037 168.138553 
L 328.601137 220.47901 
L 330.831237 219.545537 
L 335.291438 144.888086 
L 337.521538 199.549647 
L 339.751639 174.428176 
L 341.981739 151.474291 
L 344.211839 195.976834 
L 346.44194 190.692932 
L 348.67204 191.014959 
L 350.90214 189.090251 
L 353.132241 206.880306 
L 355.362341 152.652756 
L 357.592441 160.14869 
L 359.822542 158.897616 
L 362.052642 154.83184 
L 364.282742 189.802247 
L 366.512843 199.560077 
L 368.742943 177.909304 
L 370.973043 207.052967 
L 373.203144 145.587169 
L 375.433244 199.500135 
L 377.663344 109.76466 
L 379.893445 138.187541 
L 382.123545 204.360238 
L 384.353645 110.489737 
L 386.583746 227.958714 
L 388.813846 214.701809 
L 391.043946 217.300188 
L 393.274047 190.308224 
L 395.504147 189.255159 
L 397.734247 163.685214 
L 399.964348 167.211776 
L 402.194448 184.465947 
L 404.424548 156.760368 
L 406.654649 203.945819 
L 408.884749 188.370863 
L 411.114849 197.445105 
L 413.34495 168.675928 
L 415.57505 174.266826 
L 417.805151 199.837125 
L 420.035251 176.59471 
L 422.265351 205.885677 
L 424.495452 203.339189 
L 426.725552 243.760459 
L 428.955652 204.153691 
L 431.185753 155.213446 
L 433.415853 196.19654 
L 435.645953 173.088509 
L 437.876054 215.386742 
L 440.106154 201.942424 
L 442.336254 233.1999 
L 444.566355 219.022397 
L 446.796455 180.068885 
L 449.026555 193.146964 
L 451.256656 224.671503 
L 453.486756 196.205706 
L 455.716856 201.175621 
L 457.946957 167.703555 
L 460.177057 170.439414 
L 462.407157 206.106807 
L 464.637258 210.299363 
L 466.867358 180.683052 
L 469.097458 206.736957 
L 471.327559 195.415388 
L 473.557659 181.057432 
L 475.787759 230.341802 
L 478.01786 175.02929 
L 480.24796 186.620388 
L 482.47806 194.398121 
L 484.708161 181.815541 
L 486.938261 207.123274 
L 489.168361 193.054557 
L 491.398462 174.369346 
L 493.628562 163.412512 
L 495.858662 168.54867 
L 498.088763 214.93665 
L 500.318863 215.096164 
L 502.548963 148.258377 
L 504.779064 214.717749 
L 507.009164 178.954574 
L 509.239264 226.417998 
L 511.469365 187.346356 
L 513.699465 212.144459 
L 515.929565 210.35801 
L 518.159666 182.689123 
L 520.389766 199.535 
L 522.619866 172.299199 
L 524.849967 248.168603 
L 527.080067 163.612541 
L 529.310167 161.853698 
L 531.540268 192.796989 
L 533.770368 218.5407 
L 536.000468 145.47379 
L 538.230569 198.581904 
L 540.460669 203.898332 
L 542.690769 207.533348 
L 544.92087 151.804811 
L 547.15097 228.619767 
L 549.38107 133.178013 
L 551.611171 121.647459 
L 553.841271 150.999585 
L 556.071371 185.750277 
L 558.301472 217.510489 
L 560.531572 207.536942 
L 562.761672 150.44445 
L 564.991773 147.298129 
L 567.221873 258.930382 
L 569.451973 185.3574 
L 571.682074 191.549445 
L 573.912174 236.362375 
L 576.142274 238.344931 
L 578.372375 195.289292 
L 580.602475 159.841015 
L 582.832575 217.430846 
L 585.062676 215.2831 
L 587.292776 150.933687 
L 589.522876 161.039072 
L 591.752977 200.474445 
L 593.983077 176.537391 
L 596.213177 208.183671 
L 598.443278 184.899838 
L 600.673378 223.392487 
L 602.903478 180.126281 
L 605.133579 170.72679 
L 607.363679 163.390241 
L 609.593779 201.380351 
L 611.82388 209.60877 
L 614.05398 216.07991 
L 616.28408 209.577251 
L 618.514181 174.645303 
L 620.744281 162.545158 
L 622.974381 194.988872 
L 625.204482 201.769607 
L 627.434582 210.481718 
L 629.664682 147.574621 
L 631.894783 166.688877 
L 634.124883 226.094676 
L 636.354983 191.177339 
L 638.585084 188.831597 
L 640.815184 216.256624 
L 643.045284 161.358695 
L 645.275385 199.745204 
L 647.505485 177.170759 
L 649.735585 180.854463 
L 651.965686 205.997553 
L 654.195786 213.64552 
L 656.425886 185.058933 
L 658.655987 214.317147 
L 660.886087 128.979057 
L 663.116187 235.359684 
L 665.346288 160.786258 
L 667.576388 169.319467 
L 669.806488 189.682695 
L 672.036589 163.414404 
L 674.266689 177.90228 
L 676.496789 205.757056 
L 678.72689 219.973188 
L 680.95699 112.774827 
L 683.18709 212.007002 
L 685.417191 183.471717 
L 687.647291 184.793263 
L 689.877391 171.83079 
L 692.107492 192.740243 
L 694.337592 201.773473 
L 696.567692 154.764637 
L 698.797793 162.145536 
L 701.027893 175.339499 
L 703.257993 213.134119 
L 705.488094 147.69274 
L 707.718194 200.485375 
L 709.948294 208.814616 
L 712.178395 215.548363 
L 714.408495 250.095838 
L 716.638595 171.503155 
L 718.868696 159.847633 
L 721.098796 150.763215 
L 723.328896 186.90955 
L 725.558997 127.018451 
L 727.789097 201.13235 
L 730.019197 172.003246 
L 732.249298 158.197277 
L 734.479398 249.205833 
L 736.709498 159.425115 
L 738.939599 188.9501 
L 741.169699 170.068343 
L 743.399799 180.676101 
L 745.6299 142.421932 
L 747.86 160.143211 
L 747.86 160.143211 
" clip-path="url(#p1db91c2029)" style="fill: none; stroke: #b22222; stroke-width: 1.5; stroke-linecap: square"/>
   </g>
   <g id="line2d_17">
    <path d="M 81.06 172.779175 
L 83.2901 221.738099 
L 85.520201 215.80457 
L 87.750301 262.637786 
L 89.980401 199.187401 
L 92.210502 203.326363 
L 94.440602 203.58663 
L 96.670702 256.719675 
L 98.900803 198.34429 
L 101.130903 245.032795 
L 103.361003 220.777395 
L 105.591104 157.52197 
L 107.821204 205.683546 
L 110.051304 187.942976 
L 112.281405 258.115684 
L 114.511505 242.201364 
L 116.741605 180.648122 
L 118.971706 210.742654 
L 121.201806 234.181206 
L 123.431906 241.008098 
L 125.662007 209.377086 
L 127.892107 213.929679 
L 130.122207 223.188744 
L 132.352308 220.712941 
L 134.582408 240.229554 
L 136.812508 183.378874 
L 139.042609 245.544753 
L 141.272709 264.490273 
L 143.502809 214.01566 
L 145.73291 181.509603 
L 147.96301 229.138802 
L 150.19311 246.277074 
L 152.423211 245.705353 
L 154.653311 178.283934 
L 156.883411 228.801752 
L 159.113512 250.731015 
L 161.343612 255.947986 
L 163.573712 243.175657 
L 165.803813 175.458596 
L 168.033913 215.019333 
L 170.264013 196.990324 
L 172.494114 235.158497 
L 174.724214 239.540421 
L 176.954314 251.382631 
L 179.184415 206.869906 
L 181.414515 242.951744 
L 183.644615 225.370326 
L 185.874716 238.22568 
L 188.104816 239.329832 
L 190.334916 195.987852 
L 192.565017 184.117642 
L 194.795117 227.610055 
L 197.025217 203.90692 
L 199.255318 184.181833 
L 201.485418 216.79166 
L 203.715518 241.166053 
L 205.945619 187.540926 
L 208.175719 195.075655 
L 210.405819 238.509293 
L 212.63592 226.345496 
L 214.86602 165.417895 
L 217.09612 254.3226 
L 219.326221 216.495352 
L 221.556321 196.946893 
L 223.786421 186.897919 
L 226.016522 238.080774 
L 228.246622 217.170257 
L 230.476722 210.137729 
L 232.706823 190.527376 
L 234.936923 250.050694 
L 237.167023 218.690419 
L 239.397124 242.245476 
L 241.627224 183.990377 
L 243.857324 210.35288 
L 246.087425 229.759921 
L 248.317525 182.720043 
L 250.547625 249.290027 
L 252.777726 243.818562 
L 255.007826 224.454859 
L 257.237926 212.073204 
L 259.468027 215.096892 
L 261.698127 221.005494 
L 263.928227 235.972161 
L 266.158328 226.329182 
L 268.388428 224.254303 
L 270.618528 225.839077 
L 272.848629 225.140093 
L 275.078729 219.705531 
L 277.308829 208.935581 
L 279.53893 236.822897 
L 281.76903 268.243133 
L 283.99913 230.681787 
L 286.229231 215.78619 
L 288.459331 230.448938 
L 290.689431 200.273872 
L 292.919532 212.861049 
L 295.149632 256.659654 
L 297.379732 245.128006 
L 299.609833 249.088277 
L 301.839933 214.184858 
L 304.070033 175.690667 
L 306.300134 190.156817 
L 308.530234 228.618262 
L 310.760334 224.749833 
L 312.990435 219.513654 
L 315.220535 146.557043 
L 317.450635 171.951838 
L 319.680736 264.720408 
L 321.910836 207.849376 
L 324.140936 206.856464 
L 326.371037 180.011846 
L 328.601137 231.747145 
L 330.831237 204.076255 
L 333.061338 212.117253 
L 335.291438 192.276335 
L 337.521538 254.187429 
L 339.751639 202.541065 
L 341.981739 223.005711 
L 344.211839 216.541026 
L 346.44194 142.165228 
L 348.67204 254.115975 
L 350.90214 217.521079 
L 353.132241 244.357856 
L 355.362341 221.299757 
L 357.592441 231.388309 
L 359.822542 210.695893 
L 362.052642 201.686021 
L 364.282742 206.342331 
L 366.512843 188.021245 
L 368.742943 247.754635 
L 370.973043 197.037205 
L 373.203144 176.320168 
L 375.433244 215.329277 
L 377.663344 197.81344 
L 379.893445 222.998347 
L 382.123545 233.955244 
L 384.353645 225.371469 
L 386.583746 250.217469 
L 388.813846 282.059788 
L 391.043946 212.380085 
L 393.274047 195.976353 
L 395.504147 207.206197 
L 397.734247 226.535103 
L 399.964348 244.564868 
L 402.194448 231.847131 
L 404.424548 224.322469 
L 406.654649 206.288053 
L 408.884749 252.981212 
L 411.114849 292.766701 
L 413.34495 233.986536 
L 415.57505 139.532345 
L 417.805151 208.695633 
L 420.035251 242.681209 
L 422.265351 280.294686 
L 424.495452 203.057473 
L 426.725552 206.331343 
L 428.955652 223.008228 
L 431.185753 184.557763 
L 433.415853 231.547094 
L 435.645953 208.944269 
L 437.876054 218.34426 
L 440.106154 246.702095 
L 442.336254 215.953185 
L 444.566355 235.252251 
L 446.796455 217.730434 
L 449.026555 206.584974 
L 451.256656 206.582004 
L 453.486756 223.133291 
L 455.716856 216.699154 
L 457.946957 189.333938 
L 460.177057 263.602572 
L 462.407157 260.488211 
L 464.637258 219.754879 
L 466.867358 207.321715 
L 469.097458 234.381666 
L 471.327559 202.234077 
L 473.557659 202.396149 
L 475.787759 186.337871 
L 478.01786 207.989756 
L 480.24796 265.303461 
L 482.47806 192.822649 
L 484.708161 249.569247 
L 486.938261 208.49475 
L 489.168361 234.071757 
L 491.398462 248.813941 
L 493.628562 197.98899 
L 495.858662 216.537244 
L 498.088763 186.347369 
L 500.318863 256.953732 
L 502.548963 217.580941 
L 504.779064 200.760792 
L 507.009164 243.54689 
L 509.239264 242.144854 
L 511.469365 259.606907 
L 513.699465 223.678276 
L 515.929565 231.624948 
L 518.159666 192.383712 
L 520.389766 216.963075 
L 522.619866 229.413046 
L 524.849967 212.594458 
L 527.080067 211.507872 
L 529.310167 251.839285 
L 531.540268 198.764654 
L 533.770368 221.785955 
L 536.000468 246.686265 
L 538.230569 253.776952 
L 540.460669 215.170905 
L 542.690769 245.618161 
L 544.92087 182.854603 
L 547.15097 218.097715 
L 549.38107 237.799163 
L 551.611171 192.425653 
L 553.841271 233.081097 
L 556.071371 248.421719 
L 558.301472 253.131463 
L 560.531572 187.356995 
L 562.761672 191.416824 
L 564.991773 210.361419 
L 567.221873 176.909867 
L 569.451973 280.522611 
L 571.682074 223.612693 
L 573.912174 213.534319 
L 576.142274 238.282809 
L 578.372375 198.978527 
L 580.602475 242.605885 
L 582.832575 190.543908 
L 585.062676 229.487347 
L 587.292776 225.514349 
L 589.522876 202.425699 
L 591.752977 234.035962 
L 593.983077 186.368146 
L 596.213177 236.764579 
L 598.443278 232.853852 
L 600.673378 202.151854 
L 602.903478 224.71702 
L 605.133579 236.422157 
L 607.363679 211.019943 
L 609.593779 195.843222 
L 611.82388 210.612334 
L 614.05398 207.059175 
L 616.28408 214.354766 
L 618.514181 225.171484 
L 620.744281 265.5363 
L 622.974381 247.212648 
L 625.204482 249.596322 
L 627.434582 196.632117 
L 629.664682 248.696173 
L 631.894783 237.112203 
L 634.124883 193.401388 
L 636.354983 231.367438 
L 638.585084 211.301716 
L 640.815184 265.039911 
L 643.045284 197.465116 
L 645.275385 223.519971 
L 647.505485 244.183518 
L 649.735585 228.687406 
L 651.965686 226.541493 
L 654.195786 188.398736 
L 658.655987 217.375056 
L 660.886087 238.185125 
L 663.116187 230.635977 
L 665.346288 220.603213 
L 667.576388 185.598584 
L 669.806488 215.618584 
L 672.036589 235.931573 
L 674.266689 167.454621 
L 676.496789 206.18037 
L 678.72689 216.553312 
L 680.95699 231.698698 
L 683.18709 229.861847 
L 685.417191 225.73018 
L 687.647291 232.639271 
L 689.877391 239.048552 
L 692.107492 236.29278 
L 694.337592 250.199628 
L 696.567692 250.796952 
L 698.797793 226.86217 
L 701.027893 201.074216 
L 703.257993 221.750522 
L 705.488094 263.763634 
L 707.718194 244.321673 
L 709.948294 188.603551 
L 712.178395 241.264136 
L 714.408495 243.266231 
L 716.638595 241.744618 
L 718.868696 217.293068 
L 721.098796 175.635134 
L 723.328896 194.391108 
L 725.558997 200.944775 
L 727.789097 173.814389 
L 730.019197 228.044601 
L 732.249298 256.516488 
L 734.479398 229.652371 
L 736.709498 207.677595 
L 738.939599 250.999082 
L 741.169699 259.263602 
L 743.399799 227.540453 
L 745.6299 221.181176 
L 747.86 243.241793 
L 747.86 243.241793 
" clip-path="url(#p1db91c2029)" style="fill: none; stroke: #000080; stroke-width: 1.5; stroke-linecap: square"/>
   </g>
   <g id="line2d_18">
    <path d="M 81.06 261.714088 
L 83.2901 259.933062 
L 85.520201 282.235998 
L 87.750301 203.563434 
L 89.980401 229.014367 
L 92.210502 259.781868 
L 94.440602 243.419185 
L 96.670702 259.574147 
L 98.900803 241.63792 
L 101.130903 245.040783 
L 103.361003 226.576644 
L 105.591104 255.707758 
L 107.821204 269.04407 
L 110.051304 218.259626 
L 112.281405 251.040897 
L 114.511505 192.447972 
L 116.741605 242.76054 
L 118.971706 257.835841 
L 121.201806 226.061196 
L 123.431906 236.790488 
L 125.662007 261.967759 
L 127.892107 230.766757 
L 130.122207 244.757681 
L 132.352308 233.823898 
L 134.582408 254.795844 
L 136.812508 251.199144 
L 139.042609 208.165454 
L 141.272709 220.079943 
L 143.502809 254.086235 
L 145.73291 260.261569 
L 147.96301 248.522225 
L 150.19311 260.361623 
L 152.423211 255.606528 
L 154.653311 214.434589 
L 156.883411 218.397094 
L 159.113512 250.865362 
L 161.343612 266.524 
L 163.573712 260.300261 
L 165.803813 230.308761 
L 168.033913 249.817707 
L 170.264013 228.518296 
L 172.494114 254.193788 
L 174.724214 267.386988 
L 176.954314 232.989225 
L 179.184415 212.163325 
L 181.414515 241.957519 
L 183.644615 246.721926 
L 185.874716 275.200692 
L 188.104816 236.317419 
L 190.334916 234.430329 
L 192.565017 234.910489 
L 194.795117 246.740763 
L 197.025217 235.526635 
L 199.255318 218.162863 
L 201.485418 249.96966 
L 203.715518 239.339078 
L 205.945619 244.488718 
L 208.175719 221.78728 
L 210.405819 225.24531 
L 212.63592 253.580511 
L 214.86602 221.219057 
L 217.09612 233.417915 
L 219.326221 236.121462 
L 221.556321 242.334556 
L 223.786421 224.630253 
L 226.016522 241.897421 
L 228.246622 239.129756 
L 230.476722 239.307705 
L 232.706823 235.388501 
L 234.936923 228.819806 
L 237.167023 233.79884 
L 239.397124 213.90954 
L 241.627224 205.531514 
L 243.857324 219.386827 
L 246.087425 204.344118 
L 248.317525 243.196212 
L 250.547625 240.002928 
L 252.777726 260.558049 
L 255.007826 279.535289 
L 257.237926 246.680482 
L 259.468027 246.142297 
L 261.698127 215.028494 
L 263.928227 212.876421 
L 266.158328 241.875545 
L 268.388428 233.542904 
L 270.618528 264.632386 
L 272.848629 254.814244 
L 275.078729 237.553629 
L 277.308829 262.981242 
L 279.53893 237.822886 
L 281.76903 223.78132 
L 283.99913 211.746839 
L 286.229231 245.953685 
L 288.459331 272.944023 
L 290.689431 279.167395 
L 292.919532 244.052234 
L 295.149632 225.619635 
L 297.379732 247.198679 
L 299.609833 242.844428 
L 301.839933 241.232997 
L 304.070033 271.903522 
L 306.300134 260.545492 
L 308.530234 258.689229 
L 310.760334 263.021381 
L 312.990435 240.82507 
L 315.220535 257.248319 
L 317.450635 210.955873 
L 319.680736 251.436679 
L 321.910836 254.951845 
L 324.140936 234.685821 
L 326.371037 265.803211 
L 328.601137 260.915859 
L 330.831237 227.009774 
L 333.061338 213.227374 
L 335.291438 253.373221 
L 337.521538 233.912317 
L 339.751639 257.670156 
L 341.981739 239.060791 
L 344.211839 242.888393 
L 346.44194 266.425188 
L 348.67204 272.521734 
L 350.90214 253.758758 
L 353.132241 237.184064 
L 355.362341 234.092036 
L 357.592441 233.783445 
L 359.822542 227.842701 
L 362.052642 239.137273 
L 364.282742 267.836121 
L 366.512843 228.434404 
L 368.742943 272.699146 
L 370.973043 259.69483 
L 373.203144 243.65899 
L 375.433244 250.810973 
L 377.663344 218.418508 
L 379.893445 258.956324 
L 382.123545 237.40536 
L 384.353645 243.285665 
L 386.583746 230.9955 
L 388.813846 222.289196 
L 391.043946 249.435738 
L 393.274047 215.277081 
L 395.504147 239.861832 
L 397.734247 256.822744 
L 399.964348 247.309714 
L 404.424548 245.069094 
L 406.654649 233.812167 
L 408.884749 250.652592 
L 411.114849 265.598371 
L 413.34495 227.887453 
L 415.57505 220.232133 
L 417.805151 211.448846 
L 420.035251 243.101869 
L 422.265351 262.071583 
L 424.495452 234.011347 
L 426.725552 224.872694 
L 428.955652 245.652679 
L 431.185753 222.007218 
L 433.415853 230.128812 
L 435.645953 233.232132 
L 440.106154 256.146342 
L 442.336254 251.953203 
L 444.566355 215.411782 
L 446.796455 229.525081 
L 449.026555 246.290171 
L 451.256656 253.700358 
L 453.486756 221.15565 
L 455.716856 248.383854 
L 457.946957 230.121366 
L 460.177057 230.040476 
L 462.407157 235.291326 
L 464.637258 267.797933 
L 466.867358 280.174035 
L 469.097458 251.836435 
L 471.327559 241.852414 
L 473.557659 271.440123 
L 475.787759 201.305336 
L 478.01786 273.579881 
L 480.24796 251.402034 
L 482.47806 262.166358 
L 484.708161 268.414835 
L 486.938261 235.015475 
L 489.168361 224.418597 
L 491.398462 198.630118 
L 495.858662 258.432459 
L 498.088763 271.19204 
L 500.318863 253.057113 
L 502.548963 260.058491 
L 504.779064 241.981929 
L 507.009164 237.074512 
L 509.239264 245.242638 
L 511.469365 215.447203 
L 513.699465 273.726799 
L 515.929565 227.826821 
L 518.159666 257.011168 
L 520.389766 227.188182 
L 522.619866 242.415093 
L 524.849967 305.486182 
L 527.080067 272.481738 
L 529.310167 253.878171 
L 531.540268 219.927072 
L 533.770368 262.458189 
L 536.000468 240.635962 
L 538.230569 272.472572 
L 540.460669 258.177779 
L 542.690769 253.412563 
L 544.92087 246.923702 
L 547.15097 256.886464 
L 549.38107 252.646898 
L 551.611171 243.104314 
L 553.841271 278.251701 
L 556.071371 210.386098 
L 558.301472 257.355277 
L 560.531572 217.92124 
L 562.761672 255.321007 
L 564.991773 211.16857 
L 567.221873 261.849348 
L 569.451973 231.272191 
L 571.682074 208.505965 
L 573.912174 235.597903 
L 576.142274 247.807479 
L 578.372375 260.705957 
L 580.602475 237.570981 
L 582.832575 255.107935 
L 585.062676 219.067831 
L 587.292776 278.792633 
L 589.522876 228.269913 
L 591.752977 236.66763 
L 593.983077 253.178094 
L 596.213177 238.345071 
L 598.443278 275.590252 
L 600.673378 263.670866 
L 602.903478 233.190519 
L 605.133579 244.898226 
L 607.363679 254.929367 
L 609.593779 233.950311 
L 611.82388 234.068515 
L 614.05398 238.661147 
L 616.28408 235.567491 
L 618.514181 192.369209 
L 620.744281 199.528056 
L 622.974381 196.49738 
L 625.204482 241.880084 
L 627.434582 246.971463 
L 629.664682 221.672898 
L 631.894783 238.422875 
L 634.124883 230.902459 
L 636.354983 262.024705 
L 638.585084 227.80198 
L 640.815184 253.733303 
L 643.045284 227.317052 
L 645.275385 265.379485 
L 647.505485 252.888054 
L 649.735585 249.457115 
L 651.965686 264.836552 
L 654.195786 195.567915 
L 656.425886 248.047227 
L 658.655987 272.568008 
L 660.886087 250.422448 
L 663.116187 283.493487 
L 665.346288 258.451998 
L 667.576388 247.118361 
L 669.806488 280.886122 
L 672.036589 248.010972 
L 674.266689 190.155906 
L 676.496789 257.563455 
L 678.72689 264.984847 
L 680.95699 238.076424 
L 683.18709 248.974576 
L 685.417191 228.355833 
L 687.647291 241.082416 
L 689.877391 234.960453 
L 692.107492 245.668839 
L 694.337592 257.134238 
L 696.567692 230.407034 
L 698.797793 251.98189 
L 701.027893 223.889455 
L 703.257993 220.462821 
L 705.488094 238.596081 
L 707.718194 249.107685 
L 709.948294 244.374581 
L 712.178395 233.936485 
L 714.408495 259.38991 
L 716.638595 248.441226 
L 718.868696 243.414609 
L 721.098796 235.196228 
L 723.328896 236.664261 
L 725.558997 242.963381 
L 727.789097 270.533243 
L 730.019197 237.478242 
L 732.249298 266.851494 
L 734.479398 245.426345 
L 736.709498 281.621856 
L 738.939599 228.816384 
L 741.169699 246.125566 
L 743.399799 253.710537 
L 745.6299 257.954135 
L 747.86 239.164642 
L 747.86 239.164642 
" clip-path="url(#p1db91c2029)" style="fill: none; stroke: #008000; stroke-width: 1.5; stroke-linecap: square"/>
   </g>
   <g id="line2d_19">
    <path d="M 81.06 269.143984 
L 83.2901 224.471883 
L 85.520201 213.037994 
L 87.750301 217.1991 
L 89.980401 269.807369 
L 92.210502 212.971911 
L 94.440602 211.020314 
L 96.670702 265.083785 
L 98.900803 222.381048 
L 101.130903 241.260269 
L 103.361003 215.59774 
L 105.591104 211.952691 
L 107.821204 212.456465 
L 110.051304 209.707449 
L 112.281405 236.566443 
L 114.511505 233.014085 
L 116.741605 237.043832 
L 118.971706 231.85409 
L 121.201806 242.068871 
L 123.431906 242.427127 
L 125.662007 226.272752 
L 127.892107 258.638835 
L 130.122207 233.722 
L 132.352308 266.119598 
L 134.582408 233.822373 
L 136.812508 233.511305 
L 139.042609 212.813515 
L 141.272709 202.007181 
L 143.502809 196.484604 
L 145.73291 236.158642 
L 147.96301 232.368733 
L 150.19311 204.885117 
L 152.423211 210.137515 
L 154.653311 197.508481 
L 156.883411 234.489022 
L 159.113512 241.883243 
L 161.343612 258.35283 
L 163.573712 216.220737 
L 165.803813 196.718079 
L 168.033913 224.128907 
L 170.264013 204.612987 
L 172.494114 227.2636 
L 174.724214 237.384246 
L 176.954314 233.485041 
L 179.184415 234.853515 
L 181.414515 229.714518 
L 183.644615 203.930998 
L 185.874716 209.890983 
L 188.104816 206.314237 
L 190.334916 219.774927 
L 192.565017 252.967263 
L 194.795117 197.819926 
L 197.025217 209.402561 
L 199.255318 235.944986 
L 201.485418 252.100928 
L 203.715518 250.60079 
L 205.945619 233.133459 
L 208.175719 182.277967 
L 210.405819 244.780039 
L 212.63592 255.386634 
L 214.86602 202.951668 
L 217.09612 248.634328 
L 219.326221 224.170747 
L 221.556321 218.428364 
L 226.016522 230.654636 
L 228.246622 243.892699 
L 230.476722 224.325137 
L 232.706823 206.458662 
L 234.936923 219.104997 
L 237.167023 207.24629 
L 239.397124 234.954796 
L 241.627224 246.001432 
L 243.857324 220.631087 
L 246.087425 226.432065 
L 248.317525 234.520517 
L 250.547625 249.991499 
L 252.777726 211.058575 
L 255.007826 217.512045 
L 257.237926 194.404412 
L 259.468027 268.306113 
L 261.698127 234.306032 
L 263.928227 239.975771 
L 266.158328 271.998873 
L 268.388428 240.074261 
L 270.618528 214.127348 
L 272.848629 181.976155 
L 275.078729 261.269019 
L 277.308829 249.898497 
L 279.53893 226.242042 
L 281.76903 211.834688 
L 283.99913 258.011721 
L 286.229231 243.708207 
L 288.459331 256.86454 
L 290.689431 275.914295 
L 292.919532 235.067175 
L 295.149632 236.614305 
L 297.379732 235.369699 
L 299.609833 230.927712 
L 301.839933 251.307755 
L 304.070033 245.324303 
L 306.300134 251.732744 
L 308.530234 245.705976 
L 310.760334 214.543613 
L 312.990435 238.554375 
L 315.220535 237.937949 
L 317.450635 250.430237 
L 319.680736 231.606436 
L 321.910836 239.706177 
L 324.140936 223.654773 
L 326.371037 240.144017 
L 328.601137 223.501475 
L 330.831237 214.913118 
L 333.061338 241.610807 
L 335.291438 260.405363 
L 337.521538 195.508551 
L 339.751639 263.517258 
L 341.981739 221.765356 
L 344.211839 250.95004 
L 346.44194 200.457128 
L 348.67204 260.52989 
L 350.90214 234.853988 
L 353.132241 260.693703 
L 355.362341 216.480413 
L 357.592441 228.641869 
L 359.822542 249.881908 
L 362.052642 191.080638 
L 364.282742 222.082867 
L 366.512843 259.965068 
L 368.742943 268.18629 
L 370.973043 235.52272 
L 373.203144 251.792636 
L 375.433244 227.040668 
L 377.663344 234.848449 
L 379.893445 231.274536 
L 382.123545 234.832407 
L 384.353645 236.408495 
L 386.583746 206.894017 
L 388.813846 216.468941 
L 391.043946 273.804232 
L 393.274047 244.359085 
L 397.734247 261.931535 
L 399.964348 253.141631 
L 402.194448 234.368763 
L 404.424548 209.102052 
L 406.654649 235.80547 
L 408.884749 205.045948 
L 411.114849 231.774151 
L 413.34495 231.44347 
L 415.57505 233.335937 
L 417.805151 225.565444 
L 420.035251 228.137355 
L 422.265351 186.348626 
L 424.495452 252.252276 
L 426.725552 258.217252 
L 428.955652 270.027366 
L 431.185753 208.510897 
L 433.415853 225.709858 
L 435.645953 249.15379 
L 437.876054 240.971499 
L 440.106154 235.937396 
L 442.336254 244.042061 
L 444.566355 227.90187 
L 446.796455 226.804584 
L 449.026555 256.967326 
L 451.256656 228.385624 
L 453.486756 241.154161 
L 455.716856 220.03335 
L 457.946957 223.675542 
L 460.177057 215.437688 
L 462.407157 237.101877 
L 464.637258 239.791649 
L 466.867358 240.827271 
L 469.097458 239.229507 
L 471.327559 243.445004 
L 473.557659 243.702268 
L 475.787759 234.038988 
L 478.01786 209.913345 
L 480.24796 222.063926 
L 482.47806 223.725026 
L 484.708161 247.742515 
L 486.938261 247.733239 
L 489.168361 236.299413 
L 491.398462 235.80326 
L 493.628562 286.754808 
L 495.858662 271.398464 
L 498.088763 234.683018 
L 500.318863 251.253946 
L 502.548963 199.303585 
L 504.779064 223.118097 
L 507.009164 207.85219 
L 509.239264 240.997423 
L 511.469365 236.369311 
L 513.699465 244.612644 
L 515.929565 195.033725 
L 518.159666 231.376339 
L 520.389766 244.248288 
L 522.619866 245.095123 
L 524.849967 210.663333 
L 527.080067 223.757194 
L 529.310167 262.078135 
L 531.540268 220.427182 
L 533.770368 268.867257 
L 536.000468 244.085949 
L 538.230569 245.334316 
L 540.460669 205.349436 
L 542.690769 191.366686 
L 544.92087 268.958898 
L 547.15097 207.200352 
L 549.38107 200.709684 
L 551.611171 262.144128 
L 553.841271 233.298983 
L 556.071371 196.180727 
L 558.301472 249.792832 
L 560.531572 188.781195 
L 562.761672 243.309999 
L 564.991773 186.174642 
L 567.221873 219.969028 
L 569.451973 250.126086 
L 571.682074 239.406442 
L 573.912174 244.521027 
L 576.142274 235.043311 
L 578.372375 224.059951 
L 580.602475 286.891941 
L 582.832575 211.276321 
L 585.062676 238.780405 
L 587.292776 237.591566 
L 589.522876 226.762233 
L 591.752977 206.848813 
L 593.983077 197.71486 
L 596.213177 171.543184 
L 598.443278 200.436358 
L 600.673378 261.84838 
L 602.903478 212.251159 
L 605.133579 224.692148 
L 607.363679 253.466856 
L 609.593779 228.423367 
L 611.82388 275.156665 
L 614.05398 218.179453 
L 616.28408 241.695514 
L 618.514181 233.863071 
L 620.744281 232.899526 
L 622.974381 232.315579 
L 625.204482 231.235827 
L 627.434582 218.15794 
L 629.664682 291.776639 
L 631.894783 222.871882 
L 634.124883 220.92634 
L 636.354983 192.289312 
L 638.585084 230.914711 
L 640.815184 213.071403 
L 643.045284 253.439391 
L 645.275385 209.732181 
L 647.505485 217.409222 
L 649.735585 261.441702 
L 651.965686 218.437609 
L 654.195786 229.869513 
L 656.425886 202.22927 
L 658.655987 207.316721 
L 660.886087 225.134521 
L 663.116187 264.127071 
L 665.346288 214.02052 
L 667.576388 269.769401 
L 669.806488 247.020008 
L 672.036589 215.704491 
L 674.266689 284.193891 
L 676.496789 261.197507 
L 678.72689 234.866468 
L 680.95699 241.989481 
L 683.18709 222.10556 
L 687.647291 243.187159 
L 689.877391 223.884749 
L 692.107492 223.360597 
L 694.337592 191.027781 
L 696.567692 222.069049 
L 698.797793 232.440811 
L 701.027893 236.50612 
L 703.257993 227.386693 
L 705.488094 239.361278 
L 707.718194 256.588367 
L 709.948294 251.061438 
L 712.178395 239.980882 
L 714.408495 246.185048 
L 716.638595 210.446647 
L 718.868696 245.946677 
L 721.098796 228.581809 
L 723.328896 238.651064 
L 725.558997 220.191146 
L 727.789097 206.918628 
L 730.019197 208.536983 
L 732.249298 230.36255 
L 734.479398 206.32155 
L 736.709498 214.172753 
L 738.939599 199.900494 
L 741.169699 213.974125 
L 743.399799 232.657733 
L 745.6299 180.97466 
L 747.86 238.16525 
L 747.86 238.16525 
" clip-path="url(#p1db91c2029)" style="fill: none; stroke: #6a5acd; stroke-width: 1.5; stroke-linecap: square"/>
   </g>
   <g id="line2d_20">
    <path d="M 81.06 228.407726 
L 83.2901 282.836958 
L 85.520201 257.153706 
L 87.750301 259.002005 
L 89.980401 261.44396 
L 92.210502 255.556307 
L 94.440602 231.083306 
L 96.670702 262.336398 
L 98.900803 260.103101 
L 101.130903 242.74225 
L 103.361003 258.690758 
L 107.821204 270.044302 
L 110.051304 240.830487 
L 112.281405 236.552571 
L 114.511505 246.252805 
L 116.741605 287.320875 
L 118.971706 269.768181 
L 121.201806 266.315648 
L 123.431906 212.675067 
L 125.662007 240.184176 
L 127.892107 252.333788 
L 130.122207 244.946411 
L 132.352308 288.565829 
L 134.582408 250.693766 
L 136.812508 230.263216 
L 139.042609 264.5991 
L 141.272709 234.77039 
L 143.502809 263.566761 
L 145.73291 247.417209 
L 147.96301 256.032691 
L 150.19311 258.065862 
L 152.423211 251.748825 
L 154.653311 285.024902 
L 156.883411 244.605117 
L 159.113512 261.948823 
L 161.343612 267.785981 
L 163.573712 271.453993 
L 165.803813 231.477582 
L 168.033913 262.268405 
L 170.264013 266.611189 
L 172.494114 251.904132 
L 174.724214 238.508959 
L 176.954314 259.07436 
L 179.184415 254.770158 
L 181.414515 242.89208 
L 183.644615 281.857991 
L 188.104816 256.589402 
L 190.334916 258.825545 
L 192.565017 253.40955 
L 194.795117 270.220502 
L 197.025217 242.540937 
L 199.255318 279.971274 
L 201.485418 251.656638 
L 203.715518 252.073954 
L 205.945619 264.215872 
L 208.175719 254.247728 
L 210.405819 268.355073 
L 212.63592 209.533783 
L 214.86602 235.181933 
L 217.09612 230.950207 
L 219.326221 245.480734 
L 221.556321 224.456123 
L 223.786421 250.426025 
L 226.016522 248.812143 
L 228.246622 216.244368 
L 230.476722 249.544034 
L 232.706823 201.526496 
L 234.936923 203.319611 
L 237.167023 215.407238 
L 239.397124 215.662935 
L 241.627224 201.395053 
L 243.857324 211.200105 
L 246.087425 193.428732 
L 248.317525 180.014077 
L 250.547625 208.315199 
L 252.777726 172.611999 
L 255.007826 160.967057 
L 257.237926 174.413381 
L 259.468027 155.680871 
L 261.698127 158.516836 
L 263.928227 155.976239 
L 266.158328 116.673157 
L 268.388428 163.886385 
L 270.618528 115.153253 
L 272.848629 127.729634 
L 275.078729 122.454019 
L 277.308829 81.640784 
L 279.53893 96.404002 
L 281.76903 114.81103 
L 283.99913 65.469945 
L 286.229231 96.472494 
L 288.459331 86.902279 
L 290.689431 115.514615 
L 292.919532 57.102487 
L 295.149632 74.611178 
L 297.379732 73.03092 
L 299.609833 77.698911 
L 301.839933 83.85945 
L 304.070033 101.468267 
L 306.300134 54.409818 
L 308.530234 104.374589 
L 310.760334 91.109463 
L 312.990435 118.576038 
L 315.220535 99.043845 
L 317.450635 104.088952 
L 319.680736 78.963342 
L 321.910836 95.566561 
L 324.140936 107.889448 
L 326.371037 131.519257 
L 328.601137 106.252216 
L 330.831237 116.107094 
L 333.061338 136.517954 
L 335.291438 138.535984 
L 337.521538 162.073024 
L 339.751639 109.043815 
L 341.981739 145.060204 
L 344.211839 114.947956 
L 346.44194 149.02697 
L 348.67204 187.582078 
L 350.90214 169.344352 
L 353.132241 171.07723 
L 355.362341 175.840242 
L 357.592441 177.517602 
L 359.822542 205.824115 
L 362.052642 216.522828 
L 364.282742 217.498663 
L 366.512843 175.020384 
L 368.742943 200.01377 
L 370.973043 242.759226 
L 373.203144 250.557925 
L 375.433244 214.042933 
L 377.663344 224.296787 
L 379.893445 256.80764 
L 382.123545 225.757638 
L 384.353645 233.852314 
L 386.583746 236.563726 
L 388.813846 209.478561 
L 391.043946 243.662556 
L 393.274047 255.828925 
L 395.504147 259.208353 
L 397.734247 238.919386 
L 399.964348 271.522208 
L 402.194448 257.96253 
L 404.424548 231.254788 
L 406.654649 249.283028 
L 408.884749 280.980755 
L 411.114849 254.087543 
L 413.34495 257.443093 
L 415.57505 205.874236 
L 417.805151 252.024448 
L 420.035251 253.658806 
L 422.265351 254.065757 
L 424.495452 247.095036 
L 426.725552 277.41937 
L 428.955652 251.897103 
L 431.185753 246.865973 
L 433.415853 253.979432 
L 435.645953 247.141818 
L 437.876054 289.240584 
L 440.106154 243.606481 
L 442.336254 259.90078 
L 444.566355 293.720507 
L 446.796455 250.305529 
L 449.026555 240.456677 
L 451.256656 248.699066 
L 453.486756 232.787612 
L 455.716856 244.424687 
L 457.946957 234.811918 
L 460.177057 265.427318 
L 462.407157 246.828993 
L 464.637258 254.979189 
L 466.867358 245.637444 
L 469.097458 286.274905 
L 471.327559 224.925459 
L 473.557659 225.739118 
L 475.787759 249.78005 
L 478.01786 250.261729 
L 480.24796 240.924416 
L 482.47806 255.385632 
L 484.708161 255.75767 
L 486.938261 267.638809 
L 489.168361 269.156723 
L 491.398462 255.914939 
L 493.628562 206.870719 
L 495.858662 247.152866 
L 498.088763 283.641773 
L 500.318863 243.449272 
L 502.548963 271.741527 
L 504.779064 235.38034 
L 507.009164 266.226392 
L 509.239264 249.944221 
L 511.469365 264.249478 
L 513.699465 226.568725 
L 515.929565 239.1719 
L 518.159666 242.189781 
L 520.389766 242.685561 
L 522.619866 261.853216 
L 524.849967 270.775243 
L 527.080067 271.227647 
L 529.310167 249.849828 
L 531.540268 223.183949 
L 533.770368 242.098801 
L 536.000468 248.528313 
L 538.230569 264.610149 
L 540.460669 285.09145 
L 542.690769 263.736239 
L 544.92087 244.517948 
L 547.15097 239.678677 
L 549.38107 243.336921 
L 551.611171 263.283153 
L 553.841271 252.658192 
L 556.071371 273.718844 
L 558.301472 263.371677 
L 560.531572 252.160825 
L 562.761672 258.919251 
L 564.991773 281.501716 
L 567.221873 248.300027 
L 569.451973 231.151096 
L 571.682074 220.69878 
L 576.142274 264.685549 
L 578.372375 260.126171 
L 580.602475 229.423915 
L 582.832575 247.486441 
L 585.062676 273.066703 
L 587.292776 253.095899 
L 589.522876 265.675803 
L 591.752977 240.319982 
L 593.983077 247.395974 
L 596.213177 231.553801 
L 598.443278 233.091138 
L 600.673378 262.761259 
L 602.903478 231.213074 
L 605.133579 269.373027 
L 607.363679 257.002488 
L 609.593779 252.102123 
L 611.82388 290.389401 
L 614.05398 295.54399 
L 616.28408 245.506957 
L 618.514181 249.077085 
L 620.744281 233.029641 
L 622.974381 255.652388 
L 625.204482 259.398031 
L 627.434582 252.966444 
L 629.664682 241.300542 
L 631.894783 254.57459 
L 634.124883 228.511471 
L 636.354983 274.06488 
L 638.585084 258.822921 
L 640.815184 263.602465 
L 643.045284 242.460258 
L 645.275385 263.810929 
L 647.505485 247.202081 
L 649.735585 246.134432 
L 651.965686 270.558589 
L 654.195786 247.34102 
L 656.425886 259.927691 
L 658.655987 256.916123 
L 660.886087 254.918523 
L 663.116187 276.062659 
L 665.346288 258.534064 
L 667.576388 275.693552 
L 669.806488 242.72416 
L 672.036589 253.134739 
L 674.266689 245.131215 
L 676.496789 269.924499 
L 678.72689 250.934734 
L 680.95699 264.096974 
L 683.18709 261.604713 
L 685.417191 229.931389 
L 687.647291 222.122691 
L 692.107492 256.241795 
L 694.337592 243.951009 
L 696.567692 245.716356 
L 698.797793 263.353116 
L 701.027893 271.071684 
L 703.257993 273.332463 
L 705.488094 276.450493 
L 707.718194 257.557948 
L 709.948294 268.74916 
L 712.178395 262.009582 
L 714.408495 256.58823 
L 716.638595 260.692569 
L 718.868696 260.165874 
L 721.098796 254.527047 
L 723.328896 241.791511 
L 725.558997 246.966783 
L 727.789097 248.314374 
L 730.019197 263.840037 
L 732.249298 235.375273 
L 734.479398 277.883217 
L 736.709498 263.643579 
L 738.939599 269.702979 
L 741.169699 240.69987 
L 743.399799 257.926336 
L 745.6299 238.278592 
L 747.86 271.562998 
L 747.86 271.562998 
" clip-path="url(#p1db91c2029)" style="fill: none; stroke: #ffa500; stroke-width: 1.5; stroke-linecap: square"/>
   </g>
   <g id="patch_4">
    <path d="M 47.72 318.04 
L 47.72 41.856 
" style="fill: none; stroke: #000000; stroke-width: 0.8; stroke-linejoin: miter; stroke-linecap: square"/>
   </g>
   <g id="patch_5">
    <path d="M 781.2 318.04 
L 781.2 41.856 
" style="fill: none; stroke: #000000; stroke-width: 0.8; stroke-linejoin: miter; stroke-linecap: square"/>
   </g>
   <g id="patch_6">
    <path d="M 47.72 318.04 
L 781.2 318.04 
" style="fill: none; stroke: #000000; stroke-width: 0.8; stroke-linejoin: miter; stroke-linecap: square"/>
   </g>
   <g id="patch_7">
    <path d="M 47.72 41.856 
L 781.2 41.856 
" style="fill: none; stroke: #000000; stroke-width: 0.8; stroke-linejoin: miter; stroke-linecap: square"/>
   </g>
   <g id="text_18">
    <!-- Simulazione fMRI - Risposta BOLD multi-regione -->
    <g transform="translate(270.627813 22.418625) scale(0.12 -0.12)">
     <defs>
      <path id="DejaVuSans-69" d="M 603 3500 
L 1178 3500 
L 1178 0 
L 603 0 
L 603 3500 
z
M 603 4863 
L 1178 4863 
L 1178 4134 
L 603 4134 
L 603 4863 
z
" transform="scale(0.015625)"/>
      <path id="DejaVuSans-7a" d="M 353 3500 
L 3084 3500 
L 3084 2975 
L 922 459 
L 3084 459 
L 3084 0 
L 275 0 
L 275 525 
L 2438 3041 
L 353 3041 
L 353 3500 
z
" transform="scale(0.015625)"/>
      <path id="DejaVuSans-66" d="M 2375 4863 
L 2375 4384 
L 1825 4384 
Q 1516 4384 1395 4259 
Q 1275 4134 1275 3809 
L 1275 3500 
L 2222 3500 
L 2222 3053 
L 1275 3053 
L 1275 0 
L 697 0 
L 697 3053 
L 147 3053 
L 147 3500 
L 697 3500 
L 697 3744 
Q 697 4328 969 4595 
Q 1241 4863 1831 4863 
L 2375 4863 
z
" transform="scale(0.015625)"/>
      <path id="DejaVuSans-4d" d="M 628 4666 
L 1569 4666 
L 2759 1491 
L 3956 4666 
L 4897 4666 
L 4897 0 
L 4281 0 
L 4281 4097 
L 3078 897 
L 2444 897 
L 1241 4097 
L 1241 0 
L 628 0 
L 628 4666 
z
" transform="scale(0.015625)"/>
      <path id="DejaVuSans-52" d="M 2841 2188 
Q 3044 2119 3236 1894 
Q 3428 1669 3622 1275 
L 4263 0 
L 3584 0 
L 2988 1197 
Q 2756 1666 2539 1819 
Q 2322 1972 1947 1972 
L 1259 1972 
L 1259 0 
L 628 0 
L 628 4666 
L 2053 4666 
Q 2853 4666 3247 4331 
Q 3641 3997 3641 3322 
Q 3641 2881 3436 2590 
Q 3231 2300 2841 2188 
z
M 1259 4147 
L 1259 2491 
L 2053 2491 
Q 2509 2491 2742 2702 
Q 2975 2913 2975 3322 
Q 2975 3731 2742 3939 
Q 2509 4147 2053 4147 
L 1259 4147 
z
" transform="scale(0.015625)"/>
      <path id="DejaVuSans-49" d="M 628 4666 
L 1259 4666 
L 1259 0 
L 628 0 
L 628 4666 
z
" transform="scale(0.015625)"/>
      <path id="DejaVuSans-2d" d="M 313 2009 
L 1997 2009 
L 1997 1497 
L 313 1497 
L 313 2009 
z
" transform="scale(0.015625)"/>
      <path id="DejaVuSans-74" d="M 1172 4494 
L 1172 3500 
L 2356 3500 
L 2356 3053 
L 1172 3053 
L 1172 1153 
Q 1172 725 1289 603 
Q 1406 481 1766 481 
L 2356 481 
L 2356 0 
L 1766 0 
Q 1100 0 847 248 
Q 594 497 594 1153 
L 594 3053 
L 172 3053 
L 172 3500 
L 594 3500 
L 594 4494 
L 1172 4494 
z
" transform="scale(0.015625)"/>
      <path id="DejaVuSans-72" d="M 2631 2963 
Q 2534 3019 2420 3045 
Q 2306 3072 2169 3072 
Q 1681 3072 1420 2755 
Q 1159 2438 1159 1844 
L 1159 0 
L 581 0 
L 581 3500 
L 1159 3500 
L 1159 2956 
Q 1341 3275 1631 3429 
Q 1922 3584 2338 3584 
Q 2397 3584 2469 3576 
Q 2541 3569 2628 3553 
L 2631 2963 
z
" transform="scale(0.015625)"/>
     </defs>
     <use xlink:href="#DejaVuSans-53"/>
     <use xlink:href="#DejaVuSans-69" transform="translate(63.476562 0)"/>
     <use xlink:href="#DejaVuSans-6d" transform="translate(91.259766 0)"/>
     <use xlink:href="#DejaVuSans-75" transform="translate(188.671875 0)"/>
     <use xlink:href="#DejaVuSans-6c" transform="translate(252.050781 0)"/>
     <use xlink:href="#DejaVuSans-61" transform="translate(279.833984 0)"/>
     <use xlink:href="#DejaVuSans-7a" transform="translate(341.113281 0)"/>
     <use xlink:href="#DejaVuSans-69" transform="translate(393.603516 0)"/>
     <use xlink:href="#DejaVuSans-6f" transform="translate(421.386719 0)"/>
     <use xlink:href="#DejaVuSans-6e" transform="translate(482.568359 0)"/>
     <use xlink:href="#DejaVuSans-65" transform="translate(545.947266 0)"/>
     <use xlink:href="#DejaVuSans-20" transform="translate(607.470703 0)"/>
     <use xlink:href="#DejaVuSans-66" transform="translate(639.257812 0)"/>
     <use xlink:href="#DejaVuSans-4d" transform="translate(674.462891 0)"/>
     <use xlink:href="#DejaVuSans-52" transform="translate(760.742188 0)"/>
     <use xlink:href="#DejaVuSans-49" transform="translate(830.224609 0)"/>
     <use xlink:href="#DejaVuSans-20" transform="translate(859.716797 0)"/>
     <use xlink:href="#DejaVuSans-2d" transform="translate(891.503906 0)"/>
     <use xlink:href="#DejaVuSans-20" transform="translate(927.587891 0)"/>
     <use xlink:href="#DejaVuSans-52" transform="translate(959.375 0)"/>
     <use xlink:href="#DejaVuSans-69" transform="translate(1028.857422 0)"/>
     <use xlink:href="#DejaVuSans-73" transform="translate(1056.640625 0)"/>
     <use xlink:href="#DejaVuSans-70" transform="translate(1108.740234 0)"/>
     <use xlink:href="#DejaVuSans-6f" transform="translate(1172.216797 0)"/>
     <use xlink:href="#DejaVuSans-73" transform="translate(1233.398438 0)"/>
     <use xlink:href="#DejaVuSans-74" transform="translate(1285.498047 0)"/>
     <use xlink:href="#DejaVuSans-61" transform="translate(1324.707031 0)"/>
     <use xlink:href="#DejaVuSans-20" transform="translate(1385.986328 0)"/>
     <use xlink:href="#DejaVuSans-42" transform="translate(1417.773438 0)"/>
     <use xlink:href="#DejaVuSans-4f" transform="translate(1484.626953 0)"/>
     <use xlink:href="#DejaVuSans-4c" transform="translate(1563.337891 0)"/>
     <use xlink:href="#DejaVuSans-44" transform="translate(1619.050781 0)"/>
     <use xlink:href="#DejaVuSans-20" transform="translate(1696.052734 0)"/>
     <use xlink:href="#DejaVuSans-6d" transform="translate(1727.839844 0)"/>
     <use xlink:href="#DejaVuSans-75" transform="translate(1825.251953 0)"/>
     <use xlink:href="#DejaVuSans-6c" transform="translate(1888.630859 0)"/>
     <use xlink:href="#DejaVuSans-74" transform="translate(1916.414062 0)"/>
     <use xlink:href="#DejaVuSans-69" transform="translate(1955.623047 0)"/>
     <use xlink:href="#DejaVuSans-2d" transform="translate(1983.40625 0)"/>
     <use xlink:href="#DejaVuSans-72" transform="translate(2019.490234 0)"/>
     <use xlink:href="#DejaVuSans-65" transform="translate(2058.353516 0)"/>
     <use xlink:href="#DejaVuSans-67" transform="translate(2119.876953 0)"/>
     <use xlink:href="#DejaVuSans-69" transform="translate(2183.353516 0)"/>
     <use xlink:href="#DejaVuSans-6f" transform="translate(2211.136719 0)"/>
     <use xlink:href="#DejaVuSans-6e" transform="translate(2272.318359 0)"/>
     <use xlink:href="#DejaVuSans-65" transform="translate(2335.697266 0)"/>
    </g>
    <!-- (PA=2, NA=7, Visivo=ON, Motorio=OFF, Memoria=OFF, Emozioni=OFF) -->
    <g transform="translate(199.102187 35.856) scale(0.12 -0.12)">
     <defs>
      <path id="DejaVuSans-50" d="M 1259 4147 
L 1259 2394 
L 2053 2394 
Q 2494 2394 2734 2622 
Q 2975 2850 2975 3272 
Q 2975 3691 2734 3919 
Q 2494 4147 2053 4147 
L 1259 4147 
z
M 628 4666 
L 2053 4666 
Q 2838 4666 3239 4311 
Q 3641 3956 3641 3272 
Q 3641 2581 3239 2228 
Q 2838 1875 2053 1875 
L 1259 1875 
L 1259 0 
L 628 0 
L 628 4666 
z
" transform="scale(0.015625)"/>
      <path id="DejaVuSans-41" d="M 2188 4044 
L 1331 1722 
L 3047 1722 
L 2188 4044 
z
M 1831 4666 
L 2547 4666 
L 4325 0 
L 3669 0 
L 3244 1197 
L 1141 1197 
L 716 0 
L 50 0 
L 1831 4666 
z
" transform="scale(0.015625)"/>
      <path id="DejaVuSans-3d" d="M 678 2906 
L 4684 2906 
L 4684 2381 
L 678 2381 
L 678 2906 
z
M 678 1631 
L 4684 1631 
L 4684 1100 
L 678 1100 
L 678 1631 
z
" transform="scale(0.015625)"/>
      <path id="DejaVuSans-2c" d="M 750 794 
L 1409 794 
L 1409 256 
L 897 -744 
L 494 -744 
L 750 256 
L 750 794 
z
" transform="scale(0.015625)"/>
      <path id="DejaVuSans-4e" d="M 628 4666 
L 1478 4666 
L 3547 763 
L 3547 4666 
L 4159 4666 
L 4159 0 
L 3309 0 
L 1241 3903 
L 1241 0 
L 628 0 
L 628 4666 
z
" transform="scale(0.015625)"/>
      <path id="DejaVuSans-56" d="M 1831 0 
L 50 4666 
L 709 4666 
L 2188 738 
L 3669 4666 
L 4325 4666 
L 2547 0 
L 1831 0 
z
" transform="scale(0.015625)"/>
      <path id="DejaVuSans-76" d="M 191 3500 
L 800 3500 
L 1894 563 
L 2988 3500 
L 3597 3500 
L 2284 0 
L 1503 0 
L 191 3500 
z
" transform="scale(0.015625)"/>
      <path id="DejaVuSans-46" d="M 628 4666 
L 3309 4666 
L 3309 4134 
L 1259 4134 
L 1259 2759 
L 3109 2759 
L 3109 2228 
L 1259 2228 
L 1259 0 
L 628 0 
L 628 4666 
z
" transform="scale(0.015625)"/>
      <path id="DejaVuSans-45" d="M 628 4666 
L 3578 4666 
L 3578 4134 
L 1259 4134 
L 1259 2753 
L 3481 2753 
L 3481 2222 
L 1259 2222 
L 1259 531 
L 3634 531 
L 3634 0 
L 628 0 
L 628 4666 
z
" transform="scale(0.015625)"/>
     </defs>
     <use xlink:href="#DejaVuSans-28"/>
     <use xlink:href="#DejaVuSans-50" transform="translate(39.013672 0)"/>
     <use xlink:href="#DejaVuSans-41" transform="translate(92.941406 0)"/>
     <use xlink:href="#DejaVuSans-3d" transform="translate(161.349609 0)"/>
     <use xlink:href="#DejaVuSans-32" transform="translate(245.138672 0)"/>
     <use xlink:href="#DejaVuSans-2c" transform="translate(308.761719 0)"/>
     <use xlink:href="#DejaVuSans-20" transform="translate(340.548828 0)"/>
     <use xlink:href="#DejaVuSans-4e" transform="translate(372.335938 0)"/>
     <use xlink:href="#DejaVuSans-41" transform="translate(447.140625 0)"/>
     <use xlink:href="#DejaVuSans-3d" transform="translate(515.548828 0)"/>
     <use xlink:href="#DejaVuSans-37" transform="translate(599.337891 0)"/>
     <use xlink:href="#DejaVuSans-2c" transform="translate(662.960938 0)"/>
     <use xlink:href="#DejaVuSans-20" transform="translate(694.748047 0)"/>
     <use xlink:href="#DejaVuSans-56" transform="translate(726.535156 0)"/>
     <use xlink:href="#DejaVuSans-69" transform="translate(792.693359 0)"/>
     <use xlink:href="#DejaVuSans-73" transform="translate(820.476562 0)"/>
     <use xlink:href="#DejaVuSans-69" transform="translate(872.576172 0)"/>
     <use xlink:href="#DejaVuSans-76" transform="translate(900.359375 0)"/>
     <use xlink:href="#DejaVuSans-6f" transform="translate(959.539062 0)"/>
     <use xlink:href="#DejaVuSans-3d" transform="translate(1020.720703 0)"/>
     <use xlink:href="#DejaVuSans-4f" transform="translate(1104.509766 0)"/>
     <use xlink:href="#DejaVuSans-4e" transform="translate(1183.220703 0)"/>
     <use xlink:href="#DejaVuSans-2c" transform="translate(1258.025391 0)"/>
     <use xlink:href="#DejaVuSans-20" transform="translate(1289.8125 0)"/>
     <use xlink:href="#DejaVuSans-4d" transform="translate(1321.599609 0)"/>
     <use xlink:href="#DejaVuSans-6f" transform="translate(1407.878906 0)"/>
     <use xlink:href="#DejaVuSans-74" transform="translate(1469.060547 0)"/>
     <use xlink:href="#DejaVuSans-6f" transform="translate(1508.269531 0)"/>
     <use xlink:href="#DejaVuSans-72" transform="translate(1569.451172 0)"/>
     <use xlink:href="#DejaVuSans-69" transform="translate(1610.564453 0)"/>
     <use xlink:href="#DejaVuSans-6f" transform="translate(1638.347656 0)"/>
     <use xlink:href="#DejaVuSans-3d" transform="translate(1699.529297 0)"/>
     <use xlink:href="#DejaVuSans-4f" transform="translate(1783.318359 0)"/>
     <use xlink:href="#DejaVuSans-46" transform="translate(1862.029297 0)"/>
     <use xlink:href="#DejaVuSans-46" transform="translate(1919.548828 0)"/>
     <use xlink:href="#DejaVuSans-2c" transform="translate(1977.068359 0)"/>
     <use xlink:href="#DejaVuSans-20" transform="translate(2008.855469 0)"/>
     <use xlink:href="#DejaVuSans-4d" transform="translate(2040.642578 0)"/>
     <use xlink:href="#DejaVuSans-65" transform="translate(2126.921875 0)"/>
     <use xlink:href="#DejaVuSans-6d" transform="translate(2188.445312 0)"/>
     <use xlink:href="#DejaVuSans-6f" transform="translate(2285.857422 0)"/>
     <use xlink:href="#DejaVuSans-72" transform="translate(2347.039062 0)"/>
     <use xlink:href="#DejaVuSans-69" transform="translate(2388.152344 0)"/>
     <use xlink:href="#DejaVuSans-61" transform="translate(2415.935547 0)"/>
     <use xlink:href="#DejaVuSans-3d" transform="translate(2477.214844 0)"/>
     <use xlink:href="#DejaVuSans-4f" transform="translate(2561.003906 0)"/>
     <use xlink:href="#DejaVuSans-46" transform="translate(2639.714844 0)"/>
     <use xlink:href="#DejaVuSans-46" transform="translate(2697.234375 0)"/>
     <use xlink:href="#DejaVuSans-2c" transform="translate(2754.753906 0)"/>
     <use xlink:href="#DejaVuSans-20" transform="translate(2786.541016 0)"/>
     <use xlink:href="#DejaVuSans-45" transform="translate(2818.328125 0)"/>
     <use xlink:href="#DejaVuSans-6d" transform="translate(2881.511719 0)"/>
     <use xlink:href="#DejaVuSans-6f" transform="translate(2978.923828 0)"/>
     <use xlink:href="#DejaVuSans-7a" transform="translate(3040.105469 0)"/>
     <use xlink:href="#DejaVuSans-69" transform="translate(3092.595703 0)"/>
     <use xlink:href="#DejaVuSans-6f" transform="translate(3120.378906 0)"/>
     <use xlink:href="#DejaVuSans-6e" transform="translate(3181.560547 0)"/>
     <use xlink:href="#DejaVuSans-69" transform="translate(3244.939453 0)"/>
     <use xlink:href="#DejaVuSans-3d" transform="translate(3272.722656 0)"/>
     <use xlink:href="#DejaVuSans-4f" transform="translate(3356.511719 0)"/>
     <use xlink:href="#DejaVuSans-46" transform="translate(3435.222656 0)"/>
     <use xlink:href="#DejaVuSans-46" transform="translate(3492.742188 0)"/>
     <use xlink:href="#DejaVuSans-29" transform="translate(3550.261719 0)"/>
    </g>
   </g>
   <g id="legend_1">
    <g id="patch_8">
     <path d="M 551.70625 137.92475 
L 774.2 137.92475 
Q 776.2 137.92475 776.2 135.92475 
L 776.2 48.856 
Q 776.2 46.856 774.2 46.856 
L 551.70625 46.856 
Q 549.70625 46.856 549.70625 48.856 
L 549.70625 135.92475 
Q 549.70625 137.92475 551.70625 137.92475 
z
" style="fill: #ffffff; opacity: 0.93; stroke: #cccccc; stroke-linejoin: miter"/>
    </g>
    <g id="patch_9">
     <path d="M 553.70625 58.454438 
L 573.70625 58.454438 
L 573.70625 51.454438 
L 553.70625 51.454438 
z
" style="fill: #ffff00; opacity: 0.15; stroke: #ffff00; stroke-linejoin: miter"/>
    </g>
    <g id="text_19">
     <!-- Stimolo -->
     <g transform="translate(581.70625 58.454438) scale(0.1 -0.1)">
      <use xlink:href="#DejaVuSans-53"/>
      <use xlink:href="#DejaVuSans-74" transform="translate(63.476562 0)"/>
      <use xlink:href="#DejaVuSans-69" transform="translate(102.685547 0)"/>
      <use xlink:href="#DejaVuSans-6d" transform="translate(130.46875 0)"/>
      <use xlink:href="#DejaVuSans-6f" transform="translate(227.880859 0)"/>
      <use xlink:href="#DejaVuSans-6c" transform="translate(289.0625 0)"/>
      <use xlink:href="#DejaVuSans-6f" transform="translate(316.845703 0)"/>
     </g>
    </g>
    <g id="line2d_21">
     <path d="M 553.70625 69.632563 
L 563.70625 69.632563 
L 573.70625 69.632563 
" style="fill: none; stroke: #b22222; stroke-width: 1.5; stroke-linecap: square"/>
    </g>
    <g id="text_20">
     <!-- Amigdala (emozioni/NA) -->
     <g transform="translate(581.70625 73.132563) scale(0.1 -0.1)">
      <defs>
       <path id="DejaVuSans-64" d="M 2906 2969 
L 2906 4863 
L 3481 4863 
L 3481 0 
L 2906 0 
L 2906 525 
Q 2725 213 2448 61 
Q 2172 -91 1784 -91 
Q 1150 -91 751 415 
Q 353 922 353 1747 
Q 353 2572 751 3078 
Q 1150 3584 1784 3584 
Q 2172 3584 2448 3432 
Q 2725 3281 2906 2969 
z
M 947 1747 
Q 947 1113 1208 752 
Q 1469 391 1925 391 
Q 2381 391 2643 752 
Q 2906 1113 2906 1747 
Q 2906 2381 2643 2742 
Q 2381 3103 1925 3103 
Q 1469 3103 1208 2742 
Q 947 2381 947 1747 
z
" transform="scale(0.015625)"/>
       <path id="DejaVuSans-2f" d="M 1625 4666 
L 2156 4666 
L 531 -594 
L 0 -594 
L 1625 4666 
z
" transform="scale(0.015625)"/>
      </defs>
      <use xlink:href="#DejaVuSans-41"/>
      <use xlink:href="#DejaVuSans-6d" transform="translate(68.408203 0)"/>
      <use xlink:href="#DejaVuSans-69" transform="translate(165.820312 0)"/>
      <use xlink:href="#DejaVuSans-67" transform="translate(193.603516 0)"/>
      <use xlink:href="#DejaVuSans-64" transform="translate(257.080078 0)"/>
      <use xlink:href="#DejaVuSans-61" transform="translate(320.556641 0)"/>
      <use xlink:href="#DejaVuSans-6c" transform="translate(381.835938 0)"/>
      <use xlink:href="#DejaVuSans-61" transform="translate(409.619141 0)"/>
      <use xlink:href="#DejaVuSans-20" transform="translate(470.898438 0)"/>
      <use xlink:href="#DejaVuSans-28" transform="translate(502.685547 0)"/>
      <use xlink:href="#DejaVuSans-65" transform="translate(541.699219 0)"/>
      <use xlink:href="#DejaVuSans-6d" transform="translate(603.222656 0)"/>
      <use xlink:href="#DejaVuSans-6f" transform="translate(700.634766 0)"/>
      <use xlink:href="#DejaVuSans-7a" transform="translate(761.816406 0)"/>
      <use xlink:href="#DejaVuSans-69" transform="translate(814.306641 0)"/>
      <use xlink:href="#DejaVuSans-6f" transform="translate(842.089844 0)"/>
      <use xlink:href="#DejaVuSans-6e" transform="translate(903.271484 0)"/>
      <use xlink:href="#DejaVuSans-69" transform="translate(966.650391 0)"/>
      <use xlink:href="#DejaVuSans-2f" transform="translate(994.433594 0)"/>
      <use xlink:href="#DejaVuSans-4e" transform="translate(1028.125 0)"/>
      <use xlink:href="#DejaVuSans-41" transform="translate(1102.929688 0)"/>
      <use xlink:href="#DejaVuSans-29" transform="translate(1171.337891 0)"/>
     </g>
    </g>
    <g id="line2d_22">
     <path d="M 553.70625 84.310688 
L 563.70625 84.310688 
L 573.70625 84.310688 
" style="fill: none; stroke: #000080; stroke-width: 1.5; stroke-linecap: square"/>
    </g>
    <g id="text_21">
     <!-- Prefrontale (regolazione/PA, memoria) -->
     <g transform="translate(581.70625 87.810688) scale(0.1 -0.1)">
      <use xlink:href="#DejaVuSans-50"/>
      <use xlink:href="#DejaVuSans-72" transform="translate(58.552734 0)"/>
      <use xlink:href="#DejaVuSans-65" transform="translate(97.416016 0)"/>
      <use xlink:href="#DejaVuSans-66" transform="translate(158.939453 0)"/>
      <use xlink:href="#DejaVuSans-72" transform="translate(194.144531 0)"/>
      <use xlink:href="#DejaVuSans-6f" transform="translate(233.007812 0)"/>
      <use xlink:href="#DejaVuSans-6e" transform="translate(294.189453 0)"/>
      <use xlink:href="#DejaVuSans-74" transform="translate(357.568359 0)"/>
      <use xlink:href="#DejaVuSans-61" transform="translate(396.777344 0)"/>
      <use xlink:href="#DejaVuSans-6c" transform="translate(458.056641 0)"/>
      <use xlink:href="#DejaVuSans-65" transform="translate(485.839844 0)"/>
      <use xlink:href="#DejaVuSans-20" transform="translate(547.363281 0)"/>
      <use xlink:href="#DejaVuSans-28" transform="translate(579.150391 0)"/>
      <use xlink:href="#DejaVuSans-72" transform="translate(618.164062 0)"/>
      <use xlink:href="#DejaVuSans-65" transform="translate(657.027344 0)"/>
      <use xlink:href="#DejaVuSans-67" transform="translate(718.550781 0)"/>
      <use xlink:href="#DejaVuSans-6f" transform="translate(782.027344 0)"/>
      <use xlink:href="#DejaVuSans-6c" transform="translate(843.208984 0)"/>
      <use xlink:href="#DejaVuSans-61" transform="translate(870.992188 0)"/>
      <use xlink:href="#DejaVuSans-7a" transform="translate(932.271484 0)"/>
      <use xlink:href="#DejaVuSans-69" transform="translate(984.761719 0)"/>
      <use xlink:href="#DejaVuSans-6f" transform="translate(1012.544922 0)"/>
      <use xlink:href="#DejaVuSans-6e" transform="translate(1073.726562 0)"/>
      <use xlink:href="#DejaVuSans-65" transform="translate(1137.105469 0)"/>
      <use xlink:href="#DejaVuSans-2f" transform="translate(1198.628906 0)"/>
      <use xlink:href="#DejaVuSans-50" transform="translate(1232.320312 0)"/>
      <use xlink:href="#DejaVuSans-41" transform="translate(1286.248047 0)"/>
      <use xlink:href="#DejaVuSans-2c" transform="translate(1354.65625 0)"/>
      <use xlink:href="#DejaVuSans-20" transform="translate(1386.443359 0)"/>
      <use xlink:href="#DejaVuSans-6d" transform="translate(1418.230469 0)"/>
      <use xlink:href="#DejaVuSans-65" transform="translate(1515.642578 0)"/>
      <use xlink:href="#DejaVuSans-6d" transform="translate(1577.166016 0)"/>
      <use xlink:href="#DejaVuSans-6f" transform="translate(1674.578125 0)"/>
      <use xlink:href="#DejaVuSans-72" transform="translate(1735.759766 0)"/>
      <use xlink:href="#DejaVuSans-69" transform="translate(1776.873047 0)"/>
      <use xlink:href="#DejaVuSans-61" transform="translate(1804.65625 0)"/>
      <use xlink:href="#DejaVuSans-29" transform="translate(1865.935547 0)"/>
     </g>
    </g>
    <g id="line2d_23">
     <path d="M 553.70625 98.988813 
L 563.70625 98.988813 
L 573.70625 98.988813 
" style="fill: none; stroke: #008000; stroke-width: 1.5; stroke-linecap: square"/>
    </g>
    <g id="text_22">
     <!-- Motoria -->
     <g transform="translate(581.70625 102.488813) scale(0.1 -0.1)">
      <use xlink:href="#DejaVuSans-4d"/>
      <use xlink:href="#DejaVuSans-6f" transform="translate(86.279297 0)"/>
      <use xlink:href="#DejaVuSans-74" transform="translate(147.460938 0)"/>
      <use xlink:href="#DejaVuSans-6f" transform="translate(186.669922 0)"/>
      <use xlink:href="#DejaVuSans-72" transform="translate(247.851562 0)"/>
      <use xlink:href="#DejaVuSans-69" transform="translate(288.964844 0)"/>
      <use xlink:href="#DejaVuSans-61" transform="translate(316.748047 0)"/>
     </g>
    </g>
    <g id="line2d_24">
     <path d="M 553.70625 113.666938 
L 563.70625 113.666938 
L 573.70625 113.666938 
" style="fill: none; stroke: #6a5acd; stroke-width: 1.5; stroke-linecap: square"/>
    </g>
    <g id="text_23">
     <!-- Ippocampo (memoria/emozioni) -->
     <g transform="translate(581.70625 117.166938) scale(0.1 -0.1)">
      <defs>
       <path id="DejaVuSans-63" d="M 3122 3366 
L 3122 2828 
Q 2878 2963 2633 3030 
Q 2388 3097 2138 3097 
Q 1578 3097 1268 2742 
Q 959 2388 959 1747 
Q 959 1106 1268 751 
Q 1578 397 2138 397 
Q 2388 397 2633 464 
Q 2878 531 3122 666 
L 3122 134 
Q 2881 22 2623 -34 
Q 2366 -91 2075 -91 
Q 1284 -91 818 406 
Q 353 903 353 1747 
Q 353 2603 823 3093 
Q 1294 3584 2113 3584 
Q 2378 3584 2631 3529 
Q 2884 3475 3122 3366 
z
" transform="scale(0.015625)"/>
      </defs>
      <use xlink:href="#DejaVuSans-49"/>
      <use xlink:href="#DejaVuSans-70" transform="translate(29.492188 0)"/>
      <use xlink:href="#DejaVuSans-70" transform="translate(92.96875 0)"/>
      <use xlink:href="#DejaVuSans-6f" transform="translate(156.445312 0)"/>
      <use xlink:href="#DejaVuSans-63" transform="translate(217.626953 0)"/>
      <use xlink:href="#DejaVuSans-61" transform="translate(272.607422 0)"/>
      <use xlink:href="#DejaVuSans-6d" transform="translate(333.886719 0)"/>
      <use xlink:href="#DejaVuSans-70" transform="translate(431.298828 0)"/>
      <use xlink:href="#DejaVuSans-6f" transform="translate(494.775391 0)"/>
      <use xlink:href="#DejaVuSans-20" transform="translate(555.957031 0)"/>
      <use xlink:href="#DejaVuSans-28" transform="translate(587.744141 0)"/>
      <use xlink:href="#DejaVuSans-6d" transform="translate(626.757812 0)"/>
      <use xlink:href="#DejaVuSans-65" transform="translate(724.169922 0)"/>
      <use xlink:href="#DejaVuSans-6d" transform="translate(785.693359 0)"/>
      <use xlink:href="#DejaVuSans-6f" transform="translate(883.105469 0)"/>
      <use xlink:href="#DejaVuSans-72" transform="translate(944.287109 0)"/>
      <use xlink:href="#DejaVuSans-69" transform="translate(985.400391 0)"/>
      <use xlink:href="#DejaVuSans-61" transform="translate(1013.183594 0)"/>
      <use xlink:href="#DejaVuSans-2f" transform="translate(1074.462891 0)"/>
      <use xlink:href="#DejaVuSans-65" transform="translate(1108.154297 0)"/>
      <use xlink:href="#DejaVuSans-6d" transform="translate(1169.677734 0)"/>
      <use xlink:href="#DejaVuSans-6f" transform="translate(1267.089844 0)"/>
      <use xlink:href="#DejaVuSans-7a" transform="translate(1328.271484 0)"/>
      <use xlink:href="#DejaVuSans-69" transform="translate(1380.761719 0)"/>
      <use xlink:href="#DejaVuSans-6f" transform="translate(1408.544922 0)"/>
      <use xlink:href="#DejaVuSans-6e" transform="translate(1469.726562 0)"/>
      <use xlink:href="#DejaVuSans-69" transform="translate(1533.105469 0)"/>
      <use xlink:href="#DejaVuSans-29" transform="translate(1560.888672 0)"/>
     </g>
    </g>
    <g id="line2d_25">
     <path d="M 553.70625 128.345063 
L 563.70625 128.345063 
L 573.70625 128.345063 
" style="fill: none; stroke: #ffa500; stroke-width: 1.5; stroke-linecap: square"/>
    </g>
    <g id="text_24">
     <!-- Visiva (stimolo) -->
     <g transform="translate(581.70625 131.845063) scale(0.1 -0.1)">
      <use xlink:href="#DejaVuSans-56"/>
      <use xlink:href="#DejaVuSans-69" transform="translate(66.158203 0)"/>
      <use xlink:href="#DejaVuSans-73" transform="translate(93.941406 0)"/>
      <use xlink:href="#DejaVuSans-69" transform="translate(146.041016 0)"/>
      <use xlink:href="#DejaVuSans-76" transform="translate(173.824219 0)"/>
      <use xlink:href="#DejaVuSans-61" transform="translate(233.003906 0)"/>
      <use xlink:href="#DejaVuSans-20" transform="translate(294.283203 0)"/>
      <use xlink:href="#DejaVuSans-28" transform="translate(326.070312 0)"/>
      <use xlink:href="#DejaVuSans-73" transform="translate(365.083984 0)"/>
      <use xlink:href="#DejaVuSans-74" transform="translate(417.183594 0)"/>
      <use xlink:href="#DejaVuSans-69" transform="translate(456.392578 0)"/>
      <use xlink:href="#DejaVuSans-6d" transform="translate(484.175781 0)"/>
      <use xlink:href="#DejaVuSans-6f" transform="translate(581.587891 0)"/>
      <use xlink:href="#DejaVuSans-6c" transform="translate(642.769531 0)"/>
      <use xlink:href="#DejaVuSans-6f" transform="translate(670.552734 0)"/>
      <use xlink:href="#DejaVuSans-29" transform="translate(731.734375 0)"/>
     </g>
    </g>
   </g>
  </g>
 </g>
 <defs>
  <clipPath id="p1db91c2029">
   <rect x="47.72" y="41.856" width="733.48" height="276.184"/>
  </clipPath>
 </defs>
</svg>
