<?xml version="1.0" encoding="utf-8" standalone="no"?>
<!DOCTYPE svg PUBLIC "-//W3C//DTD SVG 1.1//EN"
  "http://www.w3.org/Graphics/SVG/1.1/DTD/svg11.dtd">
<svg xmlns:xlink="http://www.w3.org/1999/xlink" width="864pt" height="288pt" viewBox="0 0 864 288" xmlns="http://www.w3.org/2000/svg" version="1.1">
 <metadata>
  <rdf:RDF xmlns:dc="http://purl.org/dc/elements/1.1/" xmlns:cc="http://creativecommons.org/ns#" xmlns:rdf="http://www.w3.org/1999/02/22-rdf-syntax-ns#">
   <cc:Work>
    <dc:type rdf:resource="http://purl.org/dc/dcmitype/StillImage"/>
    <dc:date>2025-07-05T15:43:22.579253</dc:date>
    <dc:format>image/svg+xml</dc:format>
    <dc:creator>
     <cc:Agent>
      <dc:title>Matplotlib v3.10.1, https://matplotlib.org/</dc:title>
     </cc:Agent>
    </dc:creator>
   </cc:Work>
  </rdf:RDF>
 </metadata>
 <defs>
  <style type="text/css">*{stroke-linejoin: round; stroke-linecap: butt}</style>
 </defs>
 <g id="figure_1">
  <g id="patch_1">
   <path d="M 0 288 
L 864 288 
L 864 0 
L 0 0 
z
" style="fill: #ffffff"/>
  </g>
  <g id="axes_1">
   <g id="patch_2">
    <path d="M 56.09 246.04 
L 842.175 246.04 
L 842.175 26.88 
L 56.09 26.88 
z
" style="fill: #ffffff"/>
   </g>
   <g id="matplotlib.axis_1">
    <g id="xtick_1">
     <g id="line2d_1">
      <path d="M 56.09 246.04 
L 56.09 26.88 
" clip-path="url(#p3f16ec8636)" style="fill: none; stroke: #b0b0b0; stroke-width: 0.8; stroke-linecap: square"/>
     </g>
     <g id="line2d_2">
      <defs>
       <path id="m9e6f7055b1" d="M 0 0 
L 0 3.5 
" style="stroke: #000000; stroke-width: 0.8"/>
      </defs>
      <g>
       <use xlink:href="#m9e6f7055b1" x="56.09" y="246.04" style="stroke: #000000; stroke-width: 0.8"/>
      </g>
     </g>
     <g id="text_1">
      <!-- 0.00 -->
      <g transform="translate(44.957187 260.638438) scale(0.1 -0.1)">
       <defs>
        <path id="DejaVuSans-30" d="M 2034 4250 
Q 1547 4250 1301 3770 
Q 1056 3291 1056 2328 
Q 1056 1369 1301 889 
Q 1547 409 2034 409 
Q 2525 409 2770 889 
Q 3016 1369 3016 2328 
Q 3016 3291 2770 3770 
Q 2525 4250 2034 4250 
z
M 2034 4750 
Q 2819 4750 3233 4129 
Q 3647 3509 3647 2328 
Q 3647 1150 3233 529 
Q 2819 -91 2034 -91 
Q 1250 -91 836 529 
Q 422 1150 422 2328 
Q 422 3509 836 4129 
Q 1250 4750 2034 4750 
z
" transform="scale(0.015625)"/>
        <path id="DejaVuSans-2e" d="M 684 794 
L 1344 794 
L 1344 0 
L 684 0 
L 684 794 
z
" transform="scale(0.015625)"/>
       </defs>
       <use xlink:href="#DejaVuSans-30"/>
       <use xlink:href="#DejaVuSans-2e" transform="translate(63.623047 0)"/>
       <use xlink:href="#DejaVuSans-30" transform="translate(95.410156 0)"/>
       <use xlink:href="#DejaVuSans-30" transform="translate(159.033203 0)"/>
      </g>
     </g>
    </g>
    <g id="xtick_2">
     <g id="line2d_3">
      <path d="M 154.350625 246.04 
L 154.350625 26.88 
" clip-path="url(#p3f16ec8636)" style="fill: none; stroke: #b0b0b0; stroke-width: 0.8; stroke-linecap: square"/>
     </g>
     <g id="line2d_4">
      <g>
       <use xlink:href="#m9e6f7055b1" x="154.350625" y="246.04" style="stroke: #000000; stroke-width: 0.8"/>
      </g>
     </g>
     <g id="text_2">
      <!-- 0.25 -->
      <g transform="translate(143.217812 260.638438) scale(0.1 -0.1)">
       <defs>
        <path id="DejaVuSans-32" d="M 1228 531 
L 3431 531 
L 3431 0 
L 469 0 
L 469 531 
Q 828 903 1448 1529 
Q 2069 2156 2228 2338 
Q 2531 2678 2651 2914 
Q 2772 3150 2772 3378 
Q 2772 3750 2511 3984 
Q 2250 4219 1831 4219 
Q 1534 4219 1204 4116 
Q 875 4013 500 3803 
L 500 4441 
Q 881 4594 1212 4672 
Q 1544 4750 1819 4750 
Q 2544 4750 2975 4387 
Q 3406 4025 3406 3419 
Q 3406 3131 3298 2873 
Q 3191 2616 2906 2266 
Q 2828 2175 2409 1742 
Q 1991 1309 1228 531 
z
" transform="scale(0.015625)"/>
        <path id="DejaVuSans-35" d="M 691 4666 
L 3169 4666 
L 3169 4134 
L 1269 4134 
L 1269 2991 
Q 1406 3038 1543 3061 
Q 1681 3084 1819 3084 
Q 2600 3084 3056 2656 
Q 3513 2228 3513 1497 
Q 3513 744 3044 326 
Q 2575 -91 1722 -91 
Q 1428 -91 1123 -41 
Q 819 9 494 109 
L 494 744 
Q 775 591 1075 516 
Q 1375 441 1709 441 
Q 2250 441 2565 725 
Q 2881 1009 2881 1497 
Q 2881 1984 2565 2268 
Q 2250 2553 1709 2553 
Q 1456 2553 1204 2497 
Q 953 2441 691 2322 
L 691 4666 
z
" transform="scale(0.015625)"/>
       </defs>
       <use xlink:href="#DejaVuSans-30"/>
       <use xlink:href="#DejaVuSans-2e" transform="translate(63.623047 0)"/>
       <use xlink:href="#DejaVuSans-32" transform="translate(95.410156 0)"/>
       <use xlink:href="#DejaVuSans-35" transform="translate(159.033203 0)"/>
      </g>
     </g>
    </g>
    <g id="xtick_3">
     <g id="line2d_5">
      <path d="M 252.61125 246.04 
L 252.61125 26.88 
" clip-path="url(#p3f16ec8636)" style="fill: none; stroke: #b0b0b0; stroke-width: 0.8; stroke-linecap: square"/>
     </g>
     <g id="line2d_6">
      <g>
       <use xlink:href="#m9e6f7055b1" x="252.61125" y="246.04" style="stroke: #000000; stroke-width: 0.8"/>
      </g>
     </g>
     <g id="text_3">
      <!-- 0.50 -->
      <g transform="translate(241.478437 260.638438) scale(0.1 -0.1)">
       <use xlink:href="#DejaVuSans-30"/>
       <use xlink:href="#DejaVuSans-2e" transform="translate(63.623047 0)"/>
       <use xlink:href="#DejaVuSans-35" transform="translate(95.410156 0)"/>
       <use xlink:href="#DejaVuSans-30" transform="translate(159.033203 0)"/>
      </g>
     </g>
    </g>
    <g id="xtick_4">
     <g id="line2d_7">
      <path d="M 350.871875 246.04 
L 350.871875 26.88 
" clip-path="url(#p3f16ec8636)" style="fill: none; stroke: #b0b0b0; stroke-width: 0.8; stroke-linecap: square"/>
     </g>
     <g id="line2d_8">
      <g>
       <use xlink:href="#m9e6f7055b1" x="350.871875" y="246.04" style="stroke: #000000; stroke-width: 0.8"/>
      </g>
     </g>
     <g id="text_4">
      <!-- 0.75 -->
      <g transform="translate(339.739062 260.638438) scale(0.1 -0.1)">
       <defs>
        <path id="DejaVuSans-37" d="M 525 4666 
L 3525 4666 
L 3525 4397 
L 1831 0 
L 1172 0 
L 2766 4134 
L 525 4134 
L 525 4666 
z
" transform="scale(0.015625)"/>
       </defs>
       <use xlink:href="#DejaVuSans-30"/>
       <use xlink:href="#DejaVuSans-2e" transform="translate(63.623047 0)"/>
       <use xlink:href="#DejaVuSans-37" transform="translate(95.410156 0)"/>
       <use xlink:href="#DejaVuSans-35" transform="translate(159.033203 0)"/>
      </g>
     </g>
    </g>
    <g id="xtick_5">
     <g id="line2d_9">
      <path d="M 449.1325 246.04 
L 449.1325 26.88 
" clip-path="url(#p3f16ec8636)" style="fill: none; stroke: #b0b0b0; stroke-width: 0.8; stroke-linecap: square"/>
     </g>
     <g id="line2d_10">
      <g>
       <use xlink:href="#m9e6f7055b1" x="449.1325" y="246.04" style="stroke: #000000; stroke-width: 0.8"/>
      </g>
     </g>
     <g id="text_5">
      <!-- 1.00 -->
      <g transform="translate(437.999687 260.638438) scale(0.1 -0.1)">
       <defs>
        <path id="DejaVuSans-31" d="M 794 531 
L 1825 531 
L 1825 4091 
L 703 3866 
L 703 4441 
L 1819 4666 
L 2450 4666 
L 2450 531 
L 3481 531 
L 3481 0 
L 794 0 
L 794 531 
z
" transform="scale(0.015625)"/>
       </defs>
       <use xlink:href="#DejaVuSans-31"/>
       <use xlink:href="#DejaVuSans-2e" transform="translate(63.623047 0)"/>
       <use xlink:href="#DejaVuSans-30" transform="translate(95.410156 0)"/>
       <use xlink:href="#DejaVuSans-30" transform="translate(159.033203 0)"/>
      </g>
     </g>
    </g>
    <g id="xtick_6">
     <g id="line2d_11">
      <path d="M 547.393125 246.04 
L 547.393125 26.88 
" clip-path="url(#p3f16ec8636)" style="fill: none; stroke: #b0b0b0; stroke-width: 0.8; stroke-linecap: square"/>
     </g>
     <g id="line2d_12">
      <g>
       <use xlink:href="#m9e6f7055b1" x="547.393125" y="246.04" style="stroke: #000000; stroke-width: 0.8"/>
      </g>
     </g>
     <g id="text_6">
      <!-- 1.25 -->
      <g transform="translate(536.260312 260.638438) scale(0.1 -0.1)">
       <use xlink:href="#DejaVuSans-31"/>
       <use xlink:href="#DejaVuSans-2e" transform="translate(63.623047 0)"/>
       <use xlink:href="#DejaVuSans-32" transform="translate(95.410156 0)"/>
       <use xlink:href="#DejaVuSans-35" transform="translate(159.033203 0)"/>
      </g>
     </g>
    </g>
    <g id="xtick_7">
     <g id="line2d_13">
      <path d="M 645.65375 246.04 
L 645.65375 26.88 
" clip-path="url(#p3f16ec8636)" style="fill: none; stroke: #b0b0b0; stroke-width: 0.8; stroke-linecap: square"/>
     </g>
     <g id="line2d_14">
      <g>
       <use xlink:href="#m9e6f7055b1" x="645.65375" y="246.04" style="stroke: #000000; stroke-width: 0.8"/>
      </g>
     </g>
     <g id="text_7">
      <!-- 1.50 -->
      <g transform="translate(634.520937 260.638438) scale(0.1 -0.1)">
       <use xlink:href="#DejaVuSans-31"/>
       <use xlink:href="#DejaVuSans-2e" transform="translate(63.623047 0)"/>
       <use xlink:href="#DejaVuSans-35" transform="translate(95.410156 0)"/>
       <use xlink:href="#DejaVuSans-30" transform="translate(159.033203 0)"/>
      </g>
     </g>
    </g>
    <g id="xtick_8">
     <g id="line2d_15">
      <path d="M 743.914375 246.04 
L 743.914375 26.88 
" clip-path="url(#p3f16ec8636)" style="fill: none; stroke: #b0b0b0; stroke-width: 0.8; stroke-linecap: square"/>
     </g>
     <g id="line2d_16">
      <g>
       <use xlink:href="#m9e6f7055b1" x="743.914375" y="246.04" style="stroke: #000000; stroke-width: 0.8"/>
      </g>
     </g>
     <g id="text_8">
      <!-- 1.75 -->
      <g transform="translate(732.781562 260.638438) scale(0.1 -0.1)">
       <use xlink:href="#DejaVuSans-31"/>
       <use xlink:href="#DejaVuSans-2e" transform="translate(63.623047 0)"/>
       <use xlink:href="#DejaVuSans-37" transform="translate(95.410156 0)"/>
       <use xlink:href="#DejaVuSans-35" transform="translate(159.033203 0)"/>
      </g>
     </g>
    </g>
    <g id="xtick_9">
     <g id="line2d_17">
      <path d="M 842.175 246.04 
L 842.175 26.88 
" clip-path="url(#p3f16ec8636)" style="fill: none; stroke: #b0b0b0; stroke-width: 0.8; stroke-linecap: square"/>
     </g>
     <g id="line2d_18">
      <g>
       <use xlink:href="#m9e6f7055b1" x="842.175" y="246.04" style="stroke: #000000; stroke-width: 0.8"/>
      </g>
     </g>
     <g id="text_9">
      <!-- 2.00 -->
      <g transform="translate(831.042187 260.638438) scale(0.1 -0.1)">
       <use xlink:href="#DejaVuSans-32"/>
       <use xlink:href="#DejaVuSans-2e" transform="translate(63.623047 0)"/>
       <use xlink:href="#DejaVuSans-30" transform="translate(95.410156 0)"/>
       <use xlink:href="#DejaVuSans-30" transform="translate(159.033203 0)"/>
      </g>
     </g>
    </g>
    <g id="text_10">
     <!-- Tempo (s) -->
     <g transform="translate(424.652812 274.316562) scale(0.1 -0.1)">
      <defs>
       <path id="DejaVuSans-54" d="M -19 4666 
L 3928 4666 
L 3928 4134 
L 2272 4134 
L 2272 0 
L 1638 0 
L 1638 4134 
L -19 4134 
L -19 4666 
z
" transform="scale(0.015625)"/>
       <path id="DejaVuSans-65" d="M 3597 1894 
L 3597 1613 
L 953 1613 
Q 991 1019 1311 708 
Q 1631 397 2203 397 
Q 2534 397 2845 478 
Q 3156 559 3463 722 
L 3463 178 
Q 3153 47 2828 -22 
Q 2503 -91 2169 -91 
Q 1331 -91 842 396 
Q 353 884 353 1716 
Q 353 2575 817 3079 
Q 1281 3584 2069 3584 
Q 2775 3584 3186 3129 
Q 3597 2675 3597 1894 
z
M 3022 2063 
Q 3016 2534 2758 2815 
Q 2500 3097 2075 3097 
Q 1594 3097 1305 2825 
Q 1016 2553 972 2059 
L 3022 2063 
z
" transform="scale(0.015625)"/>
       <path id="DejaVuSans-6d" d="M 3328 2828 
Q 3544 3216 3844 3400 
Q 4144 3584 4550 3584 
Q 5097 3584 5394 3201 
Q 5691 2819 5691 2113 
L 5691 0 
L 5113 0 
L 5113 2094 
Q 5113 2597 4934 2840 
Q 4756 3084 4391 3084 
Q 3944 3084 3684 2787 
Q 3425 2491 3425 1978 
L 3425 0 
L 2847 0 
L 2847 2094 
Q 2847 2600 2669 2842 
Q 2491 3084 2119 3084 
Q 1678 3084 1418 2786 
Q 1159 2488 1159 1978 
L 1159 0 
L 581 0 
L 581 3500 
L 1159 3500 
L 1159 2956 
Q 1356 3278 1631 3431 
Q 1906 3584 2284 3584 
Q 2666 3584 2933 3390 
Q 3200 3197 3328 2828 
z
" transform="scale(0.015625)"/>
       <path id="DejaVuSans-70" d="M 1159 525 
L 1159 -1331 
L 581 -1331 
L 581 3500 
L 1159 3500 
L 1159 2969 
Q 1341 3281 1617 3432 
Q 1894 3584 2278 3584 
Q 2916 3584 3314 3078 
Q 3713 2572 3713 1747 
Q 3713 922 3314 415 
Q 2916 -91 2278 -91 
Q 1894 -91 1617 61 
Q 1341 213 1159 525 
z
M 3116 1747 
Q 3116 2381 2855 2742 
Q 2594 3103 2138 3103 
Q 1681 3103 1420 2742 
Q 1159 2381 1159 1747 
Q 1159 1113 1420 752 
Q 1681 391 2138 391 
Q 2594 391 2855 752 
Q 3116 1113 3116 1747 
z
" transform="scale(0.015625)"/>
       <path id="DejaVuSans-6f" d="M 1959 3097 
Q 1497 3097 1228 2736 
Q 959 2375 959 1747 
Q 959 1119 1226 758 
Q 1494 397 1959 397 
Q 2419 397 2687 759 
Q 2956 1122 2956 1747 
Q 2956 2369 2687 2733 
Q 2419 3097 1959 3097 
z
M 1959 3584 
Q 2709 3584 3137 3096 
Q 3566 2609 3566 1747 
Q 3566 888 3137 398 
Q 2709 -91 1959 -91 
Q 1206 -91 779 398 
Q 353 888 353 1747 
Q 353 2609 779 3096 
Q 1206 3584 1959 3584 
z
" transform="scale(0.015625)"/>
       <path id="DejaVuSans-20" transform="scale(0.015625)"/>
       <path id="DejaVuSans-28" d="M 1984 4856 
Q 1566 4138 1362 3434 
Q 1159 2731 1159 2009 
Q 1159 1288 1364 580 
Q 1569 -128 1984 -844 
L 1484 -844 
Q 1016 -109 783 600 
Q 550 1309 550 2009 
Q 550 2706 781 3412 
Q 1013 4119 1484 4856 
L 1984 4856 
z
" transform="scale(0.015625)"/>
       <path id="DejaVuSans-73" d="M 2834 3397 
L 2834 2853 
Q 2591 2978 2328 3040 
Q 2066 3103 1784 3103 
Q 1356 3103 1142 2972 
Q 928 2841 928 2578 
Q 928 2378 1081 2264 
Q 1234 2150 1697 2047 
L 1894 2003 
Q 2506 1872 2764 1633 
Q 3022 1394 3022 966 
Q 3022 478 2636 193 
Q 2250 -91 1575 -91 
Q 1294 -91 989 -36 
Q 684 19 347 128 
L 347 722 
Q 666 556 975 473 
Q 1284 391 1588 391 
Q 1994 391 2212 530 
Q 2431 669 2431 922 
Q 2431 1156 2273 1281 
Q 2116 1406 1581 1522 
L 1381 1569 
Q 847 1681 609 1914 
Q 372 2147 372 2553 
Q 372 3047 722 3315 
Q 1072 3584 1716 3584 
Q 2034 3584 2315 3537 
Q 2597 3491 2834 3397 
z
" transform="scale(0.015625)"/>
       <path id="DejaVuSans-29" d="M 513 4856 
L 1013 4856 
Q 1481 4119 1714 3412 
Q 1947 2706 1947 2009 
Q 1947 1309 1714 600 
Q 1481 -109 1013 -844 
L 513 -844 
Q 928 -128 1133 580 
Q 1338 1288 1338 2009 
Q 1338 2731 1133 3434 
Q 928 4138 513 4856 
z
" transform="scale(0.015625)"/>
      </defs>
      <use xlink:href="#DejaVuSans-54"/>
      <use xlink:href="#DejaVuSans-65" transform="translate(44.083984 0)"/>
      <use xlink:href="#DejaVuSans-6d" transform="translate(105.607422 0)"/>
      <use xlink:href="#DejaVuSans-70" transform="translate(203.019531 0)"/>
      <use xlink:href="#DejaVuSans-6f" transform="translate(266.496094 0)"/>
      <use xlink:href="#DejaVuSans-20" transform="translate(327.677734 0)"/>
      <use xlink:href="#DejaVuSans-28" transform="translate(359.464844 0)"/>
      <use xlink:href="#DejaVuSans-73" transform="translate(398.478516 0)"/>
      <use xlink:href="#DejaVuSans-29" transform="translate(450.578125 0)"/>
     </g>
    </g>
   </g>
   <g id="matplotlib.axis_2">
    <g id="ytick_1">
     <g id="line2d_19">
      <path d="M 56.09 211.369279 
L 842.175 211.369279 
" clip-path="url(#p3f16ec8636)" style="fill: none; stroke: #b0b0b0; stroke-width: 0.8; stroke-linecap: square"/>
     </g>
     <g id="line2d_20">
      <defs>
       <path id="m485b73504a" d="M 0 0 
L -3.5 0 
" style="stroke: #000000; stroke-width: 0.8"/>
      </defs>
      <g>
       <use xlink:href="#m485b73504a" x="56.09" y="211.369279" style="stroke: #000000; stroke-width: 0.8"/>
      </g>
     </g>
     <g id="text_11">
      <!-- −1.0 -->
      <g transform="translate(24.807187 215.168498) scale(0.1 -0.1)">
       <defs>
        <path id="DejaVuSans-2212" d="M 678 2272 
L 4684 2272 
L 4684 1741 
L 678 1741 
L 678 2272 
z
" transform="scale(0.015625)"/>
       </defs>
       <use xlink:href="#DejaVuSans-2212"/>
       <use xlink:href="#DejaVuSans-31" transform="translate(83.789062 0)"/>
       <use xlink:href="#DejaVuSans-2e" transform="translate(147.412109 0)"/>
       <use xlink:href="#DejaVuSans-30" transform="translate(179.199219 0)"/>
      </g>
     </g>
    </g>
    <g id="ytick_2">
     <g id="line2d_21">
      <path d="M 56.09 173.88076 
L 842.175 173.88076 
" clip-path="url(#p3f16ec8636)" style="fill: none; stroke: #b0b0b0; stroke-width: 0.8; stroke-linecap: square"/>
     </g>
     <g id="line2d_22">
      <g>
       <use xlink:href="#m485b73504a" x="56.09" y="173.88076" style="stroke: #000000; stroke-width: 0.8"/>
      </g>
     </g>
     <g id="text_12">
      <!-- −0.5 -->
      <g transform="translate(24.807187 177.679979) scale(0.1 -0.1)">
       <use xlink:href="#DejaVuSans-2212"/>
       <use xlink:href="#DejaVuSans-30" transform="translate(83.789062 0)"/>
       <use xlink:href="#DejaVuSans-2e" transform="translate(147.412109 0)"/>
       <use xlink:href="#DejaVuSans-35" transform="translate(179.199219 0)"/>
      </g>
     </g>
    </g>
    <g id="ytick_3">
     <g id="line2d_23">
      <path d="M 56.09 136.39224 
L 842.175 136.39224 
" clip-path="url(#p3f16ec8636)" style="fill: none; stroke: #b0b0b0; stroke-width: 0.8; stroke-linecap: square"/>
     </g>
     <g id="line2d_24">
      <g>
       <use xlink:href="#m485b73504a" x="56.09" y="136.39224" style="stroke: #000000; stroke-width: 0.8"/>
      </g>
     </g>
     <g id="text_13">
      <!-- 0.0 -->
      <g transform="translate(33.186875 140.191459) scale(0.1 -0.1)">
       <use xlink:href="#DejaVuSans-30"/>
       <use xlink:href="#DejaVuSans-2e" transform="translate(63.623047 0)"/>
       <use xlink:href="#DejaVuSans-30" transform="translate(95.410156 0)"/>
      </g>
     </g>
    </g>
    <g id="ytick_4">
     <g id="line2d_25">
      <path d="M 56.09 98.903721 
L 842.175 98.903721 
" clip-path="url(#p3f16ec8636)" style="fill: none; stroke: #b0b0b0; stroke-width: 0.8; stroke-linecap: square"/>
     </g>
     <g id="line2d_26">
      <g>
       <use xlink:href="#m485b73504a" x="56.09" y="98.903721" style="stroke: #000000; stroke-width: 0.8"/>
      </g>
     </g>
     <g id="text_14">
      <!-- 0.5 -->
      <g transform="translate(33.186875 102.702939) scale(0.1 -0.1)">
       <use xlink:href="#DejaVuSans-30"/>
       <use xlink:href="#DejaVuSans-2e" transform="translate(63.623047 0)"/>
       <use xlink:href="#DejaVuSans-35" transform="translate(95.410156 0)"/>
      </g>
     </g>
    </g>
    <g id="ytick_5">
     <g id="line2d_27">
      <path d="M 56.09 61.415201 
L 842.175 61.415201 
" clip-path="url(#p3f16ec8636)" style="fill: none; stroke: #b0b0b0; stroke-width: 0.8; stroke-linecap: square"/>
     </g>
     <g id="line2d_28">
      <g>
       <use xlink:href="#m485b73504a" x="56.09" y="61.415201" style="stroke: #000000; stroke-width: 0.8"/>
      </g>
     </g>
     <g id="text_15">
      <!-- 1.0 -->
      <g transform="translate(33.186875 65.21442) scale(0.1 -0.1)">
       <use xlink:href="#DejaVuSans-31"/>
       <use xlink:href="#DejaVuSans-2e" transform="translate(63.623047 0)"/>
       <use xlink:href="#DejaVuSans-30" transform="translate(95.410156 0)"/>
      </g>
     </g>
    </g>
    <g id="text_16">
     <!-- Ampiezza (a.u.) -->
     <g transform="translate(18.7275 175.604531) rotate(-90) scale(0.1 -0.1)">
      <defs>
       <path id="DejaVuSans-41" d="M 2188 4044 
L 1331 1722 
L 3047 1722 
L 2188 4044 
z
M 1831 4666 
L 2547 4666 
L 4325 0 
L 3669 0 
L 3244 1197 
L 1141 1197 
L 716 0 
L 50 0 
L 1831 4666 
z
" transform="scale(0.015625)"/>
       <path id="DejaVuSans-69" d="M 603 3500 
L 1178 3500 
L 1178 0 
L 603 0 
L 603 3500 
z
M 603 4863 
L 1178 4863 
L 1178 4134 
L 603 4134 
L 603 4863 
z
" transform="scale(0.015625)"/>
       <path id="DejaVuSans-7a" d="M 353 3500 
L 3084 3500 
L 3084 2975 
L 922 459 
L 3084 459 
L 3084 0 
L 275 0 
L 275 525 
L 2438 3041 
L 353 3041 
L 353 3500 
z
" transform="scale(0.015625)"/>
       <path id="DejaVuSans-61" d="M 2194 1759 
Q 1497 1759 1228 1600 
Q 959 1441 959 1056 
Q 959 750 1161 570 
Q 1363 391 1709 391 
Q 2188 391 2477 730 
Q 2766 1069 2766 1631 
L 2766 1759 
L 2194 1759 
z
M 3341 1997 
L 3341 0 
L 2766 0 
L 2766 531 
Q 2569 213 2275 61 
Q 1981 -91 1556 -91 
Q 1019 -91 701 211 
Q 384 513 384 1019 
Q 384 1609 779 1909 
Q 1175 2209 1959 2209 
L 2766 2209 
L 2766 2266 
Q 2766 2663 2505 2880 
Q 2244 3097 1772 3097 
Q 1472 3097 1187 3025 
Q 903 2953 641 2809 
L 641 3341 
Q 956 3463 1253 3523 
Q 1550 3584 1831 3584 
Q 2591 3584 2966 3190 
Q 3341 2797 3341 1997 
z
" transform="scale(0.015625)"/>
       <path id="DejaVuSans-75" d="M 544 1381 
L 544 3500 
L 1119 3500 
L 1119 1403 
Q 1119 906 1312 657 
Q 1506 409 1894 409 
Q 2359 409 2629 706 
Q 2900 1003 2900 1516 
L 2900 3500 
L 3475 3500 
L 3475 0 
L 2900 0 
L 2900 538 
Q 2691 219 2414 64 
Q 2138 -91 1772 -91 
Q 1169 -91 856 284 
Q 544 659 544 1381 
z
M 1991 3584 
L 1991 3584 
z
" transform="scale(0.015625)"/>
      </defs>
      <use xlink:href="#DejaVuSans-41"/>
      <use xlink:href="#DejaVuSans-6d" transform="translate(68.408203 0)"/>
      <use xlink:href="#DejaVuSans-70" transform="translate(165.820312 0)"/>
      <use xlink:href="#DejaVuSans-69" transform="translate(229.296875 0)"/>
      <use xlink:href="#DejaVuSans-65" transform="translate(257.080078 0)"/>
      <use xlink:href="#DejaVuSans-7a" transform="translate(318.603516 0)"/>
      <use xlink:href="#DejaVuSans-7a" transform="translate(371.09375 0)"/>
      <use xlink:href="#DejaVuSans-61" transform="translate(423.583984 0)"/>
      <use xlink:href="#DejaVuSans-20" transform="translate(484.863281 0)"/>
      <use xlink:href="#DejaVuSans-28" transform="translate(516.650391 0)"/>
      <use xlink:href="#DejaVuSans-61" transform="translate(555.664062 0)"/>
      <use xlink:href="#DejaVuSans-2e" transform="translate(616.943359 0)"/>
      <use xlink:href="#DejaVuSans-75" transform="translate(648.730469 0)"/>
      <use xlink:href="#DejaVuSans-2e" transform="translate(712.109375 0)"/>
      <use xlink:href="#DejaVuSans-29" transform="translate(743.896484 0)"/>
     </g>
    </g>
   </g>
   <g id="line2d_29">
    <path d="M 56.09 71.709911 
L 57.66217 49.325647 
L 59.23434 53.39034 
L 60.80651 100.946775 
L 62.37868 115.296333 
L 63.95085 113.558924 
L 65.52302 107.871379 
L 67.09519 101.395321 
L 68.66736 136.537631 
L 70.23953 155.214791 
L 71.8117 152.988213 
L 73.38387 121.336389 
L 74.95604 94.444287 
L 76.52821 70.525219 
L 78.10038 91.787252 
L 79.67255 121.878535 
L 81.24472 148.941961 
L 82.81689 173.010039 
L 84.38906 161.121486 
L 85.96123 154.192714 
L 87.5334 174.99642 
L 89.10557 208.486549 
L 90.67774 204.446703 
L 92.24991 177.480475 
L 93.82208 127.201954 
L 95.39425 83.334422 
L 96.96642 87.776631 
L 98.53859 80.615241 
L 100.11076 115.269027 
L 101.68293 130.567983 
L 103.2551 109.634071 
L 104.82727 106.160936 
L 106.39944 103.263775 
L 107.97161 129.968025 
L 109.54378 139.156958 
L 111.11595 134.834021 
L 112.68812 92.75458 
L 114.26029 76.941194 
L 115.83246 59.614778 
L 117.40463 46.785153 
L 118.9768 91.882939 
L 120.54897 117.413893 
L 122.12114 122.287547 
L 123.69331 105.003754 
L 125.26548 114.233273 
L 126.83765 132.464371 
L 129.98199 163.559639 
L 131.55416 156.921274 
L 134.6985 66.396816 
L 136.27067 46.630615 
L 137.84284 92.598922 
L 139.41501 111.152601 
L 140.98718 133.842221 
L 142.55935 124.68393 
L 144.13152 128.283961 
L 145.70369 138.700144 
L 147.27586 174.016613 
L 148.84803 198.258793 
L 150.4202 204.890088 
L 151.99237 176.133703 
L 153.56454 136.693285 
L 155.13671 109.378606 
L 156.70888 110.474295 
L 158.28105 136.767866 
L 159.85322 178.720101 
L 161.42539 197.037483 
L 162.99756 166.275785 
L 164.56973 161.053148 
L 166.1419 190.112766 
L 167.71407 204.908872 
L 169.28624 204.691903 
L 170.85841 177.743627 
L 172.43058 139.119954 
L 174.00275 88.335186 
L 175.57492 79.517865 
L 177.14709 87.514707 
L 178.71926 121.249106 
L 180.29143 132.70413 
L 181.8636 126.810988 
L 183.43577 116.848121 
L 185.00794 108.466866 
L 188.15228 169.409798 
L 189.72445 165.17138 
L 191.29662 142.170313 
L 192.86879 94.474419 
L 194.44096 77.73412 
L 196.01313 82.609622 
L 197.5853 128.520152 
L 199.15747 162.951965 
L 200.72964 161.64273 
L 202.30181 180.083569 
L 203.87398 166.76584 
L 205.44615 172.73613 
L 207.01832 204.052966 
L 208.59049 222.512902 
L 210.16266 208.976447 
L 213.307 130.088791 
L 214.87917 115.333909 
L 216.45134 134.266761 
L 218.02351 148.927378 
L 219.59568 182.908944 
L 221.16785 171.844841 
L 222.74002 154.510469 
L 224.31219 148.675725 
L 225.88436 194.184821 
L 227.45653 187.350285 
L 229.0287 194.525418 
L 230.60087 169.474042 
L 232.17304 132.593239 
L 233.74521 78.321306 
L 235.31738 87.244882 
L 236.88955 136.495982 
L 238.46172 161.416878 
L 240.03389 168.070909 
L 241.60606 153.826898 
L 243.17823 146.480226 
L 244.7504 154.736329 
L 247.89474 189.844019 
L 249.46691 152.59541 
L 251.03908 87.76646 
L 252.61125 47.113887 
L 254.18342 36.841818 
L 255.75559 59.617454 
L 257.32776 88.013045 
L 258.89993 126.147488 
L 260.4721 106.659237 
L 262.04427 94.282557 
L 263.61644 114.025736 
L 265.18861 136.395538 
L 266.76078 156.451608 
L 268.33295 147.167647 
L 269.90512 123.942195 
L 271.47729 97.337092 
L 273.04946 82.380371 
L 274.62163 69.231774 
L 276.1938 128.797018 
L 277.76597 148.284661 
L 279.33814 166.348039 
L 280.91031 162.547309 
L 282.48248 153.737655 
L 284.05465 175.94608 
L 285.62682 190.596555 
L 287.19899 212.390702 
L 288.77116 182.182819 
L 290.34333 122.943361 
L 291.9155 92.787271 
L 293.48767 83.447264 
L 295.05984 93.907291 
L 296.63201 118.977863 
L 298.20418 134.314416 
L 299.77635 120.305176 
L 301.34852 91.280088 
L 302.92069 108.346777 
L 304.49286 120.277375 
L 306.06503 143.505132 
L 307.6372 146.656293 
L 309.20937 106.073523 
L 310.78154 60.976632 
L 312.35371 44.983347 
L 313.92588 48.547351 
L 315.49805 83.981234 
L 317.07022 112.026146 
L 318.64239 131.606832 
L 320.21456 110.142011 
L 321.78673 126.475896 
L 323.3589 135.160515 
L 326.50324 179.93576 
L 328.07541 148.280436 
L 329.64758 114.103577 
L 331.21975 66.24239 
L 332.79192 61.99581 
L 334.36409 80.63618 
L 335.93626 122.163861 
L 337.50843 154.646653 
L 339.0806 135.873575 
L 340.65277 132.603612 
L 342.22494 125.413927 
L 343.79711 175.534993 
L 345.36928 204.524939 
L 346.94145 208.521946 
L 348.51362 168.699169 
L 350.08579 117.311238 
L 351.65796 104.540744 
L 353.23013 119.7281 
L 354.8023 149.945361 
L 356.37447 186.774698 
L 357.94664 192.666661 
L 359.51881 172.015239 
L 361.09098 170.069688 
L 362.66315 170.402641 
L 364.23532 210.233934 
L 365.80749 206.298936 
L 367.37966 177.757064 
L 368.95183 120.399836 
L 370.524 84.291794 
L 372.09617 73.869685 
L 373.66834 80.641509 
L 375.24051 126.196561 
L 376.81268 121.582295 
L 378.38485 127.242688 
L 379.95702 105.939206 
L 381.52919 114.52987 
L 383.10136 151.445028 
L 384.67353 170.174667 
L 386.2457 158.004287 
L 387.81787 127.176143 
L 389.39004 92.462215 
L 390.96221 91.873936 
L 392.53438 92.439589 
L 394.10655 131.138753 
L 395.67872 164.705205 
L 397.25089 182.685469 
L 398.82306 167.405164 
L 400.39523 160.052515 
L 401.9674 186.588265 
L 403.53957 210.114161 
L 405.11174 223.422211 
L 406.68391 200.754975 
L 408.25608 169.476728 
L 409.82825 131.972281 
L 411.40042 99.917354 
L 412.97259 131.883387 
L 416.11693 189.101638 
L 417.6891 177.224369 
L 419.26127 157.791898 
L 420.83344 152.170871 
L 422.40561 186.723624 
L 423.97778 199.695643 
L 425.54995 192.797007 
L 427.12212 164.479949 
L 428.69429 123.002817 
L 430.26646 90.02123 
L 431.83863 94.48854 
L 433.4108 140.495644 
L 434.98297 147.925584 
L 436.55514 152.992571 
L 438.12731 145.450055 
L 439.69948 142.676212 
L 441.27165 165.22822 
L 442.84382 174.133301 
L 444.41599 179.468875 
L 445.98816 151.918611 
L 447.56033 111.385981 
L 450.70467 51.862295 
L 452.27684 65.445113 
L 453.84901 94.502772 
L 455.42118 115.239899 
L 456.99335 99.241595 
L 458.56552 112.988348 
L 460.13769 115.778224 
L 461.70986 146.582115 
L 463.28203 152.852586 
L 464.8542 169.154438 
L 466.42637 133.39184 
L 467.99854 94.99979 
L 469.57071 64.000679 
L 471.14288 78.891278 
L 472.71505 129.589328 
L 474.28722 161.884217 
L 475.85939 185.222524 
L 477.43156 164.434189 
L 479.00373 164.583732 
L 480.5759 170.553313 
L 482.14807 196.829847 
L 483.72024 194.261984 
L 485.29241 175.531088 
L 486.86458 136.905115 
L 488.43675 85.567432 
L 490.00892 67.151624 
L 493.15326 117.228771 
L 494.72543 125.196973 
L 496.2976 114.088584 
L 497.86977 104.383978 
L 501.01411 120.8123 
L 502.58628 144.635935 
L 504.15845 151.054415 
L 505.73062 112.301163 
L 507.30279 67.905578 
L 508.87496 39.396951 
L 510.44713 68.484109 
L 512.0193 89.528029 
L 513.59147 126.973737 
L 515.16364 124.982278 
L 516.73581 106.630993 
L 518.30798 126.499527 
L 519.88015 142.64758 
L 521.45232 140.184492 
L 523.02449 169.311088 
L 524.59666 144.317433 
L 526.16883 103.897319 
L 527.741 59.12256 
L 529.31317 68.109493 
L 530.88534 80.754644 
L 532.45751 129.130182 
L 534.02968 127.166964 
L 535.60185 143.973433 
L 537.17402 143.634917 
L 538.74619 133.936536 
L 540.31836 174.738559 
L 541.89053 188.058816 
L 543.4627 183.497078 
L 545.03487 161.409722 
L 546.60704 116.876054 
L 548.17921 101.013578 
L 549.75138 101.871218 
L 552.89572 181.725696 
L 554.46789 184.063924 
L 556.04006 181.424641 
L 557.61223 168.355778 
L 559.1844 185.613024 
L 560.75657 194.398358 
L 562.32874 195.182744 
L 563.90091 183.621106 
L 565.47308 126.602232 
L 567.04525 95.863348 
L 568.61742 73.400405 
L 570.18959 70.993244 
L 571.76176 121.718144 
L 573.33393 142.312132 
L 574.9061 122.164453 
L 576.47827 123.163222 
L 578.05044 123.193565 
L 579.62261 143.081917 
L 581.19478 166.425694 
L 582.76695 158.532829 
L 584.33912 144.101935 
L 585.91129 101.355159 
L 587.48346 70.93636 
L 589.05563 89.748779 
L 590.6278 126.624426 
L 592.19997 154.408686 
L 593.77214 199.637481 
L 595.34431 176.302411 
L 596.91648 168.74669 
L 598.48865 184.79026 
L 600.06082 211.909176 
L 601.63299 236.078182 
L 603.20516 201.751023 
L 604.77733 151.367562 
L 606.3495 127.396163 
L 607.92167 124.888349 
L 609.49384 132.145432 
L 612.63818 170.589892 
L 614.21035 168.955661 
L 615.78252 161.999912 
L 617.35469 157.713743 
L 618.92686 186.815542 
L 620.49903 194.066788 
L 622.0712 193.195791 
L 623.64337 173.691656 
L 625.21554 124.022503 
L 626.78771 99.996333 
L 628.35988 105.262252 
L 629.93205 140.333133 
L 631.50422 151.830262 
L 633.07639 164.938914 
L 634.64856 159.353777 
L 636.22073 156.143552 
L 637.7929 156.526773 
L 639.36507 188.725386 
L 640.93724 192.148459 
L 642.50941 172.381875 
L 644.08158 113.982291 
L 645.65375 60.305924 
L 647.22592 45.194266 
L 648.79809 56.62041 
L 650.37026 91.84 
L 651.94243 122.653846 
L 653.5146 111.826642 
L 655.08677 94.474734 
L 656.65894 108.124355 
L 658.23111 125.111932 
L 659.80328 151.643651 
L 661.37545 167.278092 
L 662.94762 133.414955 
L 664.51979 93.840144 
L 666.09196 72.737229 
L 667.66413 85.443873 
L 669.2363 126.094836 
L 670.80847 163.811308 
L 672.38064 182.124933 
L 675.52498 160.342702 
L 677.09715 163.483548 
L 678.66932 196.454782 
L 680.24149 200.330731 
L 681.81366 185.95549 
L 684.958 87.08195 
L 686.53017 77.699798 
L 688.10234 94.445345 
L 689.67451 120.59634 
L 691.24668 114.525468 
L 692.81885 113.024164 
L 694.39102 107.421035 
L 695.96319 96.388383 
L 697.53536 115.963354 
L 699.10753 141.465206 
L 700.6797 138.774581 
L 702.25187 121.175085 
L 703.82404 63.196095 
L 705.39621 37.2063 
L 706.96838 45.851845 
L 708.54055 79.79933 
L 710.11272 117.708451 
L 711.68489 123.682124 
L 713.25706 120.808148 
L 714.82923 109.721393 
L 717.97357 153.297269 
L 719.54574 168.418513 
L 721.11791 150.070131 
L 722.69008 105.98623 
L 724.26225 67.935615 
L 725.83442 58.588813 
L 727.40659 76.244801 
L 730.55093 150.11812 
L 732.1231 132.120675 
L 733.69527 139.054199 
L 735.26744 138.47806 
L 736.83961 165.803425 
L 738.41178 171.590081 
L 739.98395 193.735719 
L 741.55612 170.486665 
L 743.12829 126.095007 
L 744.70046 106.477175 
L 746.27263 118.332548 
L 747.8448 149.794278 
L 749.41697 169.690719 
L 750.98914 183.077762 
L 752.56131 173.483057 
L 754.13348 179.115327 
L 755.70565 191.435116 
L 757.27782 206.225446 
L 758.84999 214.646206 
L 760.42216 182.535132 
L 761.99433 128.601582 
L 763.5665 90.002385 
L 765.13867 84.633314 
L 766.71084 94.415289 
L 768.28301 121.105028 
L 769.85518 134.585923 
L 771.42735 123.52684 
L 772.99952 127.280638 
L 774.57169 116.591574 
L 777.71603 165.981117 
L 779.2882 178.580052 
L 782.43254 89.469115 
L 784.00471 70.40502 
L 785.57688 101.520568 
L 787.14905 115.676929 
L 788.72122 155.129478 
L 790.29339 185.321908 
L 791.86556 172.436225 
L 793.43773 164.969599 
L 795.0099 191.15088 
L 796.58207 213.309851 
L 798.15424 210.000893 
L 799.72641 214.667749 
L 801.29858 161.565755 
L 802.87075 126.748106 
L 804.44292 108.990677 
L 806.01509 123.142681 
L 807.58726 161.191021 
L 809.15943 173.56394 
L 810.7316 169.146636 
L 812.30377 156.242483 
L 813.87594 159.07201 
L 815.44811 200.968131 
L 817.02028 214.198374 
L 818.59245 200.674764 
L 820.16462 171.249476 
L 821.73679 122.915291 
L 823.30896 100.370267 
L 824.88113 94.006211 
L 826.4533 127.79236 
L 828.02547 153.072751 
L 829.59764 162.779 
L 831.16981 138.143129 
L 832.74198 127.132143 
L 835.88632 171.611478 
L 837.45849 182.986218 
L 839.03066 143.916315 
L 840.60283 115.14923 
L 840.60283 115.14923 
" clip-path="url(#p3f16ec8636)" style="fill: none; stroke: #800080; stroke-width: 1.5; stroke-linecap: square"/>
   </g>
   <g id="patch_3">
    <path d="M 56.09 246.04 
L 56.09 26.88 
" style="fill: none; stroke: #000000; stroke-width: 0.8; stroke-linejoin: miter; stroke-linecap: square"/>
   </g>
   <g id="patch_4">
    <path d="M 842.175 246.04 
L 842.175 26.88 
" style="fill: none; stroke: #000000; stroke-width: 0.8; stroke-linejoin: miter; stroke-linecap: square"/>
   </g>
   <g id="patch_5">
    <path d="M 56.09 246.04 
L 842.175 246.04 
" style="fill: none; stroke: #000000; stroke-width: 0.8; stroke-linejoin: miter; stroke-linecap: square"/>
   </g>
   <g id="patch_6">
    <path d="M 56.09 26.88 
L 842.175 26.88 
" style="fill: none; stroke: #000000; stroke-width: 0.8; stroke-linejoin: miter; stroke-linecap: square"/>
   </g>
   <g id="text_17">
    <g id="patch_7">
     <path d="M 703.638925 87.082325 
L 826.4533 87.082325 
Q 830.0533 87.082325 830.0533 83.482325 
L 830.0533 31.2632 
Q 830.0533 27.6632 826.4533 27.6632 
L 703.638925 27.6632 
Q 700.038925 27.6632 700.038925 31.2632 
L 700.038925 83.482325 
Q 700.038925 87.082325 703.638925 87.082325 
z
" style="fill: #ffffff; opacity: 0.85; stroke: #808080; stroke-linejoin: miter"/>
    </g>
    <!-- Theta/Beta: 0.43 -->
    <g transform="translate(710.8633 40.445075) scale(0.12 -0.12)">
     <defs>
      <path id="DejaVuSansMono-54" d="M 147 4666 
L 3706 4666 
L 3706 4134 
L 2247 4134 
L 2247 0 
L 1613 0 
L 1613 4134 
L 147 4134 
L 147 4666 
z
" transform="scale(0.015625)"/>
      <path id="DejaVuSansMono-68" d="M 3284 2169 
L 3284 0 
L 2706 0 
L 2706 2169 
Q 2706 2641 2540 2862 
Q 2375 3084 2022 3084 
Q 1619 3084 1401 2798 
Q 1184 2513 1184 1978 
L 1184 0 
L 609 0 
L 609 4863 
L 1184 4863 
L 1184 2975 
Q 1338 3275 1600 3429 
Q 1863 3584 2222 3584 
Q 2756 3584 3020 3232 
Q 3284 2881 3284 2169 
z
" transform="scale(0.015625)"/>
      <path id="DejaVuSansMono-65" d="M 3475 1894 
L 3475 1613 
L 984 1613 
L 984 1594 
Q 984 1022 1282 709 
Q 1581 397 2125 397 
Q 2400 397 2700 484 
Q 3000 572 3341 750 
L 3341 178 
Q 3013 44 2708 -23 
Q 2403 -91 2119 -91 
Q 1303 -91 843 398 
Q 384 888 384 1747 
Q 384 2584 834 3084 
Q 1284 3584 2034 3584 
Q 2703 3584 3089 3131 
Q 3475 2678 3475 1894 
z
M 2900 2063 
Q 2888 2569 2661 2833 
Q 2434 3097 2009 3097 
Q 1594 3097 1325 2822 
Q 1056 2547 1006 2059 
L 2900 2063 
z
" transform="scale(0.015625)"/>
      <path id="DejaVuSansMono-74" d="M 1919 4494 
L 1919 3500 
L 3225 3500 
L 3225 3053 
L 1919 3053 
L 1919 1153 
Q 1919 766 2066 612 
Q 2213 459 2578 459 
L 3225 459 
L 3225 0 
L 2522 0 
Q 1875 0 1609 259 
Q 1344 519 1344 1153 
L 1344 3053 
L 409 3053 
L 409 3500 
L 1344 3500 
L 1344 4494 
L 1919 4494 
z
" transform="scale(0.015625)"/>
      <path id="DejaVuSansMono-61" d="M 2194 1759 
L 2003 1759 
Q 1500 1759 1245 1582 
Q 991 1406 991 1056 
Q 991 741 1181 566 
Q 1372 391 1709 391 
Q 2184 391 2456 720 
Q 2728 1050 2731 1631 
L 2731 1759 
L 2194 1759 
z
M 3309 1997 
L 3309 0 
L 2731 0 
L 2731 519 
Q 2547 206 2267 57 
Q 1988 -91 1588 -91 
Q 1053 -91 734 211 
Q 416 513 416 1019 
Q 416 1603 808 1906 
Q 1200 2209 1959 2209 
L 2731 2209 
L 2731 2300 
Q 2728 2719 2518 2908 
Q 2309 3097 1850 3097 
Q 1556 3097 1256 3012 
Q 956 2928 672 2766 
L 672 3341 
Q 991 3463 1283 3523 
Q 1575 3584 1850 3584 
Q 2284 3584 2592 3456 
Q 2900 3328 3091 3072 
Q 3209 2916 3259 2686 
Q 3309 2456 3309 1997 
z
" transform="scale(0.015625)"/>
      <path id="DejaVuSansMono-2f" d="M 2778 4666 
L 3372 4666 
L 916 -594 
L 319 -594 
L 2778 4666 
z
" transform="scale(0.015625)"/>
      <path id="DejaVuSansMono-42" d="M 1153 2228 
L 1153 519 
L 1900 519 
Q 2450 519 2684 711 
Q 2919 903 2919 1344 
Q 2919 1800 2672 2014 
Q 2425 2228 1900 2228 
L 1153 2228 
z
M 1153 4147 
L 1153 2741 
L 1888 2741 
Q 2344 2741 2548 2916 
Q 2753 3091 2753 3481 
Q 2753 3834 2551 3990 
Q 2350 4147 1888 4147 
L 1153 4147 
z
M 519 4666 
L 1900 4666 
Q 2616 4666 3003 4356 
Q 3391 4047 3391 3481 
Q 3391 3053 3186 2806 
Q 2981 2559 2572 2497 
Q 3031 2428 3292 2104 
Q 3553 1781 3553 1281 
Q 3553 647 3137 323 
Q 2722 0 1900 0 
L 519 0 
L 519 4666 
z
" transform="scale(0.015625)"/>
      <path id="DejaVuSansMono-3a" d="M 1528 3322 
L 2316 3322 
L 2316 2375 
L 1528 2375 
L 1528 3322 
z
M 1528 953 
L 2316 953 
L 2316 0 
L 1528 0 
L 1528 953 
z
" transform="scale(0.015625)"/>
      <path id="DejaVuSansMono-20" transform="scale(0.015625)"/>
      <path id="DejaVuSansMono-30" d="M 1509 2344 
Q 1509 2516 1629 2641 
Q 1750 2766 1919 2766 
Q 2094 2766 2219 2641 
Q 2344 2516 2344 2344 
Q 2344 2169 2220 2047 
Q 2097 1925 1919 1925 
Q 1744 1925 1626 2044 
Q 1509 2163 1509 2344 
z
M 1925 4250 
Q 1484 4250 1267 3775 
Q 1050 3300 1050 2328 
Q 1050 1359 1267 884 
Q 1484 409 1925 409 
Q 2369 409 2586 884 
Q 2803 1359 2803 2328 
Q 2803 3300 2586 3775 
Q 2369 4250 1925 4250 
z
M 1925 4750 
Q 2672 4750 3055 4137 
Q 3438 3525 3438 2328 
Q 3438 1134 3055 521 
Q 2672 -91 1925 -91 
Q 1178 -91 797 521 
Q 416 1134 416 2328 
Q 416 3525 797 4137 
Q 1178 4750 1925 4750 
z
" transform="scale(0.015625)"/>
      <path id="DejaVuSansMono-2e" d="M 1528 953 
L 2316 953 
L 2316 0 
L 1528 0 
L 1528 953 
z
" transform="scale(0.015625)"/>
      <path id="DejaVuSansMono-34" d="M 2297 4091 
L 825 1625 
L 2297 1625 
L 2297 4091 
z
M 2194 4666 
L 2925 4666 
L 2925 1625 
L 3547 1625 
L 3547 1113 
L 2925 1113 
L 2925 0 
L 2297 0 
L 2297 1113 
L 319 1113 
L 319 1709 
L 2194 4666 
z
" transform="scale(0.015625)"/>
      <path id="DejaVuSansMono-33" d="M 2425 2497 
Q 2884 2375 3128 2064 
Q 3372 1753 3372 1288 
Q 3372 644 2939 276 
Q 2506 -91 1741 -91 
Q 1419 -91 1084 -31 
Q 750 28 428 141 
L 428 769 
Q 747 603 1056 522 
Q 1366 441 1672 441 
Q 2191 441 2469 675 
Q 2747 909 2747 1350 
Q 2747 1756 2469 1995 
Q 2191 2234 1716 2234 
L 1234 2234 
L 1234 2753 
L 1716 2753 
Q 2150 2753 2394 2943 
Q 2638 3134 2638 3475 
Q 2638 3834 2411 4026 
Q 2184 4219 1766 4219 
Q 1488 4219 1191 4156 
Q 894 4094 569 3969 
L 569 4550 
Q 947 4650 1242 4700 
Q 1538 4750 1766 4750 
Q 2447 4750 2855 4408 
Q 3263 4066 3263 3500 
Q 3263 3116 3048 2859 
Q 2834 2603 2425 2497 
z
" transform="scale(0.015625)"/>
     </defs>
     <use xlink:href="#DejaVuSansMono-54"/>
     <use xlink:href="#DejaVuSansMono-68" transform="translate(60.205078 0)"/>
     <use xlink:href="#DejaVuSansMono-65" transform="translate(120.410156 0)"/>
     <use xlink:href="#DejaVuSansMono-74" transform="translate(180.615234 0)"/>
     <use xlink:href="#DejaVuSansMono-61" transform="translate(240.820312 0)"/>
     <use xlink:href="#DejaVuSansMono-2f" transform="translate(301.025391 0)"/>
     <use xlink:href="#DejaVuSansMono-42" transform="translate(361.230469 0)"/>
     <use xlink:href="#DejaVuSansMono-65" transform="translate(421.435547 0)"/>
     <use xlink:href="#DejaVuSansMono-74" transform="translate(481.640625 0)"/>
     <use xlink:href="#DejaVuSansMono-61" transform="translate(541.845703 0)"/>
     <use xlink:href="#DejaVuSansMono-3a" transform="translate(602.050781 0)"/>
     <use xlink:href="#DejaVuSansMono-20" transform="translate(662.255859 0)"/>
     <use xlink:href="#DejaVuSansMono-30" transform="translate(722.460938 0)"/>
     <use xlink:href="#DejaVuSansMono-2e" transform="translate(782.666016 0)"/>
     <use xlink:href="#DejaVuSansMono-34" transform="translate(842.871094 0)"/>
     <use xlink:href="#DejaVuSansMono-33" transform="translate(903.076172 0)"/>
    </g>
    <!-- Alpha/Beta: 0.17 -->
    <g transform="translate(710.8633 53.95895) scale(0.12 -0.12)">
     <defs>
      <path id="DejaVuSansMono-41" d="M 1925 4109 
L 1259 1722 
L 2591 1722 
L 1925 4109 
z
M 1544 4666 
L 2309 4666 
L 3738 0 
L 3084 0 
L 2741 1216 
L 1106 1216 
L 769 0 
L 116 0 
L 1544 4666 
z
" transform="scale(0.015625)"/>
      <path id="DejaVuSansMono-6c" d="M 1997 1269 
Q 1997 881 2139 684 
Q 2281 488 2559 488 
L 3231 488 
L 3231 0 
L 2503 0 
Q 1988 0 1705 331 
Q 1422 663 1422 1269 
L 1422 4447 
L 500 4447 
L 500 4897 
L 1997 4897 
L 1997 1269 
z
" transform="scale(0.015625)"/>
      <path id="DejaVuSansMono-70" d="M 1172 441 
L 1172 -1331 
L 594 -1331 
L 594 3500 
L 1172 3500 
L 1172 3053 
Q 1316 3313 1555 3448 
Q 1794 3584 2106 3584 
Q 2741 3584 3102 3093 
Q 3463 2603 3463 1734 
Q 3463 881 3100 395 
Q 2738 -91 2106 -91 
Q 1788 -91 1548 45 
Q 1309 181 1172 441 
z
M 2859 1747 
Q 2859 2416 2648 2756 
Q 2438 3097 2022 3097 
Q 1603 3097 1387 2755 
Q 1172 2413 1172 1747 
Q 1172 1084 1387 740 
Q 1603 397 2022 397 
Q 2438 397 2648 737 
Q 2859 1078 2859 1747 
z
" transform="scale(0.015625)"/>
      <path id="DejaVuSansMono-31" d="M 844 531 
L 1825 531 
L 1825 4097 
L 769 3859 
L 769 4434 
L 1819 4666 
L 2450 4666 
L 2450 531 
L 3419 531 
L 3419 0 
L 844 0 
L 844 531 
z
" transform="scale(0.015625)"/>
      <path id="DejaVuSansMono-37" d="M 434 4666 
L 3372 4666 
L 3372 4397 
L 1703 0 
L 1044 0 
L 2669 4134 
L 434 4134 
L 434 4666 
z
" transform="scale(0.015625)"/>
     </defs>
     <use xlink:href="#DejaVuSansMono-41"/>
     <use xlink:href="#DejaVuSansMono-6c" transform="translate(60.205078 0)"/>
     <use xlink:href="#DejaVuSansMono-70" transform="translate(120.410156 0)"/>
     <use xlink:href="#DejaVuSansMono-68" transform="translate(180.615234 0)"/>
     <use xlink:href="#DejaVuSansMono-61" transform="translate(240.820312 0)"/>
     <use xlink:href="#DejaVuSansMono-2f" transform="translate(301.025391 0)"/>
     <use xlink:href="#DejaVuSansMono-42" transform="translate(361.230469 0)"/>
     <use xlink:href="#DejaVuSansMono-65" transform="translate(421.435547 0)"/>
     <use xlink:href="#DejaVuSansMono-74" transform="translate(481.640625 0)"/>
     <use xlink:href="#DejaVuSansMono-61" transform="translate(541.845703 0)"/>
     <use xlink:href="#DejaVuSansMono-3a" transform="translate(602.050781 0)"/>
     <use xlink:href="#DejaVuSansMono-20" transform="translate(662.255859 0)"/>
     <use xlink:href="#DejaVuSansMono-30" transform="translate(722.460938 0)"/>
     <use xlink:href="#DejaVuSansMono-2e" transform="translate(782.666016 0)"/>
     <use xlink:href="#DejaVuSansMono-31" transform="translate(842.871094 0)"/>
     <use xlink:href="#DejaVuSansMono-37" transform="translate(903.076172 0)"/>
    </g>
    <!-- Theta/Alpha: 2.56 -->
    <g transform="translate(703.638925 67.472825) scale(0.12 -0.12)">
     <defs>
      <path id="DejaVuSansMono-32" d="M 1166 531 
L 3309 531 
L 3309 0 
L 475 0 
L 475 531 
Q 1059 1147 1496 1619 
Q 1934 2091 2100 2284 
Q 2413 2666 2522 2902 
Q 2631 3138 2631 3384 
Q 2631 3775 2401 3997 
Q 2172 4219 1772 4219 
Q 1488 4219 1175 4116 
Q 863 4013 513 3803 
L 513 4441 
Q 834 4594 1145 4672 
Q 1456 4750 1759 4750 
Q 2444 4750 2861 4386 
Q 3278 4022 3278 3431 
Q 3278 3131 3139 2831 
Q 3000 2531 2688 2169 
Q 2513 1966 2180 1606 
Q 1847 1247 1166 531 
z
" transform="scale(0.015625)"/>
      <path id="DejaVuSansMono-35" d="M 647 4666 
L 3009 4666 
L 3009 4134 
L 1222 4134 
L 1222 2988 
Q 1356 3038 1492 3061 
Q 1628 3084 1766 3084 
Q 2491 3084 2916 2656 
Q 3341 2228 3341 1497 
Q 3341 759 2895 334 
Q 2450 -91 1678 -91 
Q 1306 -91 998 -41 
Q 691 9 447 109 
L 447 750 
Q 734 594 1025 517 
Q 1316 441 1619 441 
Q 2141 441 2423 716 
Q 2706 991 2706 1497 
Q 2706 1997 2414 2275 
Q 2122 2553 1600 2553 
Q 1347 2553 1106 2495 
Q 866 2438 647 2322 
L 647 4666 
z
" transform="scale(0.015625)"/>
      <path id="DejaVuSansMono-36" d="M 3097 4563 
L 3097 3981 
Q 2900 4097 2678 4158 
Q 2456 4219 2216 4219 
Q 1616 4219 1306 3767 
Q 997 3316 997 2438 
Q 1147 2750 1412 2917 
Q 1678 3084 2022 3084 
Q 2697 3084 3067 2670 
Q 3438 2256 3438 1497 
Q 3438 741 3056 325 
Q 2675 -91 1984 -91 
Q 1172 -91 794 492 
Q 416 1075 416 2328 
Q 416 3509 870 4129 
Q 1325 4750 2188 4750 
Q 2419 4750 2650 4701 
Q 2881 4653 3097 4563 
z
M 1972 2591 
Q 1569 2591 1337 2300 
Q 1106 2009 1106 1497 
Q 1106 984 1337 693 
Q 1569 403 1972 403 
Q 2391 403 2603 679 
Q 2816 956 2816 1497 
Q 2816 2041 2603 2316 
Q 2391 2591 1972 2591 
z
" transform="scale(0.015625)"/>
     </defs>
     <use xlink:href="#DejaVuSansMono-54"/>
     <use xlink:href="#DejaVuSansMono-68" transform="translate(60.205078 0)"/>
     <use xlink:href="#DejaVuSansMono-65" transform="translate(120.410156 0)"/>
     <use xlink:href="#DejaVuSansMono-74" transform="translate(180.615234 0)"/>
     <use xlink:href="#DejaVuSansMono-61" transform="translate(240.820312 0)"/>
     <use xlink:href="#DejaVuSansMono-2f" transform="translate(301.025391 0)"/>
     <use xlink:href="#DejaVuSansMono-41" transform="translate(361.230469 0)"/>
     <use xlink:href="#DejaVuSansMono-6c" transform="translate(421.435547 0)"/>
     <use xlink:href="#DejaVuSansMono-70" transform="translate(481.640625 0)"/>
     <use xlink:href="#DejaVuSansMono-68" transform="translate(541.845703 0)"/>
     <use xlink:href="#DejaVuSansMono-61" transform="translate(602.050781 0)"/>
     <use xlink:href="#DejaVuSansMono-3a" transform="translate(662.255859 0)"/>
     <use xlink:href="#DejaVuSansMono-20" transform="translate(722.460938 0)"/>
     <use xlink:href="#DejaVuSansMono-32" transform="translate(782.666016 0)"/>
     <use xlink:href="#DejaVuSansMono-2e" transform="translate(842.871094 0)"/>
     <use xlink:href="#DejaVuSansMono-35" transform="translate(903.076172 0)"/>
     <use xlink:href="#DejaVuSansMono-36" transform="translate(963.28125 0)"/>
    </g>
    <!-- Delta/Alpha: 1.44 -->
    <g transform="translate(703.638925 80.9867) scale(0.12 -0.12)">
     <defs>
      <path id="DejaVuSansMono-44" d="M 1363 519 
Q 2159 519 2475 911 
Q 2791 1303 2791 2328 
Q 2791 3363 2477 3755 
Q 2163 4147 1363 4147 
L 1063 4147 
L 1063 519 
L 1363 519 
z
M 1375 4666 
Q 2444 4666 2950 4097 
Q 3456 3528 3456 2328 
Q 3456 1134 2950 567 
Q 2444 0 1375 0 
L 428 0 
L 428 4666 
L 1375 4666 
z
" transform="scale(0.015625)"/>
     </defs>
     <use xlink:href="#DejaVuSansMono-44"/>
     <use xlink:href="#DejaVuSansMono-65" transform="translate(60.205078 0)"/>
     <use xlink:href="#DejaVuSansMono-6c" transform="translate(120.410156 0)"/>
     <use xlink:href="#DejaVuSansMono-74" transform="translate(180.615234 0)"/>
     <use xlink:href="#DejaVuSansMono-61" transform="translate(240.820312 0)"/>
     <use xlink:href="#DejaVuSansMono-2f" transform="translate(301.025391 0)"/>
     <use xlink:href="#DejaVuSansMono-41" transform="translate(361.230469 0)"/>
     <use xlink:href="#DejaVuSansMono-6c" transform="translate(421.435547 0)"/>
     <use xlink:href="#DejaVuSansMono-70" transform="translate(481.640625 0)"/>
     <use xlink:href="#DejaVuSansMono-68" transform="translate(541.845703 0)"/>
     <use xlink:href="#DejaVuSansMono-61" transform="translate(602.050781 0)"/>
     <use xlink:href="#DejaVuSansMono-3a" transform="translate(662.255859 0)"/>
     <use xlink:href="#DejaVuSansMono-20" transform="translate(722.460938 0)"/>
     <use xlink:href="#DejaVuSansMono-31" transform="translate(782.666016 0)"/>
     <use xlink:href="#DejaVuSansMono-2e" transform="translate(842.871094 0)"/>
     <use xlink:href="#DejaVuSansMono-34" transform="translate(903.076172 0)"/>
     <use xlink:href="#DejaVuSansMono-34" transform="translate(963.28125 0)"/>
    </g>
   </g>
   <g id="text_18">
    <g id="patch_8">
     <path d="M 377.3683 112.22495 
L 826.4533 112.22495 
Q 830.0533 112.22495 830.0533 108.62495 
L 830.0533 97.0112 
Q 830.0533 93.4112 826.4533 93.4112 
L 377.3683 93.4112 
Q 373.7683 93.4112 373.7683 97.0112 
L 373.7683 108.62495 
Q 373.7683 112.22495 377.3683 112.22495 
z
" style="fill: #eef8fc; opacity: 0.92; stroke: #808080; stroke-linejoin: miter"/>
    </g>
    <!-- Stato di attivazione mentale intensa o stress (Theta/Beta ↓, Alpha/Beta ↓) -->
    <g transform="translate(377.3683 106.129325) scale(0.12 -0.12)">
     <defs>
      <path id="DejaVuSans-53" d="M 3425 4513 
L 3425 3897 
Q 3066 4069 2747 4153 
Q 2428 4238 2131 4238 
Q 1616 4238 1336 4038 
Q 1056 3838 1056 3469 
Q 1056 3159 1242 3001 
Q 1428 2844 1947 2747 
L 2328 2669 
Q 3034 2534 3370 2195 
Q 3706 1856 3706 1288 
Q 3706 609 3251 259 
Q 2797 -91 1919 -91 
Q 1588 -91 1214 -16 
Q 841 59 441 206 
L 441 856 
Q 825 641 1194 531 
Q 1563 422 1919 422 
Q 2459 422 2753 634 
Q 3047 847 3047 1241 
Q 3047 1584 2836 1778 
Q 2625 1972 2144 2069 
L 1759 2144 
Q 1053 2284 737 2584 
Q 422 2884 422 3419 
Q 422 4038 858 4394 
Q 1294 4750 2059 4750 
Q 2388 4750 2728 4690 
Q 3069 4631 3425 4513 
z
" transform="scale(0.015625)"/>
      <path id="DejaVuSans-74" d="M 1172 4494 
L 1172 3500 
L 2356 3500 
L 2356 3053 
L 1172 3053 
L 1172 1153 
Q 1172 725 1289 603 
Q 1406 481 1766 481 
L 2356 481 
L 2356 0 
L 1766 0 
Q 1100 0 847 248 
Q 594 497 594 1153 
L 594 3053 
L 172 3053 
L 172 3500 
L 594 3500 
L 594 4494 
L 1172 4494 
z
" transform="scale(0.015625)"/>
      <path id="DejaVuSans-64" d="M 2906 2969 
L 2906 4863 
L 3481 4863 
L 3481 0 
L 2906 0 
L 2906 525 
Q 2725 213 2448 61 
Q 2172 -91 1784 -91 
Q 1150 -91 751 415 
Q 353 922 353 1747 
Q 353 2572 751 3078 
Q 1150 3584 1784 3584 
Q 2172 3584 2448 3432 
Q 2725 3281 2906 2969 
z
M 947 1747 
Q 947 1113 1208 752 
Q 1469 391 1925 391 
Q 2381 391 2643 752 
Q 2906 1113 2906 1747 
Q 2906 2381 2643 2742 
Q 2381 3103 1925 3103 
Q 1469 3103 1208 2742 
Q 947 2381 947 1747 
z
" transform="scale(0.015625)"/>
      <path id="DejaVuSans-76" d="M 191 3500 
L 800 3500 
L 1894 563 
L 2988 3500 
L 3597 3500 
L 2284 0 
L 1503 0 
L 191 3500 
z
" transform="scale(0.015625)"/>
      <path id="DejaVuSans-6e" d="M 3513 2113 
L 3513 0 
L 2938 0 
L 2938 2094 
Q 2938 2591 2744 2837 
Q 2550 3084 2163 3084 
Q 1697 3084 1428 2787 
Q 1159 2491 1159 1978 
L 1159 0 
L 581 0 
L 581 3500 
L 1159 3500 
L 1159 2956 
Q 1366 3272 1645 3428 
Q 1925 3584 2291 3584 
Q 2894 3584 3203 3211 
Q 3513 2838 3513 2113 
z
" transform="scale(0.015625)"/>
      <path id="DejaVuSans-6c" d="M 603 4863 
L 1178 4863 
L 1178 0 
L 603 0 
L 603 4863 
z
" transform="scale(0.015625)"/>
      <path id="DejaVuSans-72" d="M 2631 2963 
Q 2534 3019 2420 3045 
Q 2306 3072 2169 3072 
Q 1681 3072 1420 2755 
Q 1159 2438 1159 1844 
L 1159 0 
L 581 0 
L 581 3500 
L 1159 3500 
L 1159 2956 
Q 1341 3275 1631 3429 
Q 1922 3584 2338 3584 
Q 2397 3584 2469 3576 
Q 2541 3569 2628 3553 
L 2631 2963 
z
" transform="scale(0.015625)"/>
      <path id="DejaVuSans-68" d="M 3513 2113 
L 3513 0 
L 2938 0 
L 2938 2094 
Q 2938 2591 2744 2837 
Q 2550 3084 2163 3084 
Q 1697 3084 1428 2787 
Q 1159 2491 1159 1978 
L 1159 0 
L 581 0 
L 581 4863 
L 1159 4863 
L 1159 2956 
Q 1366 3272 1645 3428 
Q 1925 3584 2291 3584 
Q 2894 3584 3203 3211 
Q 3513 2838 3513 2113 
z
" transform="scale(0.015625)"/>
      <path id="DejaVuSans-2f" d="M 1625 4666 
L 2156 4666 
L 531 -594 
L 0 -594 
L 1625 4666 
z
" transform="scale(0.015625)"/>
      <path id="DejaVuSans-42" d="M 1259 2228 
L 1259 519 
L 2272 519 
Q 2781 519 3026 730 
Q 3272 941 3272 1375 
Q 3272 1813 3026 2020 
Q 2781 2228 2272 2228 
L 1259 2228 
z
M 1259 4147 
L 1259 2741 
L 2194 2741 
Q 2656 2741 2882 2914 
Q 3109 3088 3109 3444 
Q 3109 3797 2882 3972 
Q 2656 4147 2194 4147 
L 1259 4147 
z
M 628 4666 
L 2241 4666 
Q 2963 4666 3353 4366 
Q 3744 4066 3744 3513 
Q 3744 3084 3544 2831 
Q 3344 2578 2956 2516 
Q 3422 2416 3680 2098 
Q 3938 1781 3938 1306 
Q 3938 681 3513 340 
Q 3088 0 2303 0 
L 628 0 
L 628 4666 
z
" transform="scale(0.015625)"/>
      <path id="DejaVuSans-2193" d="M 2822 -22 
L 2541 -22 
L 1309 1209 
L 1684 1584 
L 2416 853 
L 2416 4666 
L 2947 4666 
L 2947 853 
L 3672 1584 
L 4047 1209 
L 2822 -22 
z
" transform="scale(0.015625)"/>
      <path id="DejaVuSans-2c" d="M 750 794 
L 1409 794 
L 1409 256 
L 897 -744 
L 494 -744 
L 750 256 
L 750 794 
z
" transform="scale(0.015625)"/>
     </defs>
     <use xlink:href="#DejaVuSans-53"/>
     <use xlink:href="#DejaVuSans-74" transform="translate(63.476562 0)"/>
     <use xlink:href="#DejaVuSans-61" transform="translate(102.685547 0)"/>
     <use xlink:href="#DejaVuSans-74" transform="translate(163.964844 0)"/>
     <use xlink:href="#DejaVuSans-6f" transform="translate(203.173828 0)"/>
     <use xlink:href="#DejaVuSans-20" transform="translate(264.355469 0)"/>
     <use xlink:href="#DejaVuSans-64" transform="translate(296.142578 0)"/>
     <use xlink:href="#DejaVuSans-69" transform="translate(359.619141 0)"/>
     <use xlink:href="#DejaVuSans-20" transform="translate(387.402344 0)"/>
     <use xlink:href="#DejaVuSans-61" transform="translate(419.189453 0)"/>
     <use xlink:href="#DejaVuSans-74" transform="translate(480.46875 0)"/>
     <use xlink:href="#DejaVuSans-74" transform="translate(519.677734 0)"/>
     <use xlink:href="#DejaVuSans-69" transform="translate(558.886719 0)"/>
     <use xlink:href="#DejaVuSans-76" transform="translate(586.669922 0)"/>
     <use xlink:href="#DejaVuSans-61" transform="translate(645.849609 0)"/>
     <use xlink:href="#DejaVuSans-7a" transform="translate(707.128906 0)"/>
     <use xlink:href="#DejaVuSans-69" transform="translate(759.619141 0)"/>
     <use xlink:href="#DejaVuSans-6f" transform="translate(787.402344 0)"/>
     <use xlink:href="#DejaVuSans-6e" transform="translate(848.583984 0)"/>
     <use xlink:href="#DejaVuSans-65" transform="translate(911.962891 0)"/>
     <use xlink:href="#DejaVuSans-20" transform="translate(973.486328 0)"/>
     <use xlink:href="#DejaVuSans-6d" transform="translate(1005.273438 0)"/>
     <use xlink:href="#DejaVuSans-65" transform="translate(1102.685547 0)"/>
     <use xlink:href="#DejaVuSans-6e" transform="translate(1164.208984 0)"/>
     <use xlink:href="#DejaVuSans-74" transform="translate(1227.587891 0)"/>
     <use xlink:href="#DejaVuSans-61" transform="translate(1266.796875 0)"/>
     <use xlink:href="#DejaVuSans-6c" transform="translate(1328.076172 0)"/>
     <use xlink:href="#DejaVuSans-65" transform="translate(1355.859375 0)"/>
     <use xlink:href="#DejaVuSans-20" transform="translate(1417.382812 0)"/>
     <use xlink:href="#DejaVuSans-69" transform="translate(1449.169922 0)"/>
     <use xlink:href="#DejaVuSans-6e" transform="translate(1476.953125 0)"/>
     <use xlink:href="#DejaVuSans-74" transform="translate(1540.332031 0)"/>
     <use xlink:href="#DejaVuSans-65" transform="translate(1579.541016 0)"/>
     <use xlink:href="#DejaVuSans-6e" transform="translate(1641.064453 0)"/>
     <use xlink:href="#DejaVuSans-73" transform="translate(1704.443359 0)"/>
     <use xlink:href="#DejaVuSans-61" transform="translate(1756.542969 0)"/>
     <use xlink:href="#DejaVuSans-20" transform="translate(1817.822266 0)"/>
     <use xlink:href="#DejaVuSans-6f" transform="translate(1849.609375 0)"/>
     <use xlink:href="#DejaVuSans-20" transform="translate(1910.791016 0)"/>
     <use xlink:href="#DejaVuSans-73" transform="translate(1942.578125 0)"/>
     <use xlink:href="#DejaVuSans-74" transform="translate(1994.677734 0)"/>
     <use xlink:href="#DejaVuSans-72" transform="translate(2033.886719 0)"/>
     <use xlink:href="#DejaVuSans-65" transform="translate(2072.75 0)"/>
     <use xlink:href="#DejaVuSans-73" transform="translate(2134.273438 0)"/>
     <use xlink:href="#DejaVuSans-73" transform="translate(2186.373047 0)"/>
     <use xlink:href="#DejaVuSans-20" transform="translate(2238.472656 0)"/>
     <use xlink:href="#DejaVuSans-28" transform="translate(2270.259766 0)"/>
     <use xlink:href="#DejaVuSans-54" transform="translate(2309.273438 0)"/>
     <use xlink:href="#DejaVuSans-68" transform="translate(2370.357422 0)"/>
     <use xlink:href="#DejaVuSans-65" transform="translate(2433.736328 0)"/>
     <use xlink:href="#DejaVuSans-74" transform="translate(2495.259766 0)"/>
     <use xlink:href="#DejaVuSans-61" transform="translate(2534.46875 0)"/>
     <use xlink:href="#DejaVuSans-2f" transform="translate(2595.748047 0)"/>
     <use xlink:href="#DejaVuSans-42" transform="translate(2629.439453 0)"/>
     <use xlink:href="#DejaVuSans-65" transform="translate(2698.042969 0)"/>
     <use xlink:href="#DejaVuSans-74" transform="translate(2759.566406 0)"/>
     <use xlink:href="#DejaVuSans-61" transform="translate(2798.775391 0)"/>
     <use xlink:href="#DejaVuSans-20" transform="translate(2860.054688 0)"/>
     <use xlink:href="#DejaVuSans-2193" transform="translate(2891.841797 0)"/>
     <use xlink:href="#DejaVuSans-2c" transform="translate(2975.630859 0)"/>
     <use xlink:href="#DejaVuSans-20" transform="translate(3007.417969 0)"/>
     <use xlink:href="#DejaVuSans-41" transform="translate(3039.205078 0)"/>
     <use xlink:href="#DejaVuSans-6c" transform="translate(3107.613281 0)"/>
     <use xlink:href="#DejaVuSans-70" transform="translate(3135.396484 0)"/>
     <use xlink:href="#DejaVuSans-68" transform="translate(3198.873047 0)"/>
     <use xlink:href="#DejaVuSans-61" transform="translate(3262.251953 0)"/>
     <use xlink:href="#DejaVuSans-2f" transform="translate(3323.53125 0)"/>
     <use xlink:href="#DejaVuSans-42" transform="translate(3357.222656 0)"/>
     <use xlink:href="#DejaVuSans-65" transform="translate(3425.826172 0)"/>
     <use xlink:href="#DejaVuSans-74" transform="translate(3487.349609 0)"/>
     <use xlink:href="#DejaVuSans-61" transform="translate(3526.558594 0)"/>
     <use xlink:href="#DejaVuSans-20" transform="translate(3587.837891 0)"/>
     <use xlink:href="#DejaVuSans-2193" transform="translate(3619.625 0)"/>
     <use xlink:href="#DejaVuSans-29" transform="translate(3703.414062 0)"/>
    </g>
   </g>
   <g id="text_19">
    <!-- Simulazione EEG totale (PA=2, NA=7) -->
    <g transform="translate(335.201875 20.88) scale(0.12 -0.12)">
     <defs>
      <path id="DejaVuSans-45" d="M 628 4666 
L 3578 4666 
L 3578 4134 
L 1259 4134 
L 1259 2753 
L 3481 2753 
L 3481 2222 
L 1259 2222 
L 1259 531 
L 3634 531 
L 3634 0 
L 628 0 
L 628 4666 
z
" transform="scale(0.015625)"/>
      <path id="DejaVuSans-47" d="M 3809 666 
L 3809 1919 
L 2778 1919 
L 2778 2438 
L 4434 2438 
L 4434 434 
Q 4069 175 3628 42 
Q 3188 -91 2688 -91 
Q 1594 -91 976 548 
Q 359 1188 359 2328 
Q 359 3472 976 4111 
Q 1594 4750 2688 4750 
Q 3144 4750 3555 4637 
Q 3966 4525 4313 4306 
L 4313 3634 
Q 3963 3931 3569 4081 
Q 3175 4231 2741 4231 
Q 1884 4231 1454 3753 
Q 1025 3275 1025 2328 
Q 1025 1384 1454 906 
Q 1884 428 2741 428 
Q 3075 428 3337 486 
Q 3600 544 3809 666 
z
" transform="scale(0.015625)"/>
      <path id="DejaVuSans-50" d="M 1259 4147 
L 1259 2394 
L 2053 2394 
Q 2494 2394 2734 2622 
Q 2975 2850 2975 3272 
Q 2975 3691 2734 3919 
Q 2494 4147 2053 4147 
L 1259 4147 
z
M 628 4666 
L 2053 4666 
Q 2838 4666 3239 4311 
Q 3641 3956 3641 3272 
Q 3641 2581 3239 2228 
Q 2838 1875 2053 1875 
L 1259 1875 
L 1259 0 
L 628 0 
L 628 4666 
z
" transform="scale(0.015625)"/>
      <path id="DejaVuSans-3d" d="M 678 2906 
L 4684 2906 
L 4684 2381 
L 678 2381 
L 678 2906 
z
M 678 1631 
L 4684 1631 
L 4684 1100 
L 678 1100 
L 678 1631 
z
" transform="scale(0.015625)"/>
      <path id="DejaVuSans-4e" d="M 628 4666 
L 1478 4666 
L 3547 763 
L 3547 4666 
L 4159 4666 
L 4159 0 
L 3309 0 
L 1241 3903 
L 1241 0 
L 628 0 
L 628 4666 
z
" transform="scale(0.015625)"/>
     </defs>
     <use xlink:href="#DejaVuSans-53"/>
     <use xlink:href="#DejaVuSans-69" transform="translate(63.476562 0)"/>
     <use xlink:href="#DejaVuSans-6d" transform="translate(91.259766 0)"/>
     <use xlink:href="#DejaVuSans-75" transform="translate(188.671875 0)"/>
     <use xlink:href="#DejaVuSans-6c" transform="translate(252.050781 0)"/>
     <use xlink:href="#DejaVuSans-61" transform="translate(279.833984 0)"/>
     <use xlink:href="#DejaVuSans-7a" transform="translate(341.113281 0)"/>
     <use xlink:href="#DejaVuSans-69" transform="translate(393.603516 0)"/>
     <use xlink:href="#DejaVuSans-6f" transform="translate(421.386719 0)"/>
     <use xlink:href="#DejaVuSans-6e" transform="translate(482.568359 0)"/>
     <use xlink:href="#DejaVuSans-65" transform="translate(545.947266 0)"/>
     <use xlink:href="#DejaVuSans-20" transform="translate(607.470703 0)"/>
     <use xlink:href="#DejaVuSans-45" transform="translate(639.257812 0)"/>
     <use xlink:href="#DejaVuSans-45" transform="translate(702.441406 0)"/>
     <use xlink:href="#DejaVuSans-47" transform="translate(765.625 0)"/>
     <use xlink:href="#DejaVuSans-20" transform="translate(843.115234 0)"/>
     <use xlink:href="#DejaVuSans-74" transform="translate(874.902344 0)"/>
     <use xlink:href="#DejaVuSans-6f" transform="translate(914.111328 0)"/>
     <use xlink:href="#DejaVuSans-74" transform="translate(975.292969 0)"/>
     <use xlink:href="#DejaVuSans-61" transform="translate(1014.501953 0)"/>
     <use xlink:href="#DejaVuSans-6c" transform="translate(1075.78125 0)"/>
     <use xlink:href="#DejaVuSans-65" transform="translate(1103.564453 0)"/>
     <use xlink:href="#DejaVuSans-20" transform="translate(1165.087891 0)"/>
     <use xlink:href="#DejaVuSans-28" transform="translate(1196.875 0)"/>
     <use xlink:href="#DejaVuSans-50" transform="translate(1235.888672 0)"/>
     <use xlink:href="#DejaVuSans-41" transform="translate(1289.816406 0)"/>
     <use xlink:href="#DejaVuSans-3d" transform="translate(1358.224609 0)"/>
     <use xlink:href="#DejaVuSans-32" transform="translate(1442.013672 0)"/>
     <use xlink:href="#DejaVuSans-2c" transform="translate(1505.636719 0)"/>
     <use xlink:href="#DejaVuSans-20" transform="translate(1537.423828 0)"/>
     <use xlink:href="#DejaVuSans-4e" transform="translate(1569.210938 0)"/>
     <use xlink:href="#DejaVuSans-41" transform="translate(1644.015625 0)"/>
     <use xlink:href="#DejaVuSans-3d" transform="translate(1712.423828 0)"/>
     <use xlink:href="#DejaVuSans-37" transform="translate(1796.212891 0)"/>
     <use xlink:href="#DejaVuSans-29" transform="translate(1859.835938 0)"/>
    </g>
   </g>
  </g>
 </g>
 <defs>
  <clipPath id="p3f16ec8636">
   <rect x="56.09" y="26.88" width="786.085" height="219.16"/>
  </clipPath>
 </defs>
</svg>
